LibertinusSerif-MediumItalic.ufo
<glyph name="quotedbl" format="2">
	<unicode hex="0022"/>
	<advance width="349"/>
	<outline>
		<contour>
			<point x="153" y="421" type="line"/>
			<point x="184" y="425.667" type="line"/>
			<point x="251" y="610.667" type="line"/>
			<point x="251" y="620" type="line" smooth="yes"/>
			<point x="251" y="633"/>
			<point x="244.667" y="644.333"/>
			<point x="220.333" y="644.333" type="curve" smooth="yes"/>
			<point x="186" y="644.333"/>
			<point x="159.667" y="615.333"/>
			<point x="155.333" y="593" type="curve"/>
		</contour>
		<contour>
			<point x="281.667" y="421.667" type="line"/>
			<point x="312.667" y="426.333" type="line"/>
			<point x="379.667" y="610.667" type="line"/>
			<point x="379.667" y="619.667" type="line" smooth="yes"/>
			<point x="379.667" y="632.667"/>
			<point x="373" y="645"/>
			<point x="348.333" y="645" type="curve" smooth="yes"/>
			<point x="315" y="645"/>
			<point x="287.667" y="616"/>
			<point x="284.333" y="593.667" type="curve"/>
		</contour>
	</outline>
</glyph>
<glyph name="numbersign" format="2">
	<unicode hex="0023"/>
	<advance width="463"/>
	<outline>
		<contour>
			<point x="389.667" y="347.333" type="line"/>
			<point x="486.667" y="347.333" type="line"/>
			<point x="504.667" y="402" type="line"/>
			<point x="408" y="402" type="line"/>
			<point x="466.667" y="573" type="line"/>
			<point x="428.667" y="573" type="line"/>
			<point x="414.667" y="534.333"/>
			<point x="383.333" y="440.667"/>
			<point x="369.333" y="402" type="curve"/>
			<point x="265.667" y="402" type="line"/>
			<point x="325.333" y="573" type="line"/>
			<point x="285.333" y="573" type="line"/>
			<point x="272" y="534.333"/>
			<point x="239.667" y="440"/>
			<point x="226.667" y="402" type="curve"/>
			<point x="134.667" y="402" type="line"/>
			<point x="116.333" y="347.333" type="line"/>
			<point x="207.667" y="347.333" type="line"/>
			<point x="199.333" y="322.333"/>
			<point x="179.333" y="263.333"/>
			<point x="170.667" y="238.333" type="curve"/>
			<point x="78.6667" y="238.333" type="line"/>
			<point x="60.6667" y="184.333" type="line"/>
			<point x="151.667" y="184.333" type="line"/>
			<point x="93.3333" y="13.3333" type="line"/>
			<point x="132.667" y="13.3333" type="line"/>
			<point x="146.667" y="52"/>
			<point x="177.667" y="144.333"/>
			<point x="192" y="184.333" type="curve"/>
			<point x="295.667" y="184.333" type="line"/>
			<point x="236.333" y="13.3333" type="line"/>
			<point x="275" y="13.3333" type="line"/>
			<point x="288.667" y="51.3333"/>
			<point x="320.333" y="144.333"/>
			<point x="334.667" y="184.333" type="curve"/>
			<point x="431.667" y="184.333" type="line"/>
			<point x="449" y="238.333" type="line"/>
			<point x="352" y="238.333" type="line"/>
		</contour>
		<contour>
			<point x="314" y="238.333" type="line"/>
			<point x="210" y="238.333" type="line"/>
			<point x="218.667" y="263.333"/>
			<point x="239.667" y="322.333"/>
			<point x="248.333" y="347.333" type="curve"/>
			<point x="351" y="347.333" type="line"/>
		</contour>
	</outline>
</glyph>
<glyph name="dollar" format="2">
	<unicode hex="0024"/>
	<advance width="463"/>
	<outline>
		<contour>
			<point x="480.333" y="571" type="curve"/>
			<point x="462" y="571"/>
			<point x="444" y="574.667"/>
			<point x="421.667" y="578.333" type="curve" smooth="yes"/>
			<point x="406" y="581"/>
			<point x="387.667" y="583.333"/>
			<point x="366.667" y="584.333" type="curve"/>
			<point x="381.667" y="649.667" type="line"/>
			<point x="370.333" y="649.667"/>
			<point x="356" y="649"/>
			<point x="345.667" y="648" type="curve"/>
			<point x="331.333" y="584" type="line"/>
			<point x="296.333" y="581.333"/>
			<point x="251" y="569"/>
			<point x="214.667" y="544" type="curve" smooth="yes"/>
			<point x="180.333" y="520.333"/>
			<point x="151.667" y="486.333"/>
			<point x="141.667" y="443.667" type="curve" smooth="yes"/>
			<point x="140.333" y="438.333"/>
			<point x="139.333" y="433.667"/>
			<point x="139" y="428" type="curve"/>
			<point x="135" y="394.667"/>
			<point x="141.333" y="363.667"/>
			<point x="156" y="339.667" type="curve" smooth="yes"/>
			<point x="180.667" y="300.333"/>
			<point x="226" y="275.667"/>
			<point x="259" y="256.667" type="curve"/>
			<point x="209" y="25.3333" type="line"/>
			<point x="148" y="34.3333"/>
			<point x="113.333" y="89"/>
			<point x="110" y="154.333" type="curve"/>
			<point x="103.333" y="156"/>
			<point x="95.3333" y="154.333"/>
			<point x="88" y="153" type="curve" smooth="yes"/>
			<point x="84.3333" y="152.333"/>
			<point x="81.3333" y="152"/>
			<point x="77.3333" y="151.333" type="curve"/>
			<point x="70.3333" y="90.6667"/>
			<point x="67.6667" y="38.3333"/>
			<point name=".hr01" x="63.6667" y="2.33333" type="curve"/>
			<point x="82.3333" y="2.33333"/>
			<point x="85.3333" y="9.33333"/>
			<point x="98.6667" y="8.66667" type="curve"/>
			<point x="119" y="7"/>
			<point x="145" y="-7.66667"/>
			<point x="201.667" y="-10.6667" type="curve"/>
			<point x="184.333" y="-86.6667" type="line"/>
			<point x="194.667" y="-86.6667"/>
			<point x="210.333" y="-86.3333"/>
			<point name=".hr02" x="220" y="-85" type="curve"/>
			<point name=".hr03" x="237" y="-10.3333" type="line"/>
			<point x="284.667" y="-8.66667"/>
			<point x="324.667" y="4.66667"/>
			<point x="356.667" y="27" type="curve"/>
			<point x="411.667" y="62.6667"/>
			<point x="437.667" y="120"/>
			<point x="446.333" y="157.667" type="curve"/>
			<point x="447" y="161" type="line" smooth="yes"/>
			<point x="455.667" y="207"/>
			<point x="441" y="239.667"/>
			<point x="418.667" y="267" type="curve" smooth="yes"/>
			<point x="391.667" y="300.333"/>
			<point x="350.333" y="322.333"/>
			<point x="321" y="336.667" type="curve"/>
			<point x="318.667" y="338.333"/>
			<point x="316.333" y="339"/>
			<point x="314" y="340" type="curve"/>
			<point x="359" y="550" type="line"/>
			<point x="409" y="542.333"/>
			<point x="428" y="504.667"/>
			<point x="433.667" y="446" type="curve"/>
			<point x="434.667" y="438.667"/>
			<point x="434.667" y="431.333"/>
			<point x="435.667" y="424.333" type="curve"/>
			<point x="445.333" y="423.667"/>
			<point x="458.667" y="425.333"/>
			<point x="468.333" y="428.667" type="curve"/>
			<point x="472.333" y="477.667"/>
			<point x="474" y="523"/>
		</contour>
		<contour>
			<point x="290.667" y="239.333" type="line"/>
			<point x="325" y="219.333"/>
			<point x="367.667" y="188.667"/>
			<point x="353.667" y="120.333" type="curve" smooth="yes"/>
			<point x="340.667" y="58"/>
			<point x="287.333" y="31"/>
			<point x="244.333" y="25" type="curve"/>
		</contour>
		<contour>
			<point name=".hr04" x="282.333" y="358" type="line"/>
			<point x="250.667" y="378.667"/>
			<point x="214.333" y="411.667"/>
			<point x="222.667" y="455" type="curve" smooth="yes"/>
			<point x="234.333" y="510.333"/>
			<point x="278.333" y="544.667"/>
			<point x="324" y="551.333" type="curve"/>
		</contour>
	</outline>
</glyph>
<glyph name="quotesingle" format="2">
	<unicode hex="0027"/>
	<advance width="198"/>
	<outline>
		<contour>
			<point x="145" y="421" type="curve"/>
			<point x="172" y="425.667" type="line"/>
			<point x="172" y="425.667"/>
			<point x="237.667" y="594.333"/>
			<point x="240.667" y="610" type="curve" smooth="yes"/>
			<point x="242" y="616.667"/>
			<point x="242.333" y="625.667"/>
			<point x="229" y="627" type="curve"/>
			<point x="215.667" y="635.667"/>
			<point x="202" y="634"/>
			<point x="185.667" y="626.333" type="curve"/>
			<point x="165" y="624.333"/>
			<point x="145" y="549"/>
			<point x="143" y="534.333" type="curve"/>
			<point x="141.667" y="528.333"/>
			<point x="145" y="421"/>
		</contour>
	</outline>
</glyph>
<glyph name="asterisk" format="2">
	<unicode hex="002A"/>
	<advance width="433"/>
	<outline>
		<contour>
			<point x="281" y="566.667" type="curve"/>
			<point x="241.333" y="529.333"/>
			<point x="191.333" y="525.667"/>
			<point x="182.333" y="479" type="curve"/>
			<point x="182" y="477.667"/>
			<point x="182" y="475.333"/>
			<point x="182" y="474" type="curve" smooth="yes"/>
			<point x="182" y="461.333"/>
			<point x="191.667" y="451"/>
			<point x="206" y="451" type="curve" smooth="yes"/>
			<point x="249" y="451"/>
			<point x="260.667" y="509"/>
			<point x="293.667" y="554" type="curve"/>
			<point x="299.333" y="541.667"/>
			<point x="302" y="526.667"/>
			<point x="304.333" y="512.333" type="curve"/>
			<point x="310.333" y="483"/>
			<point x="315.333" y="455"/>
			<point x="339.667" y="451.667" type="curve"/>
			<point x="341.667" y="451"/>
			<point x="344.333" y="451"/>
			<point x="346.333" y="451.333" type="curve"/>
			<point x="359.667" y="452"/>
			<point x="376" y="463"/>
			<point x="379" y="480" type="curve"/>
			<point x="380" y="483.333"/>
			<point x="380" y="485.667"/>
			<point x="380" y="488.667" type="curve"/>
			<point x="380.667" y="510.667"/>
			<point x="363.667" y="522.667"/>
			<point x="344.333" y="536.667" type="curve"/>
			<point x="334" y="545.333"/>
			<point x="322.667" y="554"/>
			<point x="313.667" y="566.333" type="curve"/>
			<point x="331.667" y="569.333"/>
			<point x="348" y="570"/>
			<point x="367.333" y="570" type="curve" smooth="yes"/>
			<point x="401" y="570"/>
			<point x="436.333" y="578"/>
			<point x="442" y="608" type="curve"/>
			<point x="442" y="609"/>
			<point x="442" y="611"/>
			<point x="442" y="612.333" type="curve"/>
			<point x="442.333" y="623.333"/>
			<point x="437" y="639.333"/>
			<point x="413.333" y="639.333" type="curve" smooth="yes"/>
			<point x="380.333" y="639.333"/>
			<point x="359.667" y="606.333"/>
			<point x="311.667" y="586.667" type="curve"/>
			<point x="319.333" y="616"/>
			<point x="344.333" y="654.333"/>
			<point x="350.333" y="681" type="curve" smooth="yes"/>
			<point x="350.667" y="682.333"/>
			<point x="351" y="684.333"/>
			<point x="351" y="685.667" type="curve"/>
			<point x="351.333" y="687.333"/>
			<point x="351.333" y="690"/>
			<point x="351.333" y="691.333" type="curve"/>
			<point x="351" y="709.333"/>
			<point x="338.667" y="718"/>
			<point x="323" y="718" type="curve" smooth="yes"/>
			<point x="305.333" y="718"/>
			<point x="287" y="700"/>
			<point x="283" y="679" type="curve"/>
			<point x="282.667" y="675.667"/>
			<point x="282" y="672.667"/>
			<point x="282" y="669.333" type="curve"/>
			<point x="281.667" y="660"/>
			<point x="284" y="650.667"/>
			<point x="286" y="640.333" type="curve" smooth="yes"/>
			<point x="288.333" y="627.333"/>
			<point x="291.667" y="614"/>
			<point x="291.333" y="597.667" type="curve"/>
			<point x="291.333" y="594"/>
			<point x="291" y="591"/>
			<point x="291" y="587.333" type="curve"/>
			<point x="251.333" y="605.667"/>
			<point x="239.667" y="638.667"/>
			<point x="206.333" y="638.667" type="curve" smooth="yes"/>
			<point x="183.667" y="638.667"/>
			<point x="171.333" y="622"/>
			<point x="168.333" y="608" type="curve"/>
			<point x="168" y="605.667"/>
			<point x="168" y="603"/>
			<point x="168" y="600.667" type="curve"/>
			<point x="167" y="572.333"/>
			<point x="197" y="568.667"/>
			<point x="240.667" y="571" type="curve" smooth="yes"/>
			<point x="250.667" y="571.333"/>
			<point x="260.333" y="570.667"/>
			<point x="269" y="568.667" type="curve"/>
			<point x="273.333" y="568.333"/>
			<point x="277.333" y="567.667"/>
		</contour>
	</outline>
</glyph>
<glyph name="plus" format="2">
	<unicode hex="002B"/>
	<advance width="530"/>
	<outline>
		<contour>
			<point x="345.667" y="260.333" type="line"/>
			<point x="377" y="431" type="line"/>
			<point x="318.667" y="431" type="line"/>
			<point x="287" y="260.333" type="line"/>
			<point x="118.667" y="260.333" type="line"/>
			<point x="108.333" y="203" type="line"/>
			<point x="275.667" y="203" type="line"/>
			<point x="243.667" y="33.3333" type="line"/>
			<point x="302" y="33.3333" type="line"/>
			<point x="334.333" y="203" type="line"/>
			<point x="502" y="203" type="line"/>
			<point x="513" y="260.333" type="line"/>
		</contour>
	</outline>
</glyph>
<glyph name="slash" format="2">
	<unicode hex="002F"/>
	<advance width="293"/>
	<outline>
		<contour>
			<point x="403" y="682" type="line"/>
			<point x="356" y="682" type="line"/>
			<point x="8.33333" y="-21" type="line"/>
			<point x="56" y="-21" type="line"/>
		</contour>
	</outline>
</glyph>
<glyph name="zero" format="2">
	<unicode hex="0030"/>
	<advance width="467"/>
	<outline>
		<contour>
			<point x="235" y="-10" type="curve" smooth="yes"/>
			<point x="282.667" y="-10"/>
			<point x="349.667" y="18.6667"/>
			<point x="405.667" y="93.6667" type="curve" smooth="yes"/>
			<point x="453" y="157.333"/>
			<point x="505" y="286.667"/>
			<point x="505" y="414.667" type="curve" smooth="yes"/>
			<point x="505" y="530.333"/>
			<point x="456.333" y="610"/>
			<point x="364" y="610" type="curve" smooth="yes"/>
			<point x="336.333" y="610"/>
			<point x="307.333" y="601.333"/>
			<point x="279.667" y="584.333" type="curve"/>
			<point x="259" y="573"/>
			<point x="239.667" y="556.667"/>
			<point x="220" y="536" type="curve" smooth="yes"/>
			<point x="154.667" y="465.333"/>
			<point x="95.3333" y="337.667"/>
			<point x="95.3333" y="193" type="curve" smooth="yes"/>
			<point x="95.3333" y="86"/>
			<point x="135.333" y="-10"/>
		</contour>
		<contour>
			<point x="356.667" y="573.667" type="curve" smooth="yes"/>
			<point x="370.667" y="573.667"/>
			<point x="382.667" y="568.667"/>
			<point x="391.333" y="559.333" type="curve"/>
			<point x="404.667" y="546.333"/>
			<point x="413.667" y="522"/>
			<point x="416.333" y="481" type="curve" smooth="yes"/>
			<point x="417" y="473"/>
			<point x="417" y="464.333"/>
			<point x="416.667" y="454.667" type="curve" smooth="yes"/>
			<point x="415" y="349.667"/>
			<point x="372" y="182.667"/>
			<point x="344.667" y="122" type="curve" smooth="yes"/>
			<point x="308" y="38.6667"/>
			<point x="263.333" y="25.6667"/>
			<point x="243" y="25.6667" type="curve" smooth="yes"/>
			<point x="200.667" y="25.6667"/>
			<point x="185" y="64.6667"/>
			<point x="182.333" y="115.333" type="curve"/>
			<point x="181.667" y="123.667"/>
			<point x="181.667" y="132"/>
			<point x="181.667" y="140.333" type="curve"/>
			<point x="183.667" y="276.667"/>
			<point x="241.333" y="449"/>
			<point x="278.333" y="513.667" type="curve"/>
			<point x="283.333" y="523"/>
			<point x="288.333" y="530"/>
			<point x="292.333" y="536" type="curve"/>
			<point x="315.667" y="566.333"/>
			<point x="338.667" y="573.667"/>
		</contour>
	</outline>
</glyph>
<glyph name="one" format="2">
	<unicode hex="0031"/>
	<advance width="467"/>
	<outline>
		<contour>
			<point x="330.667" y="92" type="curve" smooth="yes"/>
			<point x="411" y="486.333" type="line"/>
			<point x="419.333" y="530.667"/>
			<point x="431.333" y="575.667"/>
			<point x="436.667" y="601.667" type="curve"/>
			<point x="437.667" y="607.333"/>
			<point x="434" y="610"/>
			<point x="429.333" y="610" type="curve" smooth="yes"/>
			<point x="428" y="610"/>
			<point x="426.333" y="610"/>
			<point x="424.667" y="609" type="curve"/>
			<point x="417" y="605.333"/>
			<point x="409" y="601.333"/>
			<point x="399.667" y="596.667" type="curve"/>
			<point x="396" y="594.667"/>
			<point x="392" y="593.333"/>
			<point x="388" y="591" type="curve"/>
			<point x="339" y="566.333"/>
			<point x="278.333" y="541"/>
			<point x="197.333" y="513" type="curve"/>
			<point x="196.333" y="500"/>
			<point x="199.333" y="488.667"/>
			<point x="206.333" y="479.333" type="curve"/>
			<point x="243" y="493"/>
			<point x="277" y="497"/>
			<point x="296" y="498.333" type="curve"/>
			<point x="298" y="498.333"/>
			<point x="300" y="498.333"/>
			<point x="302" y="498.333" type="curve" smooth="yes"/>
			<point x="311.667" y="498.333"/>
			<point x="317" y="491.667"/>
			<point x="316" y="473.667" type="curve" smooth="yes"/>
			<point x="315.667" y="465"/>
			<point x="314" y="457.333"/>
			<point x="311.667" y="444.333" type="curve" smooth="yes"/>
			<point x="245.333" y="111.333" type="line"/>
			<point x="241.333" y="92" type="line" smooth="yes"/>
			<point x="233.667" y="54"/>
			<point x="211" y="37"/>
			<point x="169.667" y="32.3333" type="curve" smooth="yes"/>
			<point x="157" y="30.6667"/>
			<point x="144" y="30.3333"/>
			<point x="130.667" y="29.3333" type="curve"/>
			<point x="124.333" y="24.6667"/>
			<point x="121.667" y="6.66667"/>
			<point x="127" y="-1.33333" type="curve"/>
			<point x="179.333" y="-0.333333"/>
			<point x="222" y="0"/>
			<point x="270.667" y="0" type="curve" smooth="yes"/>
			<point x="315.333" y="0"/>
			<point x="352.667" y="-0.333333"/>
			<point x="405.667" y="-1.33333" type="curve"/>
			<point x="412" y="3.33333"/>
			<point x="414.667" y="24"/>
			<point x="410" y="29.3333" type="curve"/>
			<point x="397" y="30.3333"/>
			<point x="384.333" y="30.6667"/>
			<point x="372.333" y="32.6667" type="curve"/>
			<point x="335.333" y="37.3333"/>
			<point x="323.333" y="55.6667"/>
		</contour>
	</outline>
</glyph>
<glyph name="two" format="2">
	<unicode hex="0032"/>
	<advance width="467"/>
	<outline>
		<contour>
			<point x="248.333" y="585.667" type="curve" smooth="yes"/>
			<point x="189.667" y="557"/>
			<point x="146" y="508.667"/>
			<point x="146" y="465" type="curve" smooth="yes"/>
			<point x="146" y="447"/>
			<point x="161.667" y="426"/>
			<point x="184.333" y="426" type="curve" smooth="yes"/>
			<point x="204.667" y="426"/>
			<point x="225" y="439"/>
			<point x="231.667" y="458.667" type="curve"/>
			<point x="235" y="467.333"/>
			<point x="234.333" y="476.667"/>
			<point x="233.667" y="485" type="curve"/>
			<point x="233.333" y="491.667"/>
			<point x="231" y="501.333"/>
			<point x="231" y="507" type="curve" smooth="yes"/>
			<point x="231" y="511"/>
			<point x="231.333" y="514.667"/>
			<point x="233" y="518.667" type="curve"/>
			<point x="239.333" y="537.667"/>
			<point x="258.667" y="558"/>
			<point x="297.333" y="565.333" type="curve"/>
			<point x="307.667" y="568"/>
			<point x="319.667" y="569.333"/>
			<point x="333.333" y="569" type="curve"/>
			<point x="364.667" y="566.667"/>
			<point x="404.667" y="537.333"/>
			<point x="404.667" y="478" type="curve" smooth="yes"/>
			<point x="404.667" y="401.333"/>
			<point x="363" y="342"/>
			<point x="306" y="287.667" type="curve" smooth="yes"/>
			<point x="302" y="283.667"/>
			<point x="298" y="280.333"/>
			<point x="294" y="276.333" type="curve"/>
			<point x="222" y="210" type="line"/>
			<point x="214" y="202.667" type="line" smooth="yes"/>
			<point x="132.333" y="126.667"/>
			<point x="93" y="82"/>
			<point x="71" y="45.3333" type="curve"/>
			<point x="68.6667" y="43.3333" type="line"/>
			<point x="62" y="29.3333"/>
			<point x="58.6667" y="12.6667"/>
			<point x="58" y="-0.666667" type="curve"/>
			<point x="67.6667" y="-0.666667"/>
			<point x="109" y="0"/>
			<point x="138.667" y="0" type="curve" smooth="yes"/>
			<point x="308.667" y="0" type="line" smooth="yes"/>
			<point x="338.333" y="0"/>
			<point x="377" y="-0.666667"/>
			<point x="386.667" y="-0.666667" type="curve"/>
			<point x="408.333" y="46"/>
			<point x="432.333" y="123.667"/>
			<point x="438.667" y="142.667" type="curve"/>
			<point x="430.333" y="148"/>
			<point x="422" y="151.333"/>
			<point x="408" y="151.333" type="curve"/>
			<point x="379" y="88.6667"/>
			<point x="362.333" y="73"/>
			<point x="325.667" y="73" type="curve" smooth="yes"/>
			<point x="166.667" y="73" type="line"/>
			<point x="180" y="113.333"/>
			<point x="238.333" y="164.333"/>
			<point x="254.333" y="178.667" type="curve" smooth="yes"/>
			<point x="314.333" y="231" type="line" smooth="yes"/>
			<point x="332.667" y="247.333"/>
			<point x="350.667" y="262.667"/>
			<point x="367.667" y="278" type="curve" smooth="yes"/>
			<point x="430.333" y="332.667"/>
			<point x="493.667" y="398"/>
			<point x="499.667" y="478" type="curve"/>
			<point x="500.333" y="483.333"/>
			<point x="500.333" y="489.333"/>
			<point x="500" y="494.333" type="curve" smooth="yes"/>
			<point x="496.333" y="577"/>
			<point x="419.667" y="610"/>
			<point x="352" y="610" type="curve" smooth="yes"/>
			<point x="310.667" y="610"/>
			<point x="278.333" y="600.333"/>
		</contour>
	</outline>
</glyph>
<glyph name="five" format="2">
	<unicode hex="0035"/>
	<advance width="467"/>
	<outline>
		<contour>
			<point x="364" y="209" type="curve" smooth="yes"/>
			<point x="364" y="150.667"/>
			<point x="341" y="99.6667"/>
			<point x="308" y="66.3333" type="curve" smooth="yes"/>
			<point x="282.667" y="41.3333"/>
			<point x="251.333" y="26"/>
			<point x="218.667" y="26" type="curve" smooth="yes"/>
			<point x="191" y="26"/>
			<point x="173" y="43.6667"/>
			<point x="161.333" y="62.3333" type="curve" smooth="yes"/>
			<point x="149.667" y="80.3333"/>
			<point x="136.333" y="98.6667"/>
			<point x="111.333" y="98.6667" type="curve" smooth="yes"/>
			<point x="85.6667" y="98.6667"/>
			<point x="65.6667" y="77.6667"/>
			<point x="65.6667" y="55" type="curve" smooth="yes"/>
			<point x="65.6667" y="41.6667"/>
			<point x="74.6667" y="29"/>
			<point x="88.6667" y="19.3333" type="curve" smooth="yes"/>
			<point x="117.333" y="0"/>
			<point x="166" y="-10"/>
			<point x="207.667" y="-10" type="curve" smooth="yes"/>
			<point x="338.667" y="-10"/>
			<point x="449" y="87"/>
			<point x="455" y="214" type="curve"/>
			<point x="455.667" y="219.667"/>
			<point x="455.667" y="225"/>
			<point x="455.333" y="230.667" type="curve"/>
			<point x="453.667" y="307.333"/>
			<point x="406.667" y="380"/>
			<point x="315.667" y="388" type="curve"/>
			<point x="277.667" y="390.333"/>
			<point x="234.667" y="390.667"/>
			<point x="212" y="386.667" type="curve"/>
			<point x="261" y="535" type="line"/>
			<point x="295.333" y="530.667"/>
			<point x="345.333" y="528"/>
			<point x="383.333" y="528" type="curve" smooth="yes"/>
			<point x="413.333" y="528"/>
			<point x="440.667" y="530"/>
			<point x="487.333" y="534.667" type="curve"/>
			<point x="513.333" y="608" type="line"/>
			<point x="508" y="608.667"/>
			<point x="501.667" y="609.667"/>
			<point x="496.333" y="611" type="curve"/>
			<point x="439.667" y="604"/>
			<point x="392" y="600.667"/>
			<point x="343.333" y="600.667" type="curve" smooth="yes"/>
			<point x="307.333" y="600.667"/>
			<point x="276.333" y="604"/>
			<point x="236.667" y="606.667" type="curve"/>
			<point x="145.333" y="322.333" type="line"/>
			<point x="151" y="322.667"/>
			<point x="156.333" y="324"/>
			<point x="162" y="323.667" type="curve"/>
			<point x="204" y="332.667"/>
			<point x="251.333" y="331.333"/>
			<point x="282" y="328.333" type="curve" smooth="yes"/>
			<point x="329.333" y="324"/>
			<point x="364" y="275.333"/>
		</contour>
	</outline>
</glyph>
<glyph name="six" format="2">
	<unicode hex="0036"/>
	<advance width="467"/>
	<outline>
		<contour>
			<point x="517.333" y="590" type="curve"/>
			<point x="518.667" y="601.333"/>
			<point x="517.667" y="611.333"/>
			<point x="513.333" y="620" type="curve"/>
			<point x="412.667" y="609.333"/>
			<point x="316" y="565.667"/>
			<point x="237.333" y="493" type="curve" smooth="yes"/>
			<point x="117" y="380.333"/>
			<point x="88.6667" y="234"/>
			<point x="88.6667" y="170.667" type="curve" smooth="yes"/>
			<point x="88.6667" y="34"/>
			<point x="167.333" y="-10"/>
			<point x="243" y="-10" type="curve" smooth="yes"/>
			<point x="375.333" y="-10"/>
			<point x="475" y="108"/>
			<point x="475" y="223.333" type="curve" smooth="yes"/>
			<point x="475" y="284"/>
			<point x="448" y="363.667"/>
			<point x="322.667" y="363.667" type="curve" smooth="yes"/>
			<point x="288.667" y="363.667"/>
			<point x="240" y="344"/>
			<point x="204.667" y="318" type="curve"/>
			<point x="226.667" y="386.667"/>
			<point x="270.333" y="449"/>
			<point x="317.667" y="491" type="curve" smooth="yes"/>
			<point x="377.667" y="544.333"/>
			<point x="448.667" y="576.333"/>
		</contour>
		<contour>
			<point x="195.667" y="284.333" type="curve"/>
			<point x="242" y="316.333"/>
			<point x="269.333" y="323"/>
			<point x="291.667" y="323" type="curve" smooth="yes"/>
			<point x="361.333" y="323"/>
			<point x="383" y="261.667"/>
			<point x="383" y="211.667" type="curve" smooth="yes"/>
			<point x="383" y="134.667"/>
			<point x="334.667" y="24"/>
			<point x="262" y="24" type="curve" smooth="yes"/>
			<point x="228.333" y="24"/>
			<point x="177" y="56"/>
			<point x="177" y="151.667" type="curve" smooth="yes"/>
			<point x="177" y="198.333"/>
			<point x="185.667" y="254.667"/>
		</contour>
	</outline>
</glyph>
<glyph name="eight" format="2">
	<unicode hex="0038"/>
	<advance width="467"/>
	<outline>
		<contour>
			<point x="449.333" y="397.667" type="curve" smooth="yes"/>
			<point x="483" y="427"/>
			<point x="502.667" y="454.333"/>
			<point x="502.667" y="498.667" type="curve" smooth="yes"/>
			<point x="502.667" y="555.333"/>
			<point x="455" y="605.333"/>
			<point x="374" y="609.333" type="curve"/>
			<point x="367.667" y="610"/>
			<point x="361" y="610"/>
			<point x="354.667" y="609.667" type="curve"/>
			<point x="301" y="608.667"/>
			<point x="254.667" y="587.667"/>
			<point x="220.667" y="557" type="curve" smooth="yes"/>
			<point x="186.333" y="527"/>
			<point x="164" y="487.667"/>
			<point x="162.333" y="444.667" type="curve"/>
			<point x="162" y="440"/>
			<point x="162" y="434.667"/>
			<point x="162.667" y="430" type="curve"/>
			<point x="165.333" y="394.667"/>
			<point x="188.333" y="365.333"/>
			<point x="230.667" y="334" type="curve" smooth="yes"/>
			<point x="250" y="319.667" type="line"/>
			<point x="210" y="297.333"/>
			<point x="170.333" y="274.333"/>
			<point x="138.667" y="244" type="curve" smooth="yes"/>
			<point x="104" y="211.333"/>
			<point x="77" y="170.333"/>
			<point x="77" y="117" type="curve" smooth="yes"/>
			<point x="77" y="30"/>
			<point x="150.667" y="-10"/>
			<point x="238.667" y="-10" type="curve" smooth="yes"/>
			<point x="300.667" y="-10"/>
			<point x="352.667" y="11"/>
			<point x="391.333" y="43.6667" type="curve" smooth="yes"/>
			<point x="438" y="83.6667"/>
			<point name=".hr01" x="463.667" y="136"/>
			<point x="463.667" y="201.333" type="curve" smooth="yes"/>
			<point x="463.667" y="240.667"/>
			<point x="450.333" y="279.333"/>
			<point x="416.333" y="306" type="curve"/>
			<point x="412.333" y="309.667"/>
			<point x="408.333" y="312.667"/>
			<point x="404" y="315.333" type="curve"/>
			<point x="365" y="341.667" type="line"/>
			<point x="397.667" y="360"/>
			<point name=".hr02" x="426.667" y="378"/>
		</contour>
		<contour>
			<point x="248" y="22.6667" type="curve" smooth="yes"/>
			<point x="210" y="22.6667"/>
			<point x="163.333" y="49.6667"/>
			<point x="156.667" y="105.333" type="curve" smooth="yes"/>
			<point x="156" y="110.667"/>
			<point x="155.333" y="117"/>
			<point x="155.333" y="123.667" type="curve"/>
			<point x="156" y="194.333"/>
			<point x="207.667" y="250.667"/>
			<point x="280.333" y="297.333" type="curve"/>
			<point x="316" y="271.667" type="line" smooth="yes"/>
			<point x="355.333" y="243"/>
			<point x="373.667" y="215.333"/>
			<point x="377" y="182.667" type="curve"/>
			<point name=".hr03" x="377.667" y="178.333"/>
			<point x="377.667" y="173.333"/>
			<point x="377.333" y="168.333" type="curve"/>
			<point x="376.333" y="122"/>
			<point x="359.667" y="81.3333"/>
			<point x="334" y="56.6667" type="curve"/>
			<point x="310.333" y="32.3333"/>
			<point x="280.667" y="22.6667"/>
		</contour>
		<contour>
			<point x="349.333" y="577" type="curve" smooth="yes"/>
			<point x="393.667" y="577"/>
			<point x="422.667" y="540.333"/>
			<point x="426" y="502.667" type="curve"/>
			<point x="426.667" y="500.667"/>
			<point name=".hr04" x="426.667" y="498"/>
			<point x="426.667" y="496" type="curve" smooth="yes"/>
			<point x="426.667" y="458.667"/>
			<point x="410" y="421.333"/>
			<point x="333.333" y="363.667" type="curve"/>
			<point x="306.667" y="381.333" type="line"/>
			<point x="302" y="384.667"/>
			<point x="297.667" y="387.667"/>
			<point x="293.333" y="391" type="curve" smooth="yes"/>
			<point x="258" y="417.333"/>
			<point x="248" y="441"/>
			<point x="246.667" y="463.333" type="curve"/>
			<point x="246.667" y="465.333"/>
			<point x="246.667" y="467.333"/>
			<point x="246.667" y="469.333" type="curve" smooth="yes"/>
			<point x="246.667" y="496"/>
			<point x="257.333" y="524.333"/>
			<point x="276" y="545" type="curve" smooth="yes"/>
			<point x="294.333" y="564.333"/>
			<point x="319.333" y="577"/>
		</contour>
	</outline>
</glyph>
<glyph name="A" format="2">
	<unicode hex="0041"/>
	<advance width="681"/>
	<outline>
		<contour>
			<point x="165.333" y="77" type="curve" smooth="yes"/>
			<point x="247.333" y="222" type="line" smooth="yes"/>
			<point x="254.333" y="235"/>
			<point x="261.333" y="239"/>
			<point x="284.333" y="239" type="curve" smooth="yes"/>
			<point x="478.333" y="239" type="line"/>
			<point x="499.333" y="89" type="line" smooth="yes"/>
			<point x="502.333" y="70"/>
			<point x="503" y="64.3333"/>
			<point x="503" y="60.6667" type="curve" smooth="yes"/>
			<point x="503" y="43.3333"/>
			<point x="487.333" y="37"/>
			<point x="456.667" y="33.6667" type="curve" smooth="yes"/>
			<point x="425.333" y="30.6667" type="line"/>
			<point x="417.333" y="23.3333"/>
			<point x="417" y="3.66667"/>
			<point x="420" y="-2" type="curve"/>
			<point x="460" y="-1"/>
			<point x="516.333" y="0"/>
			<point x="557" y="0" type="curve" smooth="yes"/>
			<point x="597" y="0"/>
			<point x="637" y="-1"/>
			<point x="674.667" y="-2" type="curve"/>
			<point x="681.333" y="6.33333"/>
			<point x="684.333" y="21.3333"/>
			<point x="681" y="30.6667" type="curve"/>
			<point x="661.667" y="33.6667" type="line" smooth="yes"/>
			<point x="627" y="39.3333"/>
			<point x="608" y="51.6667"/>
			<point x="602.333" y="84.6667" type="curve" smooth="yes"/>
			<point x="508.667" y="658" type="line"/>
			<point x="504.333" y="658" type="line"/>
			<point x="495.333" y="651.667"/>
			<point x="454" y="634.667"/>
			<point x="444" y="634.667" type="curve"/>
			<point x="122" y="101" type="line"/>
			<point x="88.3333" y="43.6667"/>
			<point x="60" y="32"/>
			<point x="14.3333" y="30.6667" type="curve"/>
			<point x="7.66667" y="22"/>
			<point x="4.33333" y="7.33333"/>
			<point x="8" y="-2" type="curve"/>
			<point x="44" y="-1"/>
			<point x="57.3333" y="0"/>
			<point x="94.3333" y="0" type="curve" smooth="yes"/>
			<point x="133.333" y="0"/>
			<point x="185" y="-1"/>
			<point x="220" y="-2" type="curve"/>
			<point x="227" y="6.66667"/>
			<point x="229.333" y="22"/>
			<point x="225" y="30.6667" type="curve"/>
			<point x="196" y="33.6667" type="line" smooth="yes"/>
			<point x="172" y="36"/>
			<point x="159.667" y="43.3333"/>
			<point x="159.667" y="57.6667" type="curve" smooth="yes"/>
			<point x="159.667" y="63.6667"/>
			<point x="161.333" y="70.3333"/>
		</contour>
		<contour>
			<point x="310.333" y="283" type="line" smooth="yes"/>
			<point x="294.333" y="283"/>
			<point x="287" y="285"/>
			<point x="287" y="290" type="curve" smooth="yes"/>
			<point x="287" y="292"/>
			<point x="288" y="294"/>
			<point x="289" y="296" type="curve"/>
			<point x="428.667" y="540" type="line"/>
			<point x="432" y="540" type="line"/>
			<point x="470.333" y="283" type="line"/>
		</contour>
	</outline>
	<anchor name="t.uni0302" x="478" y="740"/>
	<guideline x="588" y="86" angle="99.6337"/>
	<guideline x="437" y="622" angle="238.794"/>
	<guideline x="482" y="241" angle="278.415"/>
	<guideline x="317" y="3" angle="78"/>
	<guideline x="0" y="740" angle="0"/>
</glyph>
<glyph name="C" format="2">
	<unicode hex="0043"/>
	<advance width="636"/>
	<outline>
		<contour>
			<point x="346" y="-10" type="curve" smooth="yes"/>
			<point x="445.667" y="-10"/>
			<point x="540.667" y="36.6667"/>
			<point x="623" y="125.667" type="curve"/>
			<point x="620" y="134.667"/>
			<point x="612" y="142.667"/>
			<point x="601" y="142.667" type="curve"/>
			<point x="518" y="64.6667"/>
			<point x="442.333" y="35.3333"/>
			<point x="360.667" y="35.3333" type="curve" smooth="yes"/>
			<point x="249.667" y="35.3333"/>
			<point x="197" y="134.667"/>
			<point x="197" y="244" type="curve" smooth="yes"/>
			<point x="197" y="397"/>
			<point x="300.667" y="618"/>
			<point x="465.667" y="618" type="curve" smooth="yes"/>
			<point x="598.333" y="618"/>
			<point x="634.333" y="538.333"/>
			<point x="642.333" y="453" type="curve"/>
			<point x="649.333" y="451.667"/>
			<point x="667.333" y="453.333"/>
			<point x="676" y="457.333" type="curve"/>
			<point x="678.333" y="508.667"/>
			<point x="680.333" y="557.333"/>
			<point x="685" y="611.667" type="curve"/>
			<point x="633" y="615.333"/>
			<point x="601.667" y="658"/>
			<point x="486" y="658" type="curve" smooth="yes"/>
			<point x="268.333" y="658"/>
			<point x="89" y="450.667"/>
			<point x="89" y="240.667" type="curve" smooth="yes"/>
			<point x="89" y="91.6667"/>
			<point x="179" y="-10"/>
		</contour>
	</outline>
	<anchor name="t.uni0302" x="477" y="740"/>
</glyph>
<glyph name="P" format="2">
	<unicode hex="0050"/>
	<advance width="529"/>
	<outline>
		<contour>
			<point x="414.333" y="655.333" type="curve" smooth="yes"/>
			<point x="378.667" y="655.333"/>
			<point name=".hr01" x="318.333" y="645.667"/>
			<point x="273.333" y="645.667" type="curve" smooth="yes"/>
			<point x="226" y="645.667"/>
			<point x="180.667" y="646.333"/>
			<point x="147.667" y="647" type="curve"/>
			<point x="140" y="642.333"/>
			<point name=".hr02" x="134" y="618.333"/>
			<point name=".hr03" x="144" y="616.333" type="curve"/>
			<point x="180.667" y="613.667" type="line" smooth="yes"/>
			<point x="198.667" y="612"/>
			<point x="214.667" y="600.667"/>
			<point x="214.667" y="577" type="curve" smooth="yes"/>
			<point x="214.667" y="569.333"/>
			<point x="209.333" y="541"/>
			<point x="205.667" y="522.333" type="curve" smooth="yes"/>
			<point x="125" y="107.333" type="line"/>
			<point x="114.333" y="57"/>
			<point x="88.6667" y="32.6667"/>
			<point x="31.3333" y="28.6667" type="curve"/>
			<point x="21" y="26.6667"/>
			<point x="15.6667" y="3.33333"/>
			<point x="21.6667" y="-2" type="curve"/>
			<point x="61.3333" y="-1"/>
			<point x="110" y="0"/>
			<point x="153" y="0" type="curve" smooth="yes"/>
			<point x="191" y="0"/>
			<point x="246.333" y="-1"/>
			<point x="289" y="-2" type="curve"/>
			<point x="295.333" y="2.66667"/>
			<point x="301.667" y="26.6667"/>
			<point x="291" y="28.6667" type="curve"/>
			<point x="258.333" y="30"/>
			<point x="207" y="34"/>
			<point x="215" y="74.3333" type="curve" smooth="yes"/>
			<point x="302.333" y="522.667" type="line" smooth="yes"/>
			<point x="317.333" y="598.667"/>
			<point name=".hr04" x="334.333" y="619"/>
			<point x="392" y="619" type="curve" smooth="yes"/>
			<point x="445.667" y="619"/>
			<point x="498.333" y="600"/>
			<point x="498.333" y="519" type="curve" smooth="yes"/>
			<point x="498.333" y="413"/>
			<point x="448.667" y="317"/>
			<point x="331.333" y="317" type="curve" smooth="yes"/>
			<point x="294.333" y="317"/>
			<point x="278.667" y="319.333"/>
			<point x="253" y="326.667" type="curve"/>
			<point x="251" y="313"/>
			<point x="254" y="301"/>
			<point x="262" y="291.333" type="curve"/>
			<point x="284.333" y="283.333"/>
			<point x="298.667" y="280.333"/>
			<point x="329" y="280.333" type="curve" smooth="yes"/>
			<point x="469.667" y="280.333"/>
			<point x="603.667" y="366"/>
			<point x="603.667" y="518" type="curve" smooth="yes"/>
			<point x="603.667" y="596.667"/>
			<point x="544.333" y="655.333"/>
		</contour>
	</outline>
	<anchor name="t.uni0302" x="362.333" y="740"/>
</glyph>
<glyph name="Q" format="2">
	<unicode hex="0051"/>
	<advance width="678"/>
	<outline>
		<contour>
			<point x="127" y="-128.333" type="curve"/>
			<point x="118" y="-136"/>
			<point x="110.667" y="-144"/>
			<point x="104" y="-153" type="curve"/>
			<point x="136.333" y="-176.333" type="line"/>
			<point x="151" y="-159.667"/>
			<point x="165.667" y="-144"/>
			<point x="181.333" y="-130" type="curve"/>
			<point x="196.667" y="-120.667"/>
			<point x="211.333" y="-117.333"/>
			<point x="218.333" y="-117.333" type="curve" smooth="yes"/>
			<point x="302.667" y="-117.333"/>
			<point x="344" y="-205.667"/>
			<point x="453.667" y="-214.333" type="curve" smooth="yes"/>
			<point x="463" y="-215"/>
			<point x="472" y="-215.333"/>
			<point x="481" y="-215" type="curve" smooth="yes"/>
			<point x="537.667" y="-212.667"/>
			<point x="582.333" y="-184"/>
			<point x="628.333" y="-130.333" type="curve"/>
			<point x="615" y="-115" type="line"/>
			<point x="590.667" y="-140.333"/>
			<point x="556.667" y="-150.333"/>
			<point x="530" y="-151.667" type="curve" smooth="yes"/>
			<point x="523.333" y="-152"/>
			<point x="516.667" y="-151.333"/>
			<point x="510" y="-150.667" type="curve" smooth="yes"/>
			<point x="432.667" y="-143.333"/>
			<point x="376" y="-66.6667"/>
			<point x="276" y="-66.6667" type="curve" smooth="yes"/>
			<point x="271.667" y="-66.6667"/>
			<point x="267.333" y="-66.6667"/>
			<point x="262.333" y="-67.3333" type="curve"/>
			<point x="261.667" y="-67.3333" type="line"/>
			<point x="308.333" y="-37"/>
			<point x="351.333" y="-18"/>
			<point x="383" y="-8" type="curve"/>
			<point x="389" y="-7"/>
			<point x="395" y="-5.33333"/>
			<point x="401" y="-4.33333" type="curve" smooth="yes"/>
			<point x="558.333" y="24.3333"/>
			<point x="677.333" y="154.667"/>
			<point x="709.667" y="328.667" type="curve" smooth="yes"/>
			<point x="714.333" y="354.333"/>
			<point x="716.333" y="379.333"/>
			<point x="716.333" y="403.333" type="curve" smooth="yes"/>
			<point x="716.333" y="559.333"/>
			<point x="610.333" y="658"/>
			<point x="462" y="658" type="curve" smooth="yes"/>
			<point x="370.667" y="658"/>
			<point x="284" y="616.333"/>
			<point x="217.667" y="548" type="curve" smooth="yes"/>
			<point x="158.333" y="487.333"/>
			<point x="112.667" y="406"/>
			<point x="95" y="311.667" type="curve" smooth="yes"/>
			<point x="90.6667" y="290.667"/>
			<point x="88.6667" y="269.667"/>
			<point x="88" y="248.333" type="curve"/>
			<point x="87.3333" y="241.333"/>
			<point x="87.3333" y="234.333"/>
			<point x="87.6667" y="227.333" type="curve" smooth="yes"/>
			<point x="91.3333" y="93.3333"/>
			<point x="176" y="8.66667"/>
			<point x="296" y="-7.33333" type="curve"/>
			<point x="231.667" y="-38.6667"/>
			<point x="170" y="-85.6667"/>
		</contour>
		<contour>
			<point x="442.667" y="621.333" type="curve" smooth="yes"/>
			<point x="541.667" y="621.333"/>
			<point x="608.667" y="551.333"/>
			<point x="608.667" y="414.333" type="curve" smooth="yes"/>
			<point x="608.667" y="380.667"/>
			<point x="605.333" y="345"/>
			<point x="598.333" y="307.667" type="curve" smooth="yes"/>
			<point x="565.333" y="137.333"/>
			<point x="468" y="26.6667"/>
			<point x="362.667" y="26.6667" type="curve" smooth="yes"/>
			<point x="269.667" y="26.6667"/>
			<point x="196.333" y="102.667"/>
			<point x="196.333" y="238" type="curve" smooth="yes"/>
			<point x="196.333" y="267"/>
			<point x="199.667" y="297.333"/>
			<point x="206" y="329" type="curve" smooth="yes"/>
			<point x="222" y="411.333"/>
			<point x="251" y="477.333"/>
			<point x="282.667" y="521.667" type="curve" smooth="yes"/>
			<point x="331.667" y="590.667"/>
			<point x="391" y="621.333"/>
		</contour>
	</outline>
</glyph>
<glyph name="bracketleft" format="2">
	<unicode hex="005B"/>
	<advance width="355"/>
	<outline>
		<contour>
			<point x="46" y="-197.667" type="line"/>
			<point x="271" y="-197.667" type="line"/>
			<point x="274" y="-191.667"/>
			<point x="278.667" y="-163.667"/>
			<point x="277.667" y="-158.333" type="curve"/>
			<point x="201.333" y="-154.667"/>
			<point x="151.333" y="-149.667"/>
			<point x="136.667" y="-120.667" type="curve"/>
			<point x="274" y="617.667" type="line"/>
			<point x="299" y="646.667"/>
			<point x="356" y="651.667"/>
			<point x="431.667" y="655" type="curve"/>
			<point x="434.667" y="661"/>
			<point x="437.333" y="688.333"/>
			<point x="436.333" y="693.667" type="curve"/>
			<point x="213.333" y="693.667" type="line"/>
		</contour>
	</outline>
</glyph>
<glyph name="b" format="2">
	<unicode hex="0062"/>
	<advance width="492"/>
	<outline>
		<contour>
			<point x="221.333" y="263.333" type="line"/>
			<point x="289.333" y="350.667"/>
			<point x="325.333" y="378.667"/>
			<point x="366.333" y="378.667" type="curve" smooth="yes"/>
			<point x="408.333" y="378.667"/>
			<point x="414" y="330.333"/>
			<point x="414" y="300.333" type="curve" smooth="yes"/>
			<point x="414" y="177"/>
			<point x="312.333" y="28.6667"/>
			<point x="229" y="28.6667" type="curve" smooth="yes"/>
			<point x="202.667" y="28.6667"/>
			<point x="191.667" y="44"/>
			<point x="191.667" y="74.6667" type="curve" smooth="yes"/>
			<point x="191.667" y="89.6667"/>
			<point x="194.333" y="109"/>
			<point x="199.333" y="131" type="curve" smooth="yes"/>
			<point x="300.667" y="583" type="line" smooth="yes"/>
			<point x="309" y="619.333"/>
			<point x="317.667" y="653"/>
			<point x="328.667" y="685.333" type="curve"/>
			<point x="328.667" y="693.667"/>
			<point x="325" y="698"/>
			<point x="314.333" y="698" type="curve"/>
			<point x="287" y="689.333"/>
			<point x="194.667" y="674"/>
			<point x="155.667" y="672" type="curve"/>
			<point x="152.333" y="662.333"/>
			<point x="150.667" y="651.667"/>
			<point x="150.667" y="641.333" type="curve"/>
			<point x="197.667" y="639.333"/>
			<point x="213" y="631.333"/>
			<point x="213" y="607.667" type="curve" smooth="yes"/>
			<point x="213" y="599"/>
			<point x="211" y="583.333"/>
			<point x="206.333" y="563" type="curve" smooth="yes"/>
			<point x="107.667" y="124.667" type="line"/>
			<point x="103.667" y="111.333"/>
			<point x="100.333" y="95"/>
			<point x="100.333" y="79.3333" type="curve" smooth="yes"/>
			<point x="100.333" y="31.3333"/>
			<point x="131" y="-10"/>
			<point x="205.667" y="-10" type="curve" smooth="yes"/>
			<point x="354.333" y="-10"/>
			<point x="511.667" y="181.667"/>
			<point x="511.667" y="320" type="curve" smooth="yes"/>
			<point x="511.667" y="389"/>
			<point x="492" y="439"/>
			<point x="410.333" y="439" type="curve" smooth="yes"/>
			<point x="339.667" y="439"/>
			<point x="285" y="379.333"/>
			<point x="248" y="335" type="curve"/>
			<point x="221.333" y="335" type="line"/>
		</contour>
	</outline>
</glyph>
<glyph name="c" format="2">
	<unicode hex="0063"/>
	<advance width="404"/>
	<outline>
		<contour>
			<point x="403" y="101.667" type="curve"/>
			<point x="401" y="112"/>
			<point x="390" y="123.333"/>
			<point x="381.333" y="123.333" type="curve"/>
			<point x="334" y="75"/>
			<point x="297.667" y="54.6667"/>
			<point x="262" y="54.6667" type="curve" smooth="yes"/>
			<point x="209" y="54.6667"/>
			<point x="178" y="98"/>
			<point x="178" y="180" type="curve" smooth="yes"/>
			<point x="178" y="296.667"/>
			<point x="240.333" y="404.333"/>
			<point x="314.667" y="404.333" type="curve" smooth="yes"/>
			<point x="341.333" y="404.333"/>
			<point x="359" y="390.333"/>
			<point x="359" y="368" type="curve" smooth="yes"/>
			<point x="359" y="352"/>
			<point x="350.667" y="342"/>
			<point x="350.667" y="327.667" type="curve" smooth="yes"/>
			<point x="350.667" y="306.667"/>
			<point x="367" y="291"/>
			<point x="389" y="291" type="curve" smooth="yes"/>
			<point x="416.667" y="291"/>
			<point x="440.667" y="316.667"/>
			<point x="440.667" y="346.667" type="curve" smooth="yes"/>
			<point x="440.667" y="407.667"/>
			<point x="401" y="439"/>
			<point x="325.333" y="439" type="curve" smooth="yes"/>
			<point x="195.333" y="439"/>
			<point x="79.3333" y="302"/>
			<point x="79.3333" y="150.333" type="curve" smooth="yes"/>
			<point x="79.3333" y="49"/>
			<point x="130.667" y="-10"/>
			<point x="217.667" y="-10" type="curve" smooth="yes"/>
			<point x="280.333" y="-10"/>
			<point x="351" y="32.3333"/>
		</contour>
	</outline>
</glyph>
<glyph name="e" format="2">
	<unicode hex="0065"/>
	<advance width="404"/>
	<outline>
		<contour>
			<point x="170.333" y="199" type="curve"/>
			<point x="408" y="246.333"/>
			<point x="429.333" y="311"/>
			<point x="429.333" y="364.667" type="curve" smooth="yes"/>
			<point x="429.333" y="410.333"/>
			<point x="382.333" y="439"/>
			<point x="323.667" y="439" type="curve" smooth="yes"/>
			<point x="144.667" y="439"/>
			<point x="71" y="268.667"/>
			<point x="71" y="143.667" type="curve" smooth="yes"/>
			<point x="71" y="57"/>
			<point x="106.333" y="-10"/>
			<point x="204.333" y="-10" type="curve" smooth="yes"/>
			<point x="268.667" y="-10"/>
			<point x="335.333" y="24.3333"/>
			<point x="394.333" y="100.333" type="curve"/>
			<point x="389.333" y="111.333"/>
			<point x="380.333" y="119.333"/>
			<point x="368.333" y="119.333" type="curve"/>
			<point x="311.333" y="61.3333"/>
			<point x="285.667" y="50"/>
			<point x="237.667" y="50" type="curve" smooth="yes"/>
			<point x="194.667" y="50"/>
			<point x="169.333" y="82"/>
			<point x="169.333" y="165" type="curve" smooth="yes"/>
			<point x="169.333" y="170"/>
			<point x="169.333" y="191"/>
		</contour>
		<contour>
			<point x="345.667" y="365.667" type="curve" smooth="yes"/>
			<point x="345.667" y="279.667"/>
			<point x="245.667" y="246.333"/>
			<point x="177.333" y="236.667" type="curve"/>
			<point x="212" y="378.333"/>
			<point x="261.333" y="404.333"/>
			<point x="307" y="404.333" type="curve" smooth="yes"/>
			<point x="333.333" y="404.333"/>
			<point x="345.667" y="395.667"/>
		</contour>
	</outline>
	<anchor name="t.uni0302" x="331" y="500"/>
</glyph>
<glyph name="h" format="2">
	<unicode hex="0068"/>
	<advance width="553"/>
	<outline>
		<contour>
			<point x="183.667" y="31.6667" type="curve" smooth="yes"/>
			<point x="306.667" y="583" type="line" smooth="yes"/>
			<point x="317.667" y="633"/>
			<point x="323" y="656.667"/>
			<point x="331.667" y="685" type="curve"/>
			<point x="331.667" y="694"/>
			<point x="326.333" y="698"/>
			<point x="316" y="698" type="curve"/>
			<point x="273.333" y="684.333"/>
			<point x="206.667" y="675.667"/>
			<point x="161.667" y="672" type="curve"/>
			<point x="157.333" y="665"/>
			<point x="154.333" y="651.333"/>
			<point x="156.667" y="641.333" type="curve"/>
			<point x="200" y="637.667"/>
			<point x="218.667" y="627.333"/>
			<point x="218.667" y="606.333" type="curve" smooth="yes"/>
			<point x="218.667" y="599.333"/>
			<point x="216.667" y="583.333"/>
			<point x="212" y="563" type="curve" smooth="yes"/>
			<point x="91" y="24.3333" type="line" smooth="yes"/>
			<point x="87.3333" y="8"/>
			<point x="102.667" y="0"/>
			<point x="113.667" y="0" type="curve" smooth="yes"/>
			<point x="144.667" y="0" type="line" smooth="yes"/>
			<point x="164" y="0"/>
			<point x="179" y="9.66667"/>
		</contour>
		<contour>
			<point x="217" y="219.333" type="line"/>
			<point x="258.667" y="274.333"/>
			<point x="339.333" y="375.667"/>
			<point x="395.333" y="375.667" type="curve" smooth="yes"/>
			<point x="409" y="375.667"/>
			<point x="423" y="370"/>
			<point x="423" y="336" type="curve" smooth="yes"/>
			<point x="423" y="325"/>
			<point x="421.333" y="309"/>
			<point x="413.333" y="275" type="curve" smooth="yes"/>
			<point x="375.667" y="115" type="line" smooth="yes"/>
			<point x="367.667" y="82"/>
			<point x="361" y="49"/>
			<point x="361" y="31.6667" type="curve" smooth="yes"/>
			<point x="361" y="8.33333"/>
			<point x="372" y="-10"/>
			<point x="405.667" y="-10" type="curve" smooth="yes"/>
			<point x="461" y="-10"/>
			<point x="514" y="23.6667"/>
			<point x="560" y="82.6667" type="curve"/>
			<point x="557" y="91.6667"/>
			<point x="549" y="103.333"/>
			<point x="535" y="103.333" type="curve"/>
			<point x="509" y="73.3333"/>
			<point x="478.333" y="54.3333"/>
			<point x="467.667" y="54.3333" type="curve" smooth="yes"/>
			<point x="461.333" y="54.3333"/>
			<point x="458.333" y="60"/>
			<point x="458.333" y="69.6667" type="curve" smooth="yes"/>
			<point x="458.333" y="80"/>
			<point x="462" y="99"/>
			<point x="467.667" y="124" type="curve" smooth="yes"/>
			<point x="505.667" y="283" type="line" smooth="yes"/>
			<point x="513.667" y="318"/>
			<point x="518.667" y="341"/>
			<point x="518.667" y="362.333" type="curve" smooth="yes"/>
			<point x="518.667" y="416.667"/>
			<point x="485.667" y="439"/>
			<point x="440.667" y="439" type="curve" smooth="yes"/>
			<point x="391" y="439"/>
			<point x="326" y="410.667"/>
			<point x="229.667" y="294" type="curve"/>
		</contour>
	</outline>
</glyph>
<glyph name="j" format="2">
	<unicode hex="006A"/>
	<advance width="283"/>
	<outline>
		<contour>
			<point x="143.667" y="176" type="line" smooth="yes"/>
			<point x="123" y="78.6667"/>
			<point x="114" y="16"/>
			<point x="96" y="-56" type="curve" smooth="yes"/>
			<point x="74" y="-142"/>
			<point x="46" y="-164"/>
			<point x="26" y="-164" type="curve" smooth="yes"/>
			<point x="-4.33333" y="-164"/>
			<point x="3.33333" y="-111"/>
			<point x="-51.3333" y="-111" type="curve" smooth="yes"/>
			<point x="-66" y="-111"/>
			<point x="-83.6667" y="-122.667"/>
			<point x="-83.6667" y="-146.667" type="curve" smooth="yes"/>
			<point x="-83.6667" y="-183.667"/>
			<point x="-41.3333" y="-199.667"/>
			<point x="7.66667" y="-199.667" type="curve" smooth="yes"/>
			<point x="147.333" y="-199.667"/>
			<point x="196.333" y="-8.66667"/>
			<point x="247.667" y="234.333" type="curve" smooth="yes"/>
			<point x="265" y="320" type="line" smooth="yes"/>
			<point x="273.667" y="360"/>
			<point x="285.333" y="400.667"/>
			<point x="285.333" y="415" type="curve" smooth="yes"/>
			<point x="285.333" y="429"/>
			<point x="277.333" y="436"/>
			<point x="264.333" y="436" type="curve" smooth="yes"/>
			<point x="232.333" y="436"/>
			<point x="171.333" y="429.667"/>
			<point x="124.333" y="423" type="curve"/>
			<point x="117.333" y="415"/>
			<point x="118.333" y="400.667"/>
			<point x="124.333" y="391.667" type="curve"/>
			<point x="164.333" y="388.667" type="line" smooth="yes"/>
			<point x="176.333" y="387.667"/>
			<point x="182.333" y="378.667"/>
			<point x="182.333" y="368.667" type="curve" smooth="yes"/>
			<point x="182.333" y="359.667"/>
			<point x="181" y="349"/>
			<point x="175" y="321" type="curve" smooth="yes"/>
		</contour>
		<contour>
			<point x="205.333" y="578.667" type="curve" smooth="yes"/>
			<point x="205.333" y="550.333"/>
			<point x="228" y="524.667"/>
			<point x="258.667" y="524.667" type="curve" smooth="yes"/>
			<point x="291" y="524.667"/>
			<point x="314.333" y="551.333"/>
			<point x="314.333" y="577.333" type="curve" smooth="yes"/>
			<point x="314.333" y="604.667"/>
			<point x="292" y="631.333"/>
			<point x="260.667" y="631.333" type="curve" smooth="yes"/>
			<point x="227.667" y="631.333"/>
			<point x="205.333" y="606"/>
		</contour>
	</outline>
</glyph>
<glyph name="l" format="2">
	<unicode hex="006C"/>
	<advance width="285"/>
	<outline>
		<contour>
			<point x="206.667" y="563" type="curve" smooth="yes"/>
			<point x="107" y="118.667" type="line" smooth="yes"/>
			<point x="101.333" y="93"/>
			<point x="94.3333" y="56"/>
			<point x="94.3333" y="38.3333" type="curve" smooth="yes"/>
			<point x="94.3333" y="14.6667"/>
			<point x="102.333" y="-10"/>
			<point x="139.333" y="-10" type="curve" smooth="yes"/>
			<point x="192.667" y="-10"/>
			<point x="251.333" y="20.6667"/>
			<point x="298" y="89" type="curve"/>
			<point x="294.333" y="98.6667"/>
			<point x="287" y="109.667"/>
			<point x="273.667" y="109.667" type="curve"/>
			<point x="245" y="75.6667"/>
			<point x="212.333" y="55.3333"/>
			<point x="201" y="55.3333" type="curve" smooth="yes"/>
			<point x="193" y="55.3333"/>
			<point x="189.333" y="62"/>
			<point x="189.333" y="70.6667" type="curve" smooth="yes"/>
			<point x="189.333" y="80.3333"/>
			<point x="192.667" y="95.6667"/>
			<point x="199.667" y="127" type="curve" smooth="yes"/>
			<point x="301.333" y="583" type="line" smooth="yes"/>
			<point x="312.333" y="633"/>
			<point x="317.667" y="656.667"/>
			<point name=".hr01" x="326.333" y="685" type="curve"/>
			<point x="326.333" y="694"/>
			<point x="321" y="698"/>
			<point x="310.667" y="698" type="curve"/>
			<point x="268" y="684.333"/>
			<point x="201.333" y="675.667"/>
			<point x="156.333" y="672" type="curve"/>
			<point x="152" y="665"/>
			<point x="149" y="651.333"/>
			<point x="151.333" y="641.333" type="curve"/>
			<point x="194.667" y="637.667"/>
			<point x="213.333" y="627.333"/>
			<point x="213.333" y="610" type="curve" smooth="yes"/>
			<point x="213.333" y="599.333"/>
			<point x="211.333" y="583.333"/>
		</contour>
	</outline>
</glyph>
<glyph name="p" format="2">
	<unicode hex="0070"/>
	<advance width="509"/>
	<outline>
		<contour>
			<point x="282.667" y="404" type="curve"/>
			<point x="286.667" y="422"/>
			<point x="295.667" y="452"/>
			<point x="295.667" y="464" type="curve" smooth="yes"/>
			<point x="295.667" y="479"/>
			<point x="288.333" y="488.333"/>
			<point x="265" y="490.333" type="curve"/>
			<point x="260.333" y="491"/>
			<point x="255" y="490.667"/>
			<point x="249.333" y="490.333" type="curve" smooth="yes"/>
			<point x="214" y="488"/>
			<point x="204.333" y="448.667"/>
			<point x="194.667" y="413.333" type="curve"/>
			<point x="193.333" y="409.333"/>
			<point x="192.333" y="405"/>
			<point x="191.333" y="401" type="curve" smooth="yes"/>
			<point x="180.667" y="353.333" type="line"/>
			<point x="130.667" y="317.333"/>
			<point x="93.6667" y="287.333"/>
			<point x="65.6667" y="252.333" type="curve"/>
			<point x="69.6667" y="238.333"/>
			<point x="77.6667" y="226.333"/>
			<point x="95.6667" y="226.333" type="curve"/>
			<point x="117.667" y="255.333"/>
			<point x="139.667" y="273.333"/>
			<point x="167.667" y="296.333" type="curve"/>
			<point x="69" y="-149" type="line"/>
			<point x="67" y="-157.667" type="line" smooth="yes"/>
			<point x="61" y="-185.667"/>
			<point x="46" y="-197.667"/>
			<point x="14" y="-202.667" type="curve" smooth="yes"/>
			<point x="-5" y="-205.667" type="line"/>
			<point x="-10" y="-206.667"/>
			<point x="-15" y="-207.667"/>
			<point x="-15" y="-213.667" type="curve" smooth="yes"/>
			<point x="-15" y="-236" type="line"/>
			<point x="-13" y="-238" type="line"/>
			<point x="-13" y="-238"/>
			<point x="56" y="-233.667"/>
			<point x="95.6667" y="-233.333" type="curve" smooth="yes"/>
			<point x="106.333" y="-233"/>
			<point x="117" y="-233"/>
			<point x="127.333" y="-233" type="curve"/>
			<point x="164.333" y="-233.667"/>
			<point x="212.333" y="-235"/>
			<point x="212.333" y="-235" type="curve"/>
			<point x="214.333" y="-233" type="line"/>
			<point x="214.333" y="-209.667" type="line" smooth="yes"/>
			<point x="214.333" y="-204.667"/>
			<point x="212.333" y="-202.667"/>
			<point x="208.333" y="-201.667" type="curve"/>
			<point x="189.333" y="-198.667" type="line" smooth="yes"/>
			<point x="174.333" y="-196.667"/>
			<point x="148.333" y="-191.667"/>
			<point x="156.333" y="-157.667" type="curve" smooth="yes"/>
			<point x="198.667" y="23" type="line"/>
			<point x="213" y="8"/>
			<point x="237.333" y="-8"/>
			<point x="265.333" y="-9.66667" type="curve" smooth="yes"/>
			<point x="270.333" y="-10"/>
			<point x="275" y="-10"/>
			<point x="280.333" y="-9.33333" type="curve"/>
			<point x="332.667" y="-7.33333"/>
			<point x="380" y="16"/>
			<point x="417.667" y="50.3333" type="curve" smooth="yes"/>
			<point x="428.333" y="59.6667"/>
			<point x="438.333" y="70.3333"/>
			<point x="447.667" y="81.6667" type="curve" smooth="yes"/>
			<point x="502.333" y="147.333"/>
			<point x="531" y="221.667"/>
			<point x="531" y="289" type="curve" smooth="yes"/>
			<point x="531" y="373"/>
			<point x="497.667" y="439"/>
			<point x="397.667" y="439" type="curve" smooth="yes"/>
			<point x="346.667" y="439"/>
			<point x="309.667" y="420"/>
		</contour>
		<contour>
			<point x="433.667" y="273" type="curve" smooth="yes"/>
			<point x="433.667" y="227.333"/>
			<point x="414.667" y="153.333"/>
			<point x="378.333" y="96" type="curve" smooth="yes"/>
			<point x="356.667" y="60.6667"/>
			<point x="326.667" y="34"/>
			<point x="294.333" y="28.6667" type="curve" smooth="yes"/>
			<point x="290.333" y="28"/>
			<point x="285.667" y="27.3333"/>
			<point x="281.667" y="27.3333" type="curve" smooth="yes"/>
			<point x="255.667" y="27.3333"/>
			<point x="228.667" y="40.6667"/>
			<point x="207.667" y="69.6667" type="curve"/>
			<point x="273" y="357.333" type="line"/>
			<point x="296.333" y="372.333"/>
			<point x="323.333" y="389"/>
			<point x="357.667" y="390.667" type="curve" smooth="yes"/>
			<point x="366.667" y="391"/>
			<point x="374.333" y="390.667"/>
			<point x="382.333" y="388.667" type="curve" smooth="yes"/>
			<point x="426.333" y="378"/>
			<point x="433.667" y="317.333"/>
		</contour>
	</outline>
</glyph>
<glyph name="q" format="2">
	<unicode hex="0071"/>
	<advance width="504"/>
	<outline>
		<contour>
			<point x="296" y="-161" type="line" smooth="yes"/>
			<point x="289" y="-189"/>
			<point x="275" y="-201"/>
			<point x="243" y="-206" type="curve" smooth="yes"/>
			<point x="224" y="-209" type="line"/>
			<point x="219" y="-210"/>
			<point x="214" y="-211"/>
			<point x="214" y="-217" type="curve" smooth="yes"/>
			<point x="214" y="-236" type="line"/>
			<point x="216" y="-238" type="line"/>
			<point x="216" y="-238"/>
			<point x="285" y="-233"/>
			<point x="321" y="-233" type="curve" smooth="yes"/>
			<point x="360" y="-233"/>
			<point x="442.333" y="-235"/>
			<point x="442.333" y="-235" type="curve"/>
			<point x="444.333" y="-233" type="line"/>
			<point x="444.333" y="-213" type="line" smooth="yes"/>
			<point x="444.333" y="-208"/>
			<point x="442.333" y="-206"/>
			<point x="438.333" y="-205" type="curve"/>
			<point x="419.333" y="-202" type="line" smooth="yes"/>
			<point x="404.333" y="-200"/>
			<point x="378.333" y="-195"/>
			<point x="386.333" y="-161" type="curve" smooth="yes"/>
			<point x="518" y="408.667" type="line" smooth="yes"/>
			<point x="521.333" y="423.667"/>
			<point x="523.333" y="434.667"/>
			<point x="513.667" y="438" type="curve"/>
			<point x="511.333" y="443.333"/>
			<point x="497.667" y="442.667"/>
			<point x="489.667" y="437.333" type="curve"/>
			<point x="484" y="436.333"/>
			<point x="467" y="427"/>
			<point x="456.333" y="413.333" type="curve"/>
			<point x="445.333" y="419.333"/>
			<point x="422" y="408.333"/>
			<point x="405" y="403.667" type="curve"/>
			<point x="375" y="425"/>
			<point x="333.333" y="434"/>
			<point x="289.333" y="422" type="curve"/>
			<point x="195.333" y="404.667"/>
			<point x="75.3333" y="295"/>
			<point x="75.3333" y="147" type="curve" smooth="yes"/>
			<point x="75.3333" y="72"/>
			<point x="105" y="-10"/>
			<point x="199" y="-10" type="curve" smooth="yes"/>
			<point x="248" y="-10"/>
			<point x="297" y="14"/>
			<point x="359" y="100" type="curve"/>
			<point x="362" y="99" type="line"/>
		</contour>
		<contour>
			<point x="405" y="326.667" type="curve" smooth="yes"/>
			<point x="405" y="310.667"/>
			<point x="387" y="236"/>
			<point x="368" y="180" type="curve" smooth="yes"/>
			<point x="345" y="115"/>
			<point x="262.333" y="36"/>
			<point x="225.333" y="36" type="curve" smooth="yes"/>
			<point x="191.333" y="36"/>
			<point x="174.333" y="92"/>
			<point x="174.333" y="148" type="curve" smooth="yes"/>
			<point x="174.333" y="277.667"/>
			<point x="242" y="399.667"/>
			<point x="344" y="399.667" type="curve" smooth="yes"/>
			<point x="380" y="399.667"/>
			<point x="405" y="367.667"/>
		</contour>
	</outline>
</glyph>
<glyph name="u" format="2">
	<unicode hex="0075"/>
	<advance width="553"/>
	<outline>
		<contour>
			<point x="419.333" y="253.667" type="line"/>
			<point x="368" y="160.333"/>
			<point x="295.667" y="58.6667"/>
			<point x="245" y="58.6667" type="curve" smooth="yes"/>
			<point x="224.667" y="58.6667"/>
			<point x="213.333" y="72.3333"/>
			<point x="213.333" y="101.667" type="curve" smooth="yes"/>
			<point x="213.333" y="113.333"/>
			<point x="215.333" y="131.333"/>
			<point x="221" y="153.333" type="curve" smooth="yes"/>
			<point x="272.333" y="356.667" type="line" smooth="yes"/>
			<point x="279.667" y="385.667"/>
			<point x="282.333" y="398"/>
			<point x="282.333" y="406.667" type="curve" smooth="yes"/>
			<point x="282.333" y="426.333"/>
			<point x="270.333" y="440.333"/>
			<point x="236.667" y="440.333" type="curve" smooth="yes"/>
			<point x="182.667" y="440.333"/>
			<point x="120.667" y="405.667"/>
			<point x="74.6667" y="346.667" type="curve"/>
			<point x="77.6667" y="337.667"/>
			<point x="86.6667" y="327"/>
			<point x="100.667" y="327" type="curve"/>
			<point x="126.667" y="357"/>
			<point x="160" y="376"/>
			<point x="170.667" y="376" type="curve" smooth="yes"/>
			<point x="177.333" y="376"/>
			<point x="180.333" y="370"/>
			<point x="180.333" y="362.333" type="curve" smooth="yes"/>
			<point x="180.333" y="353"/>
			<point x="175" y="328"/>
			<point x="169.333" y="306.333" type="curve" smooth="yes"/>
			<point x="129.333" y="150" type="line" smooth="yes"/>
			<point x="123.333" y="124.333"/>
			<point x="118" y="99"/>
			<point x="118" y="72.6667" type="curve" smooth="yes"/>
			<point x="118" y="15"/>
			<point x="154.667" y="-8.66667"/>
			<point x="200" y="-8.66667" type="curve" smooth="yes"/>
			<point x="275.333" y="-8.66667"/>
			<point x="341" y="66.3333"/>
			<point x="405.333" y="164.333" type="curve"/>
		</contour>
		<contour>
			<point x="394" y="143.333" type="line"/>
			<point x="382.667" y="111"/>
			<point x="371.667" y="72.6667"/>
			<point x="371.667" y="37" type="curve" smooth="yes"/>
			<point x="371.667" y="8.66667"/>
			<point x="380.333" y="-10"/>
			<point x="414" y="-10" type="curve" smooth="yes"/>
			<point x="469.333" y="-10"/>
			<point x="520" y="23.6667"/>
			<point x="566" y="82.6667" type="curve"/>
			<point x="563" y="91.6667"/>
			<point x="555" y="103.333"/>
			<point x="541" y="103.333" type="curve"/>
			<point x="515" y="73.3333"/>
			<point x="484.333" y="54.3333"/>
			<point x="473.667" y="54.3333" type="curve" smooth="yes"/>
			<point x="467" y="54.3333"/>
			<point x="464" y="60.3333"/>
			<point x="464" y="69.6667" type="curve" smooth="yes"/>
			<point x="464" y="80.6667"/>
			<point x="468" y="99"/>
			<point x="473.667" y="124" type="curve" smooth="yes"/>
			<point x="528.333" y="353" type="line" smooth="yes"/>
			<point x="532.667" y="371.667"/>
			<point x="540" y="402.667"/>
			<point x="540" y="413.667" type="curve" smooth="yes"/>
			<point x="540" y="431.333"/>
			<point x="526.333" y="440.333"/>
			<point x="499.333" y="440.333" type="curve" smooth="yes"/>
			<point x="462.667" y="440.333"/>
			<point x="448.333" y="402"/>
			<point x="440.333" y="369.333" type="curve" smooth="yes"/>
			<point x="383.667" y="147" type="line"/>
		</contour>
	</outline>
	<anchor name="t.uni0302" x="388.333" y="500"/>
	<guideline x="431" y="357" angle="255.231"/>
	<guideline x="450" y="124" angle="76.2005"/>
	<guideline x="208" y="151" angle="75.2218"/>
</glyph>
<glyph name="v" format="2">
	<unicode hex="0076"/>
	<advance width="484"/>
	<outline>
		<contour>
			<point x="314" y="86.6667" type="line"/>
			<point x="287" y="299" type="line" smooth="yes"/>
			<point x="286.333" y="304.333"/>
			<point x="286" y="309.667"/>
			<point x="285" y="315" type="curve"/>
			<point x="275.667" y="383.667"/>
			<point x="263.333" y="429"/>
			<point x="234.333" y="436.333" type="curve"/>
			<point x="229" y="438.333"/>
			<point x="222.667" y="438.667"/>
			<point x="215.667" y="438" type="curve" smooth="yes"/>
			<point x="179" y="434"/>
			<point x="119" y="379"/>
			<point x="81.3333" y="326.667" type="curve"/>
			<point x="84.3333" y="315.333"/>
			<point x="93" y="307.333"/>
			<point x="106" y="305.333" type="curve"/>
			<point x="133" y="334"/>
			<point x="158.333" y="353.667"/>
			<point x="173.667" y="353.667" type="curve" smooth="yes"/>
			<point x="182.333" y="353.667"/>
			<point x="187.667" y="339.667"/>
			<point x="195" y="296" type="curve" smooth="yes"/>
			<point x="233.333" y="54" type="line" smooth="yes"/>
			<point x="240.333" y="13"/>
			<point x="249.667" y="-12"/>
			<point x="268" y="-12" type="curve" smooth="yes"/>
			<point x="280.667" y="-12"/>
			<point x="297" y="3.33333"/>
			<point x="317.667" y="23.6667" type="curve" smooth="yes"/>
			<point x="352.333" y="58"/>
			<point x="392.667" y="107.333"/>
			<point x="408" y="128.333" type="curve" smooth="yes"/>
			<point x="429.333" y="157.667"/>
			<point x="475.667" y="219"/>
			<point x="503.667" y="285" type="curve" smooth="yes"/>
			<point x="518.667" y="320"/>
			<point x="530.667" y="356"/>
			<point x="530.667" y="392" type="curve" smooth="yes"/>
			<point x="530.667" y="420"/>
			<point x="514" y="439"/>
			<point x="476" y="439" type="curve" smooth="yes"/>
			<point x="445.667" y="439"/>
			<point name=".hr01" x="425.333" y="427.667"/>
			<point x="425.333" y="402.333" type="curve" smooth="yes"/>
			<point x="425.333" y="396.667"/>
			<point x="427.333" y="386.333"/>
			<point x="430.333" y="382.333" type="curve"/>
			<point x="446.333" y="358"/>
			<point name=".hr02" x="452" y="336"/>
			<point x="451.333" y="319.333" type="curve" smooth="yes"/>
			<point x="449.333" y="275"/>
			<point x="414.333" y="201"/>
			<point x="375" y="149.667" type="curve" smooth="yes"/>
			<point x="361.667" y="132.667"/>
			<point x="332.667" y="96.3333"/>
			<point x="318" y="84.6667" type="curve"/>
		</contour>
	</outline>
</glyph>
<glyph name="w" format="2">
	<unicode hex="0077"/>
	<advance width="702"/>
	<outline>
		<contour>
			<point x="440.333" y="244.667" type="line"/>
			<point x="452.333" y="187.667"/>
			<point x="465" y="120.333"/>
			<point x="475" y="60.6667" type="curve"/>
			<point x="475.333" y="54.6667"/>
			<point x="476.333" y="49.3333"/>
			<point x="477.667" y="44" type="curve"/>
			<point x="484.333" y="2.66667"/>
			<point x="491.667" y="-12"/>
			<point x="505" y="-12" type="curve" smooth="yes"/>
			<point x="519" y="-12"/>
			<point x="536" y="1.33333"/>
			<point x="557.333" y="25.3333" type="curve" smooth="yes"/>
			<point x="589" y="60.6667"/>
			<point x="622.667" y="107"/>
			<point x="637" y="127.667" type="curve" smooth="yes"/>
			<point x="658.667" y="157.667"/>
			<point x="693.667" y="219"/>
			<point x="721.667" y="285" type="curve" smooth="yes"/>
			<point x="736.667" y="320"/>
			<point x="748.667" y="356"/>
			<point x="748.667" y="392" type="curve" smooth="yes"/>
			<point x="748.667" y="418.333"/>
			<point x="734.333" y="436.667"/>
			<point name=".hr01" x="699.667" y="438.333" type="curve"/>
			<point x="698" y="438.667"/>
			<point x="696" y="439"/>
			<point x="694" y="439" type="curve" smooth="yes"/>
			<point x="663.667" y="439"/>
			<point x="643.333" y="427.667"/>
			<point x="643.333" y="402.333" type="curve" smooth="yes"/>
			<point x="643.333" y="396.667"/>
			<point x="645.333" y="386.333"/>
			<point x="648.333" y="382.333" type="curve"/>
			<point x="663" y="359.667"/>
			<point name=".hr02" x="669" y="339.333"/>
			<point x="669.333" y="323" type="curve"/>
			<point x="669.667" y="319"/>
			<point x="669.333" y="315.333"/>
			<point x="668.667" y="310.667" type="curve"/>
			<point x="664" y="265.667"/>
			<point x="641.667" y="198.667"/>
			<point x="608" y="151.333" type="curve" smooth="yes"/>
			<point x="593.667" y="130.667"/>
			<point x="578.333" y="111.667"/>
			<point x="563.667" y="98" type="curve"/>
			<point x="557.667" y="100" type="line"/>
			<point x="548.667" y="150"/>
			<point x="535.333" y="217.667"/>
			<point x="521.667" y="272.667" type="curve" smooth="yes"/>
			<point x="513" y="309.333"/>
			<point x="504" y="342"/>
			<point x="497" y="359.333" type="curve"/>
			<point x="480.667" y="359.333"/>
			<point x="462.333" y="355.333"/>
			<point x="442" y="346" type="curve"/>
			<point x="399.667" y="249.333"/>
			<point x="338.667" y="142.667"/>
			<point x="313.333" y="109" type="curve"/>
			<point x="310" y="110.333" type="line"/>
			<point x="284.333" y="309" type="line" smooth="yes"/>
			<point x="274.667" y="385"/>
			<point x="262" y="433.667"/>
			<point x="227.667" y="438.333" type="curve"/>
			<point x="223.667" y="439"/>
			<point x="219" y="438.667"/>
			<point x="213.667" y="437.667" type="curve"/>
			<point x="177" y="433.667"/>
			<point x="117.333" y="379"/>
			<point name=".hr03" x="80" y="326.667" type="curve"/>
			<point x="83" y="315.333"/>
			<point x="91.6667" y="307.333"/>
			<point x="104.667" y="305.333" type="curve"/>
			<point x="131.667" y="334"/>
			<point x="157" y="353.667"/>
			<point x="172.333" y="353.667" type="curve" smooth="yes"/>
			<point x="181" y="353.667"/>
			<point x="187" y="340.333"/>
			<point x="193.667" y="296" type="curve" smooth="yes"/>
			<point x="228.667" y="54" type="line"/>
			<point x="235.667" y="10.6667"/>
			<point x="244" y="-8.33333"/>
			<point x="256" y="-11" type="curve"/>
			<point x="258.333" y="-11.6667"/>
			<point x="262" y="-11.3333"/>
			<point x="265.333" y="-10" type="curve"/>
			<point x="276.667" y="-6.66667"/>
			<point x="292" y="6.33333"/>
			<point x="307.333" y="26.6667" type="curve" smooth="yes"/>
			<point x="347" y="81.6667"/>
			<point x="400.667" y="173"/>
			<point x="435.333" y="244.333" type="curve"/>
		</contour>
	</outline>
</glyph>
<glyph name="y" format="2">
	<unicode hex="0079"/>
	<advance width="507"/>
	<outline>
		<contour>
			<point x="192.333" y="346.667" type="curve"/>
			<point x="196.333" y="339.333"/>
			<point x="201.667" y="325.667"/>
			<point x="206.667" y="309.333" type="curve" smooth="yes"/>
			<point x="238" y="210.333"/>
			<point x="270.667" y="-36"/>
			<point x="258.667" y="-62" type="curve"/>
			<point x="217.667" y="-129"/>
			<point x="180" y="-166"/>
			<point x="165.333" y="-166" type="curve" smooth="yes"/>
			<point x="155" y="-166"/>
			<point x="134" y="-151.667"/>
			<point x="127.667" y="-146" type="curve"/>
			<point x="120.333" y="-139"/>
			<point name=".hr01" x="99.3333" y="-130"/>
			<point x="91" y="-130" type="curve" smooth="yes"/>
			<point x="69" y="-130"/>
			<point x="43" y="-152.333"/>
			<point x="43" y="-187.667" type="curve" smooth="yes"/>
			<point x="43" y="-222"/>
			<point x="84.3333" y="-235"/>
			<point x="106.667" y="-235" type="curve" smooth="yes"/>
			<point x="160.667" y="-235"/>
			<point x="241" y="-172.333"/>
			<point x="304" y="-75.6667" type="curve" smooth="yes"/>
			<point x="307.333" y="-70.6667"/>
			<point x="310.333" y="-66"/>
			<point x="313.667" y="-60.6667" type="curve" smooth="yes"/>
			<point x="350" y="-4.33333" type="line"/>
			<point x="378" y="42"/>
			<point x="456" y="163"/>
			<point x="502.667" y="246" type="curve" smooth="yes"/>
			<point x="510" y="259.333"/>
			<point x="516.667" y="272"/>
			<point x="521.333" y="282.333" type="curve" smooth="yes"/>
			<point x="539" y="320"/>
			<point x="549.667" y="355.333"/>
			<point x="549.667" y="392.333" type="curve" smooth="yes"/>
			<point x="549.667" y="420.667"/>
			<point x="531.667" y="437.667"/>
			<point x="497.667" y="438.667" type="curve"/>
			<point x="496.333" y="439"/>
			<point x="494.667" y="439"/>
			<point x="493.333" y="439" type="curve" smooth="yes"/>
			<point x="467" y="439"/>
			<point x="443.667" y="428"/>
			<point x="443.667" y="404.667" type="curve" smooth="yes"/>
			<point x="443.667" y="396"/>
			<point x="446.333" y="385.333"/>
			<point x="450.333" y="379" type="curve"/>
			<point x="460" y="362.667"/>
			<point x="467.333" y="347.667"/>
			<point name=".hr02" x="469.333" y="334" type="curve"/>
			<point x="470" y="330.667"/>
			<point x="470" y="328"/>
			<point x="470" y="325.333" type="curve" smooth="yes"/>
			<point x="470" y="298.667"/>
			<point x="456.667" y="256.333"/>
			<point x="432.667" y="212.667" type="curve" smooth="yes"/>
			<point x="421" y="192.667"/>
			<point x="409.333" y="173.333"/>
			<point x="398.333" y="155.333" type="curve"/>
			<point x="393" y="146"/>
			<point x="352.667" y="81"/>
			<point x="330.667" y="47.3333" type="curve"/>
			<point x="324.667" y="49.6667" type="line"/>
			<point x="318.667" y="154"/>
			<point x="312.333" y="242"/>
			<point x="286" y="353" type="curve"/>
			<point x="284.667" y="360"/>
			<point x="283" y="366.667"/>
			<point x="281" y="373" type="curve"/>
			<point x="271" y="408"/>
			<point x="261" y="427"/>
			<point x="245.333" y="434.333" type="curve"/>
			<point x="239.333" y="437.667"/>
			<point x="231.667" y="438.333"/>
			<point x="223.333" y="437.667" type="curve"/>
			<point x="193.333" y="433.667"/>
			<point x="120.667" y="395"/>
			<point x="87.6667" y="372" type="curve"/>
			<point x="88.6667" y="361"/>
			<point x="94" y="346.333"/>
			<point x="102" y="338.333" type="curve"/>
			<point x="114" y="344.333"/>
			<point x="144.667" y="359"/>
			<point x="165.667" y="359" type="curve" smooth="yes"/>
			<point x="178.667" y="359"/>
			<point x="186.667" y="356.333"/>
		</contour>
	</outline>
	<anchor name="t.uni0302" x="386" y="500"/>
</glyph>
<glyph name="braceleft" format="2">
	<unicode hex="007B"/>
	<advance width="284"/>
	<outline>
		<contour>
			<point x="293.333" y="562" type="line" smooth="yes"/>
			<point x="301.333" y="604.667"/>
			<point x="312.333" y="634.333"/>
			<point x="327" y="652.333" type="curve" smooth="yes"/>
			<point x="344.667" y="675"/>
			<point x="365.333" y="686.333"/>
			<point x="386.333" y="692.333" type="curve"/>
			<point x="389.333" y="697.667"/>
			<point x="391" y="704.333"/>
			<point x="390" y="709.667" type="curve"/>
			<point x="338.667" y="709"/>
			<point x="293.667" y="696.667"/>
			<point x="265" y="670.667" type="curve" smooth="yes"/>
			<point x="239.667" y="647"/>
			<point x="221.333" y="609.333"/>
			<point x="212.333" y="557.333" type="curve" smooth="yes"/>
			<point x="180.333" y="382.667" type="line" smooth="yes"/>
			<point x="179.333" y="376.667"/>
			<point x="178" y="370.333"/>
			<point x="177" y="364.333" type="curve"/>
			<point x="166.333" y="316.333"/>
			<point x="142" y="266.333"/>
			<point x="81.6667" y="253.667" type="curve"/>
			<point x="78" y="249.333"/>
			<point x="76.6667" y="243.667"/>
			<point x="78.6667" y="239.667" type="curve"/>
			<point x="118" y="231"/>
			<point x="133.333" y="206.667"/>
			<point x="135.667" y="172" type="curve" smooth="yes"/>
			<point x="137" y="156.667"/>
			<point x="135.333" y="140"/>
			<point x="131.333" y="121" type="curve" smooth="yes"/>
			<point x="97" y="-52.3333" type="line" smooth="yes"/>
			<point x="91.6667" y="-80.3333"/>
			<point x="89" y="-103.333"/>
			<point name=".hr01" x="90" y="-123.333" type="curve" smooth="yes"/>
			<point x="90.6667" y="-144.667"/>
			<point x="94.6667" y="-161.333"/>
			<point x="102" y="-174" type="curve" smooth="yes"/>
			<point x="118" y="-202.667"/>
			<point x="160.333" y="-214.667"/>
			<point x="215.667" y="-215.333" type="curve"/>
			<point x="218.667" y="-210"/>
			<point x="219.667" y="-203.333"/>
			<point x="218.667" y="-198" type="curve"/>
			<point x="206" y="-196"/>
			<point x="188" y="-189.333"/>
			<point x="175.667" y="-159" type="curve"/>
			<point x="172" y="-148.333"/>
			<point x="169.667" y="-134.333"/>
			<point x="169.667" y="-118" type="curve" smooth="yes"/>
			<point x="169.667" y="-102.667"/>
			<point x="172" y="-84.3333"/>
			<point x="175.667" y="-64" type="curve" smooth="yes"/>
			<point x="208.333" y="95" type="line" smooth="yes"/>
			<point x="214.667" y="125.667"/>
			<point x="216.667" y="150.667"/>
			<point name=".hr02" x="213.667" y="170.667" type="curve"/>
			<point x="210" y="206.667"/>
			<point x="193.333" y="229.667"/>
			<point x="158.667" y="246.333" type="curve"/>
			<point x="159" y="247.667" type="line"/>
			<point x="214.333" y="267.333"/>
			<point x="244.333" y="293.667"/>
			<point x="261.333" y="377.667" type="curve" smooth="yes"/>
			<point x="262.667" y="384.333"/>
			<point x="264" y="391"/>
			<point x="265" y="398" type="curve"/>
		</contour>
	</outline>
</glyph>
<glyph name="braceright" format="2">
	<unicode hex="007D"/>
	<advance width="284"/>
	<outline>
		<contour>
			<point x="84.6667" y="-67.3333" type="line" smooth="yes"/>
			<point x="76.6667" y="-110"/>
			<point x="65" y="-139.667"/>
			<point x="51" y="-157.667" type="curve" smooth="yes"/>
			<point x="33.3333" y="-180.333"/>
			<point x="12.6667" y="-191.667"/>
			<point x="-8.33333" y="-197.667" type="curve"/>
			<point x="-11.3333" y="-203"/>
			<point x="-13" y="-209.667"/>
			<point x="-12" y="-215" type="curve"/>
			<point x="38.6667" y="-214.333"/>
			<point x="83.6667" y="-202"/>
			<point x="113" y="-176" type="curve"/>
			<point x="137.667" y="-152.333"/>
			<point x="156" y="-114.667"/>
			<point x="165.667" y="-62.6667" type="curve" smooth="yes"/>
			<point x="197" y="112.667" type="line" smooth="yes"/>
			<point x="198" y="118.667"/>
			<point x="199.333" y="125"/>
			<point x="200.333" y="131" type="curve"/>
			<point x="211" y="178.333"/>
			<point x="236.333" y="228.333"/>
			<point x="296.667" y="241" type="curve"/>
			<point x="300" y="245.333"/>
			<point x="300.667" y="251"/>
			<point x="298.667" y="255" type="curve"/>
			<point x="260" y="263.667"/>
			<point x="244.667" y="288"/>
			<point x="242.333" y="322.667" type="curve" smooth="yes"/>
			<point x="241" y="337.333"/>
			<point x="242" y="354.667"/>
			<point x="246" y="374.333" type="curve" smooth="yes"/>
			<point x="280.333" y="547" type="line" smooth="yes"/>
			<point x="286.333" y="575"/>
			<point x="288.333" y="598"/>
			<point name=".hr01" x="287.333" y="618" type="curve" smooth="yes"/>
			<point x="286.667" y="639.333"/>
			<point x="282.667" y="656"/>
			<point x="276" y="668.667" type="curve" smooth="yes"/>
			<point x="260" y="697.333"/>
			<point x="217" y="709.333"/>
			<point x="162.333" y="710" type="curve"/>
			<point x="159.333" y="704.667"/>
			<point x="157.667" y="698"/>
			<point x="158.667" y="692.667" type="curve"/>
			<point x="172.333" y="690.667"/>
			<point x="190" y="684"/>
			<point x="201.667" y="653.667" type="curve" smooth="yes"/>
			<point x="206" y="643"/>
			<point x="208.333" y="629.667"/>
			<point x="208.333" y="613.333" type="curve" smooth="yes"/>
			<point x="208.333" y="598"/>
			<point x="206.333" y="579.667"/>
			<point x="201.667" y="558.667" type="curve" smooth="yes"/>
			<point x="169.667" y="399.667" type="line" smooth="yes"/>
			<point x="163.333" y="369.667"/>
			<point x="161.667" y="344.667"/>
			<point name=".hr02" x="164.667" y="324" type="curve"/>
			<point x="168.333" y="288"/>
			<point x="184" y="265"/>
			<point x="219.333" y="249" type="curve"/>
			<point x="219" y="247.667" type="line"/>
			<point x="163.667" y="228"/>
			<point x="133" y="201"/>
			<point x="116.333" y="117" type="curve" smooth="yes"/>
			<point x="115" y="110.333"/>
			<point x="113.667" y="103.667"/>
			<point x="112.667" y="96.6667" type="curve"/>
		</contour>
	</outline>
</glyph>
<glyph name="asciitilde" format="2">
	<unicode hex="007E"/>
	<advance width="449"/>
	<outline>
		<contour>
			<point x="63" y="209" type="curve"/>
			<point x="65.6667" y="207.333"/>
			<point x="74" y="205.333"/>
			<point x="78.3333" y="206" type="curve"/>
			<point x="109.333" y="250"/>
			<point name=".hr01" x="162" y="273"/>
			<point x="197" y="273" type="curve" smooth="yes"/>
			<point x="249" y="273"/>
			<point name=".hr02" x="282" y="208"/>
			<point x="335" y="208" type="curve" smooth="yes"/>
			<point x="359" y="208"/>
			<point x="426" y="226"/>
			<point x="476" y="333" type="curve"/>
			<point x="471.667" y="335.667"/>
			<point x="462.333" y="339"/>
			<point x="456.667" y="339" type="curve"/>
			<point x="425.667" y="289"/>
			<point x="377" y="277"/>
			<point x="349" y="277" type="curve" smooth="yes"/>
			<point x="304" y="277"/>
			<point name=".hr03" x="259" y="342"/>
			<point x="213" y="342" type="curve" smooth="yes"/>
			<point x="153" y="342"/>
			<point x="87" y="274"/>
		</contour>
	</outline>
</glyph>
<glyph name="currency" format="2">
	<unicode hex="00A4"/>
	<advance width="446"/>
	<outline>
		<contour>
			<point x="241.667" y="123.333" type="curve" smooth="yes"/>
			<point x="281.333" y="123.333"/>
			<point x="318" y="134.667"/>
			<point x="353.333" y="157" type="curve"/>
			<point x="389.667" y="103" type="line"/>
			<point x="439.333" y="147.667" type="line"/>
			<point x="425.667" y="162"/>
			<point x="411" y="177.333"/>
			<point x="397" y="191.667" type="curve"/>
			<point x="427.667" y="224.667"/>
			<point x="446.667" y="260.333"/>
			<point x="454" y="299" type="curve" smooth="yes"/>
			<point x="456.333" y="310.667"/>
			<point x="457.333" y="322"/>
			<point x="457" y="333.333" type="curve"/>
			<point x="457" y="360"/>
			<point x="450" y="384.333"/>
			<point x="436.333" y="406.667" type="curve"/>
			<point x="499" y="451" type="line"/>
			<point x="463.667" y="498.667" type="line"/>
			<point x="446.667" y="482"/>
			<point x="425" y="460"/>
			<point x="406" y="441.667" type="curve"/>
			<point x="381.333" y="461"/>
			<point x="352.667" y="473"/>
			<point x="317.667" y="475" type="curve"/>
			<point x="315" y="475"/>
			<point x="311.667" y="475"/>
			<point x="309" y="475" type="curve" smooth="yes"/>
			<point x="270.667" y="475"/>
			<point x="234.333" y="464"/>
			<point x="199" y="443.333" type="curve"/>
			<point x="163.333" y="495" type="line"/>
			<point x="112.667" y="450" type="line"/>
			<point x="126.667" y="436.333"/>
			<point x="141.333" y="422.333"/>
			<point x="155.333" y="409" type="curve"/>
			<point x="123.333" y="376.667"/>
			<point x="102.667" y="340"/>
			<point x="94.6667" y="299" type="curve" smooth="yes"/>
			<point x="92.3333" y="287.333"/>
			<point x="91.3333" y="276"/>
			<point x="91.6667" y="266" type="curve"/>
			<point x="91.6667" y="238.667"/>
			<point x="99.3333" y="213.333"/>
			<point x="113.667" y="189.667" type="curve"/>
			<point x="53.3333" y="146.667" type="line"/>
			<point x="91" y="100.333" type="line"/>
			<point x="106.667" y="117"/>
			<point x="127.333" y="137.667"/>
			<point x="144.333" y="155.667" type="curve"/>
			<point x="170.667" y="134.333"/>
			<point x="203" y="123.333"/>
		</contour>
		<contour>
			<point x="160.667" y="300" type="curve" smooth="yes"/>
			<point x="174.333" y="370.333"/>
			<point x="234.667" y="428.667"/>
			<point x="301" y="428.667" type="curve" smooth="yes"/>
			<point x="353.667" y="428.667"/>
			<point x="392" y="385.333"/>
			<point x="391" y="324.667" type="curve"/>
			<point x="391" y="316.333"/>
			<point x="390" y="307.667"/>
			<point x="388.667" y="299" type="curve"/>
			<point x="375" y="229"/>
			<point x="318" y="169.667"/>
			<point x="251" y="169.667" type="curve" smooth="yes"/>
			<point x="191.333" y="169.667"/>
			<point x="156.333" y="214.333"/>
			<point x="157.667" y="273" type="curve"/>
			<point x="157.667" y="282.333"/>
			<point x="158.667" y="290.667"/>
		</contour>
	</outline>
</glyph>
<glyph name="yen" format="2">
	<unicode hex="00A5"/>
	<advance width="472"/>
	<outline>
		<contour>
			<point x="455.667" y="169.667" type="line"/>
			<point x="319" y="169.667" type="line"/>
			<point x="332.667" y="234.333" type="line"/>
			<point x="468.333" y="234.333" type="line"/>
			<point x="476.667" y="275" type="line"/>
			<point x="349" y="275" type="line"/>
			<point x="359.667" y="296.667"/>
			<point x="370" y="314.333"/>
			<point x="385" y="337" type="curve" smooth="yes"/>
			<point x="488.333" y="496" type="line"/>
			<point x="491.333" y="500.333"/>
			<point x="493.667" y="504.333"/>
			<point x="496.667" y="508.667" type="curve" smooth="yes"/>
			<point x="515.333" y="536"/>
			<point x="536.667" y="552.333"/>
			<point x="565.667" y="554" type="curve"/>
			<point x="570.333" y="554" type="line"/>
			<point name=".hr01" x="575.333" y="554.333"/>
			<point x="578.333" y="555.333"/>
			<point x="581.333" y="556.667" type="curve"/>
			<point x="582.667" y="558"/>
			<point x="584" y="560.667"/>
			<point x="584.667" y="563.333" type="curve" smooth="yes"/>
			<point x="586.333" y="570.333"/>
			<point x="587.667" y="577.333"/>
			<point x="587.333" y="582.667" type="curve"/>
			<point x="586" y="584" type="line"/>
			<point x="563.667" y="582.333"/>
			<point x="525" y="581.333"/>
			<point x="511.667" y="581.333" type="curve" smooth="yes"/>
			<point x="496" y="581.333"/>
			<point x="446" y="583"/>
			<point x="428.333" y="584" type="curve"/>
			<point x="427.667" y="582.667"/>
			<point x="426.333" y="581.333"/>
			<point x="425.667" y="579.333" type="curve"/>
			<point x="424.333" y="573.667"/>
			<point x="422.667" y="568.333"/>
			<point x="422" y="562.667" type="curve"/>
			<point x="421.667" y="560.667"/>
			<point x="422" y="558"/>
			<point x="422.333" y="556" type="curve"/>
			<point x="425.667" y="555"/>
			<point x="429.667" y="554.333"/>
			<point x="433" y="554" type="curve"/>
			<point x="443" y="554" type="line"/>
			<point name=".hr02" x="461.333" y="553"/>
			<point x="468" y="548.667"/>
			<point x="465.667" y="538.667" type="curve"/>
			<point x="465.667" y="536"/>
			<point x="464" y="532.333"/>
			<point x="461.667" y="528.333" type="curve"/>
			<point x="459.667" y="523.667"/>
			<point x="456.333" y="518.333"/>
			<point x="453" y="512.333" type="curve"/>
			<point x="356.333" y="358.667" type="line" smooth="yes"/>
			<point x="344.667" y="341"/>
			<point x="334.333" y="325"/>
			<point x="324" y="311.333" type="curve"/>
			<point x="320.667" y="317.667"/>
			<point x="318" y="326.333"/>
			<point x="315" y="336.333" type="curve"/>
			<point x="268" y="512.333" type="line"/>
			<point x="267.333" y="513.667"/>
			<point x="267.333" y="515"/>
			<point x="266.667" y="516.333" type="curve"/>
			<point x="264.667" y="525.667"/>
			<point x="263" y="533"/>
			<point x="264.333" y="539.667" type="curve"/>
			<point x="266" y="546.667"/>
			<point x="272.333" y="551.333"/>
			<point x="287" y="552" type="curve"/>
			<point x="292.333" y="553"/>
			<point x="299.667" y="553.667"/>
			<point x="308.333" y="554" type="curve"/>
			<point x="313.333" y="555.333"/>
			<point x="316.333" y="562.333"/>
			<point x="317.333" y="568" type="curve" smooth="yes"/>
			<point x="319.333" y="579.333" type="line"/>
			<point x="319.333" y="581.333"/>
			<point x="318.667" y="582.667"/>
			<point x="318" y="584" type="curve"/>
			<point x="299" y="583"/>
			<point x="264.667" y="582"/>
			<point x="237.333" y="581.333" type="curve"/>
			<point x="227.333" y="581.333"/>
			<point x="218" y="581.333"/>
			<point x="213.333" y="581.333" type="curve" smooth="yes"/>
			<point x="193" y="581.333"/>
			<point x="134" y="582.333"/>
			<point x="119.333" y="584" type="curve"/>
			<point x="118" y="582.667"/>
			<point x="117.333" y="581.333"/>
			<point x="116" y="579.333" type="curve"/>
			<point x="115" y="573.667"/>
			<point x="114" y="568.333"/>
			<point x="113.333" y="562.667" type="curve"/>
			<point x="113.333" y="560"/>
			<point x="114" y="557.333"/>
			<point x="115.333" y="556" type="curve"/>
			<point name=".hr03" x="118.333" y="554.667"/>
			<point x="121" y="554.333"/>
			<point x="123" y="553.333" type="curve"/>
			<point x="123.667" y="553.333" type="line"/>
			<point name=".hr04" x="126.667" y="553"/>
			<point x="130" y="552.667"/>
			<point x="132.333" y="552" type="curve"/>
			<point x="155.333" y="549.667"/>
			<point x="165" y="534.667"/>
			<point x="173.333" y="509" type="curve"/>
			<point x="176.667" y="500"/>
			<point x="179.333" y="490.333"/>
			<point x="182.333" y="480" type="curve" smooth="yes"/>
			<point x="227.333" y="326.667" type="line"/>
			<point x="232.667" y="306.333"/>
			<point x="238" y="290.333"/>
			<point x="241.333" y="275" type="curve"/>
			<point x="120.333" y="275" type="line"/>
			<point x="112" y="234.333" type="line"/>
			<point x="238" y="234.333" type="line"/>
			<point x="224.333" y="169.667" type="line"/>
			<point x="99" y="169.667" type="line"/>
			<point x="90.6667" y="129.667" type="line"/>
			<point x="216.667" y="129.667" type="line"/>
			<point x="212.333" y="107.333" type="line" smooth="yes"/>
			<point x="210" y="95.6667"/>
			<point x="207.667" y="85.3333"/>
			<point x="205" y="76" type="curve"/>
			<point x="198.333" y="47"/>
			<point x="182.667" y="32.3333"/>
			<point x="146.333" y="30.6667" type="curve" smooth="yes"/>
			<point x="137.333" y="30.3333"/>
			<point x="128.667" y="30"/>
			<point x="118.667" y="29.6667" type="curve"/>
			<point x="115.333" y="29.6667"/>
			<point x="111.333" y="28.6667"/>
			<point x="108.333" y="28" type="curve"/>
			<point x="106.333" y="26.6667"/>
			<point x="105" y="24"/>
			<point x="103.667" y="20.6667" type="curve"/>
			<point x="102.667" y="15"/>
			<point x="101.667" y="9"/>
			<point x="100.667" y="3.33333" type="curve"/>
			<point x="100.667" y="1.33333"/>
			<point x="101.667" y="0"/>
			<point x="102" y="-1.33333" type="curve"/>
			<point x="117.333" y="-1"/>
			<point x="197.333" y="0.666667"/>
			<point x="242" y="0.666667" type="curve" smooth="yes"/>
			<point x="287" y="0.666667"/>
			<point x="358" y="-1"/>
			<point x="373.333" y="-1.33333" type="curve"/>
			<point x="375.333" y="0" type="line"/>
			<point x="377.667" y="5.33333"/>
			<point x="379.333" y="13.6667"/>
			<point x="380.333" y="20.6667" type="curve"/>
			<point x="381.333" y="24"/>
			<point x="380.333" y="26.6667"/>
			<point x="379.333" y="28" type="curve"/>
			<point x="376.333" y="28.6667"/>
			<point x="373" y="29.6667"/>
			<point x="369.667" y="29.6667" type="curve"/>
			<point x="359.667" y="30"/>
			<point x="350.667" y="30.3333"/>
			<point x="341.667" y="30.6667" type="curve" smooth="yes"/>
			<point x="307.667" y="32.3333"/>
			<point x="296.333" y="45"/>
			<point x="301.333" y="76" type="curve" smooth="yes"/>
			<point x="303" y="85.3333"/>
			<point x="305" y="95.6667"/>
			<point x="307.333" y="107.333" type="curve"/>
			<point x="308.333" y="114.667"/>
			<point x="310" y="122.333"/>
			<point x="311.333" y="129.667" type="curve"/>
			<point x="447.333" y="129.667" type="line"/>
		</contour>
	</outline>
</glyph>
<glyph name="dieresis" format="2">
	<unicode hex="00A8"/>
	<advance width="387"/>
	<outline>
		<contour>
			<point x="199.333" y="603" type="curve"/>
			<point x="182" y="593"/>
			<point x="170" y="570.333"/>
			<point x="179.333" y="549.667" type="curve"/>
			<point x="189" y="535"/>
			<point x="207.667" y="532.333"/>
			<point x="223" y="542.333" type="curve" smooth="yes"/>
			<point x="239.667" y="552.667"/>
			<point x="253" y="575.333"/>
			<point x="243.333" y="596.667" type="curve"/>
			<point x="233.667" y="610.667"/>
			<point x="214.667" y="613.333"/>
		</contour>
		<contour>
			<point x="365" y="603.667" type="curve"/>
			<point x="347.667" y="593.667"/>
			<point x="335" y="571"/>
			<point x="345" y="549.667" type="curve"/>
			<point x="354.333" y="535.667"/>
			<point x="373.333" y="533"/>
			<point x="388.667" y="543" type="curve"/>
			<point x="406" y="553.333"/>
			<point x="418.333" y="576"/>
			<point x="408.667" y="596.667" type="curve"/>
			<point x="399" y="610.667"/>
			<point x="380.333" y="614"/>
		</contour>
	</outline>
</glyph>
<glyph name="uni00B2" format="2">
	<unicode hex="00B2"/>
	<advance width="318"/>
	<outline>
		<contour>
			<point x="171.667" y="616" type="curve"/>
			<point x="170.333" y="612.667"/>
			<point x="170.333" y="608.667"/>
			<point x="170.333" y="606" type="curve"/>
			<point x="170.667" y="594.333"/>
			<point x="180.333" y="585.667"/>
			<point x="194" y="585.667" type="curve" smooth="yes"/>
			<point x="206.667" y="585.667"/>
			<point x="226" y="595.333"/>
			<point x="230" y="611.333" type="curve"/>
			<point x="231.333" y="615"/>
			<point x="231.667" y="619"/>
			<point x="231.667" y="623" type="curve"/>
			<point x="231.333" y="626.667"/>
			<point x="231.667" y="631"/>
			<point x="232.667" y="636" type="curve"/>
			<point x="234" y="641.333"/>
			<point x="236.333" y="649"/>
			<point x="240.333" y="653.667" type="curve" smooth="yes"/>
			<point x="248.667" y="663.333"/>
			<point x="262.667" y="669"/>
			<point x="287.333" y="669" type="curve" smooth="yes"/>
			<point x="295.333" y="669"/>
			<point x="306.667" y="666"/>
			<point x="313.667" y="658" type="curve"/>
			<point x="320" y="651.333"/>
			<point x="325" y="641.333"/>
			<point x="325" y="626" type="curve" smooth="yes"/>
			<point x="325" y="620.667"/>
			<point x="324" y="615"/>
			<point x="323" y="609.333" type="curve"/>
			<point x="322.333" y="604"/>
			<point x="320.667" y="598.667"/>
			<point x="319.667" y="593.333" type="curve"/>
			<point x="312" y="566"/>
			<point x="296" y="543"/>
			<point x="268" y="521" type="curve" smooth="yes"/>
			<point x="258" y="513"/>
			<point x="247.333" y="505"/>
			<point x="236" y="497" type="curve" smooth="yes"/>
			<point x="223.333" y="487.667"/>
			<point x="209.667" y="477.667"/>
			<point x="197.667" y="467.667" type="curve" smooth="yes"/>
			<point x="159.333" y="437"/>
			<point x="128" y="402"/>
			<point x="120.333" y="364" type="curve"/>
			<point x="331.667" y="364" type="line"/>
			<point x="342.667" y="393"/>
			<point x="359.333" y="431.333"/>
			<point x="372.667" y="464.333" type="curve"/>
			<point x="366.333" y="467"/>
			<point x="358" y="468.333"/>
			<point x="349" y="469.667" type="curve"/>
			<point x="334.333" y="442.333"/>
			<point x="310.333" y="408.333"/>
			<point x="282.667" y="405" type="curve"/>
			<point x="279.667" y="404.333"/>
			<point x="277.333" y="404.333"/>
			<point x="274" y="404.333" type="curve" smooth="yes"/>
			<point x="197.667" y="404.333" type="line"/>
			<point x="201.667" y="423.333"/>
			<point x="216" y="443"/>
			<point x="240.667" y="462" type="curve"/>
			<point x="251" y="471"/>
			<point x="263" y="479.333"/>
			<point x="276" y="488" type="curve" smooth="yes"/>
			<point x="287.333" y="495.667" type="line" smooth="yes"/>
			<point x="313.667" y="513.667"/>
			<point x="338.333" y="532.333"/>
			<point x="355.333" y="549.333" type="curve" smooth="yes"/>
			<point x="375.333" y="569.333"/>
			<point x="386" y="588"/>
			<point x="390.333" y="610.667" type="curve"/>
			<point x="392.333" y="618"/>
			<point x="392.667" y="623.667"/>
			<point x="392.667" y="630" type="curve"/>
			<point x="393" y="649.667"/>
			<point x="386" y="663.667"/>
			<point x="374" y="674.333" type="curve" smooth="yes"/>
			<point x="357" y="690"/>
			<point x="330.333" y="694.333"/>
			<point x="306" y="695" type="curve"/>
			<point x="302.667" y="695"/>
			<point x="299.333" y="695"/>
			<point x="296" y="695" type="curve"/>
			<point x="220.333" y="693"/>
			<point x="177" y="642"/>
		</contour>
	</outline>
</glyph>
<glyph name="uni00B3" format="2">
	<unicode hex="00B3"/>
	<advance width="318"/>
	<outline>
		<contour>
			<point x="281" y="439.667" type="curve"/>
			<point x="265.333" y="393.667"/>
			<point x="222" y="388.333"/>
			<point x="207.333" y="391.333" type="curve"/>
			<point x="185" y="394.333"/>
			<point x="178" y="409"/>
			<point x="165" y="415.667" type="curve"/>
			<point x="154" y="420.333"/>
			<point x="144.333" y="418"/>
			<point x="135.667" y="411" type="curve"/>
			<point x="129" y="399.333"/>
			<point x="134" y="390.333"/>
			<point x="148.667" y="381.667" type="curve"/>
			<point x="163.667" y="368.333"/>
			<point x="210.333" y="363"/>
			<point x="246.333" y="371" type="curve"/>
			<point x="310.333" y="379"/>
			<point x="370.333" y="421"/>
			<point x="379" y="483.333" type="curve"/>
			<point x="379.667" y="500"/>
			<point x="372" y="510"/>
			<point x="362.667" y="516.333" type="curve"/>
			<point x="362.333" y="547"/>
			<point x="338.333" y="561.333"/>
			<point x="319" y="563.333" type="curve"/>
			<point x="340.333" y="574.333"/>
			<point x="358" y="590"/>
			<point x="362.333" y="609.667" type="curve"/>
			<point x="374" y="619.333"/>
			<point name=".hr01" x="383" y="629.667"/>
			<point x="383" y="644" type="curve" smooth="yes"/>
			<point x="383" y="675.667"/>
			<point x="353" y="695"/>
			<point x="303.333" y="695" type="curve" smooth="yes"/>
			<point x="213" y="695"/>
			<point x="171.333" y="639"/>
			<point x="168" y="621.333" type="curve"/>
			<point x="168" y="619"/>
			<point x="168.333" y="608.333"/>
			<point x="181" y="607.333" type="curve"/>
			<point x="195.667" y="604.333"/>
			<point x="201" y="611.333"/>
			<point x="210.333" y="619.333" type="curve"/>
			<point x="223.333" y="636"/>
			<point x="252.667" y="651.333"/>
			<point x="267" y="656" type="curve"/>
			<point x="280.667" y="663.667"/>
			<point x="300.333" y="664.333"/>
			<point x="307.333" y="649.667" type="curve"/>
			<point x="313" y="647"/>
			<point x="317" y="641.333"/>
			<point x="317" y="631.667" type="curve"/>
			<point x="311.667" y="587"/>
			<point x="268" y="558.667"/>
			<point x="223.333" y="552.667" type="curve"/>
			<point x="219.333" y="526.667" type="line"/>
			<point x="229" y="528.333"/>
			<point x="236.667" y="529.333"/>
			<point x="244.333" y="529.333" type="curve" smooth="yes"/>
			<point x="270.333" y="529.333"/>
			<point name=".hr02" x="309" y="522.333"/>
			<point x="309" y="483" type="curve" smooth="yes"/>
			<point x="309" y="464"/>
			<point x="293.667" y="443.667"/>
		</contour>
	</outline>
</glyph>
<glyph name="periodcentered" format="2">
	<unicode hex="00B7"/>
	<advance width="274"/>
	<outline>
		<contour>
			<point x="191" y="191.667" type="curve" smooth="yes"/>
			<point x="225" y="191.667"/>
			<point x="254.333" y="221.667"/>
			<point x="254.333" y="254.667" type="curve" smooth="yes"/>
			<point x="254.333" y="288.667"/>
			<point x="223.333" y="317.667"/>
			<point x="191" y="317.667" type="curve" smooth="yes"/>
			<point x="157.667" y="317.667"/>
			<point x="127.667" y="287.333"/>
			<point x="127.667" y="254.667" type="curve" smooth="yes"/>
			<point x="127.667" y="222"/>
			<point x="156" y="191.667"/>
		</contour>
	</outline>
</glyph>
<glyph name="cedilla" format="2">
	<unicode hex="00B8"/>
	<advance width="541"/>
	<outline>
		<contour>
			<point x="231.333" y="-91" type="line"/>
			<point x="248.667" y="-88.6667"/>
			<point x="262" y="-88"/>
			<point x="281" y="-90" type="curve" smooth="yes"/>
			<point x="300" y="-92"/>
			<point x="314" y="-102"/>
			<point x="313" y="-119" type="curve" smooth="yes"/>
			<point x="311.667" y="-149.333"/>
			<point x="280" y="-166"/>
			<point x="247.333" y="-166" type="curve" smooth="yes"/>
			<point x="225.333" y="-166"/>
			<point x="217" y="-164"/>
			<point x="191" y="-154.667" type="curve"/>
			<point x="184.667" y="-160"/>
			<point x="181" y="-168"/>
			<point x="177.333" y="-175.333" type="curve"/>
			<point x="198.333" y="-185"/>
			<point x="210.333" y="-191"/>
			<point x="237" y="-192.333" type="curve"/>
			<point x="240.333" y="-192.333"/>
			<point x="245" y="-192.333"/>
			<point x="249" y="-192.333" type="curve"/>
			<point x="311" y="-190.667"/>
			<point x="364.667" y="-157.333"/>
			<point x="371" y="-111" type="curve"/>
			<point x="372" y="-107.333"/>
			<point x="372" y="-104"/>
			<point x="372" y="-100.667" type="curve" smooth="yes"/>
			<point x="372" y="-68.3333"/>
			<point x="346.667" y="-52.3333"/>
			<point x="316" y="-48.6667" type="curve" smooth="yes"/>
			<point x="306.667" y="-47.3333"/>
			<point x="297" y="-47"/>
			<point x="288" y="-47.6667" type="curve"/>
			<point x="321.667" y="7" type="line"/>
			<point x="287.667" y="7" type="line"/>
			<point x="226.333" y="-85" type="line"/>
		</contour>
	</outline>
</glyph>
<glyph name="uni00B9" format="2">
	<unicode hex="00B9"/>
	<advance width="318"/>
	<outline>
		<contour>
			<point x="252.667" y="627.333" type="curve" smooth="yes"/>
			<point x="264.333" y="627.333"/>
			<point x="264.333" y="617.667"/>
			<point x="258.333" y="585.667" type="curve" smooth="yes"/>
			<point x="229.667" y="441" type="line"/>
			<point x="228.333" y="434.333" type="line" smooth="yes"/>
			<point x="222.667" y="409.333"/>
			<point x="207" y="395"/>
			<point x="190.333" y="393" type="curve" smooth="yes"/>
			<point x="178.333" y="391.667"/>
			<point x="165.667" y="391.333"/>
			<point x="152.667" y="391" type="curve"/>
			<point x="149.333" y="390"/>
			<point x="146.667" y="387"/>
			<point x="145.667" y="384.333" type="curve"/>
			<point x="144.333" y="377"/>
			<point x="142.667" y="369.667"/>
			<point x="142.667" y="363.667" type="curve"/>
			<point x="152" y="364"/>
			<point x="207.667" y="364.667"/>
			<point x="244" y="364.667" type="curve" smooth="yes"/>
			<point x="276" y="364.667"/>
			<point x="314.333" y="364"/>
			<point x="331" y="363.667" type="curve"/>
			<point x="332.333" y="363.667" type="line"/>
			<point x="334" y="370"/>
			<point x="336.333" y="377.333"/>
			<point x="337" y="384.333" type="curve"/>
			<point x="338" y="387"/>
			<point x="337.333" y="388.667"/>
			<point x="336.333" y="390.333" type="curve"/>
			<point x="334.333" y="391"/>
			<point x="332.333" y="391.333"/>
			<point x="330" y="391.333" type="curve" smooth="yes"/>
			<point x="323" y="391.333"/>
			<point x="315" y="391.667"/>
			<point x="308" y="391.667" type="curve"/>
			<point x="293.667" y="393"/>
			<point x="285" y="405.667"/>
			<point x="289" y="428.667" type="curve" smooth="yes"/>
			<point x="289.667" y="432.333"/>
			<point x="290" y="437"/>
			<point x="291" y="441" type="curve"/>
			<point x="342.667" y="696.667" type="line"/>
			<point x="338.333" y="697.667"/>
			<point x="331" y="698"/>
			<point x="325" y="697.333" type="curve"/>
			<point x="321" y="696"/>
			<point x="318" y="694.333"/>
			<point x="314.667" y="692.667" type="curve" smooth="yes"/>
			<point x="270.667" y="669.667"/>
			<point x="237" y="657"/>
			<point x="190.333" y="640.667" type="curve"/>
			<point x="190" y="630.667"/>
			<point x="191" y="619.667"/>
			<point x="193.667" y="611.667" type="curve"/>
			<point x="213" y="619.333"/>
			<point x="240" y="627.333"/>
		</contour>
	</outline>
</glyph>
<glyph name="onequarter" format="2">
	<unicode hex="00BC"/>
	<advance width="673"/>
	<outline>
		<contour>
			<point x="579.333" y="-20.6667" type="curve" smooth="yes"/>
			<point x="584.333" y="2.33333" type="line"/>
			<point x="635.333" y="2.33333" type="line"/>
			<point x="648.667" y="39" type="line"/>
			<point x="592.667" y="39" type="line"/>
			<point x="633" y="224.333" type="line" smooth="yes"/>
			<point x="635" y="233.333"/>
			<point x="624.333" y="234.333"/>
			<point x="618.667" y="234.333" type="curve" smooth="yes"/>
			<point x="612.667" y="234.333"/>
			<point x="602.333" y="233.667"/>
			<point x="597.667" y="233.667" type="curve" smooth="yes"/>
			<point x="593.667" y="233.667" type="line"/>
			<point x="574.667" y="226.333"/>
			<point x="565" y="213"/>
			<point x="555.333" y="201.667" type="curve" smooth="yes"/>
			<point x="511" y="150"/>
			<point x="454.333" y="89.6667"/>
			<point x="395.667" y="35" type="curve"/>
			<point x="391" y="31"/>
			<point x="386" y="23.6667"/>
			<point x="384.333" y="14.3333" type="curve"/>
			<point x="385.333" y="9"/>
			<point x="388.667" y="3.66667"/>
			<point x="399" y="2.33333" type="curve"/>
			<point x="523.667" y="2.33333" type="line"/>
			<point x="518.667" y="-20.6667" type="line" smooth="yes"/>
			<point x="509" y="-65"/>
			<point x="490" y="-68"/>
			<point x="450.667" y="-70" type="curve"/>
			<point x="443.667" y="-78"/>
			<point x="441" y="-93.3333"/>
			<point x="443.667" y="-99.3333" type="curve"/>
			<point x="470.667" y="-98.3333"/>
			<point x="489.333" y="-98.3333"/>
			<point x="517.333" y="-98.3333" type="curve" smooth="yes"/>
			<point x="531.333" y="-98.3333" type="line" smooth="yes"/>
			<point x="562.333" y="-98.3333"/>
			<point x="583.667" y="-98.3333"/>
			<point x="611.667" y="-99.3333" type="curve"/>
			<point x="617.333" y="-92.3333"/>
			<point x="620.333" y="-78"/>
			<point x="618.333" y="-70" type="curve"/>
			<point x="582.667" y="-68"/>
			<point x="570.333" y="-61"/>
		</contour>
		<contour>
			<point x="637.667" y="561" type="line"/>
			<point x="101.667" y="-40.6667" type="line"/>
			<point x="147.667" y="-50.3333" type="line"/>
			<point x="683.667" y="551.333" type="line"/>
		</contour>
		<contour>
			<point x="249.667" y="578.333" type="curve" smooth="yes"/>
			<point x="261.333" y="578.333"/>
			<point x="261.333" y="568.667"/>
			<point x="255.333" y="536.667" type="curve" smooth="yes"/>
			<point x="226.667" y="392" type="line"/>
			<point x="225.333" y="385.333" type="line" smooth="yes"/>
			<point x="219.667" y="360.333"/>
			<point x="204" y="346"/>
			<point x="187.333" y="344" type="curve" smooth="yes"/>
			<point x="175.333" y="342.667"/>
			<point x="162.667" y="342.333"/>
			<point x="149.667" y="342" type="curve"/>
			<point x="146.333" y="341"/>
			<point x="143.667" y="338"/>
			<point x="142.667" y="335.333" type="curve"/>
			<point x="141.333" y="328"/>
			<point x="139.667" y="320.667"/>
			<point x="139.667" y="314.667" type="curve"/>
			<point x="149" y="315"/>
			<point x="204.667" y="315.667"/>
			<point x="241" y="315.667" type="curve" smooth="yes"/>
			<point x="273" y="315.667"/>
			<point x="311.333" y="315"/>
			<point x="328" y="314.667" type="curve"/>
			<point x="329.333" y="314.667" type="line"/>
			<point x="331" y="321"/>
			<point x="333.333" y="328.333"/>
			<point x="334" y="335.333" type="curve"/>
			<point x="335" y="338"/>
			<point x="334.333" y="339.667"/>
			<point x="333.333" y="341.333" type="curve"/>
			<point x="331.333" y="342"/>
			<point x="329.333" y="342.333"/>
			<point x="327" y="342.333" type="curve" smooth="yes"/>
			<point x="320" y="342.333"/>
			<point x="312" y="342.667"/>
			<point x="305" y="342.667" type="curve"/>
			<point x="290.667" y="344"/>
			<point x="282" y="356.667"/>
			<point x="286" y="379.667" type="curve" smooth="yes"/>
			<point x="286.667" y="383.333"/>
			<point x="287" y="388"/>
			<point x="288" y="392" type="curve"/>
			<point x="339.667" y="647.667" type="line"/>
			<point x="335.333" y="648.667"/>
			<point x="328" y="649"/>
			<point x="322" y="648.333" type="curve"/>
			<point x="318" y="647"/>
			<point x="315" y="645.333"/>
			<point x="311.667" y="643.667" type="curve" smooth="yes"/>
			<point x="267.667" y="620.667"/>
			<point x="234" y="608"/>
			<point x="187.333" y="591.667" type="curve"/>
			<point x="187" y="581.667"/>
			<point x="188" y="570.667"/>
			<point x="190.667" y="562.667" type="curve"/>
			<point x="210" y="570.333"/>
			<point x="237" y="578.333"/>
		</contour>
		<contour>
			<point x="562" y="176.667" type="curve"/>
			<point x="551.667" y="130.667"/>
			<point x="542.333" y="85"/>
			<point x="532" y="39" type="curve"/>
			<point x="432" y="39" type="line"/>
			<point x="482.333" y="85.6667"/>
			<point x="523.667" y="131.333"/>
		</contour>
	</outline>
</glyph>
<glyph name="questiondown" format="2">
	<unicode hex="00BF"/>
	<advance width="413"/>
	<outline>
		<contour>
			<point x="279.333" y="-137.333" type="curve"/>
			<point x="274" y="-166.667"/>
			<point x="231.667" y="-192.667"/>
			<point x="179.667" y="-192.667" type="curve" smooth="yes"/>
			<point x="130.333" y="-192.667"/>
			<point x="105" y="-148.333"/>
			<point x="107.333" y="-95.3333" type="curve" smooth="yes"/>
			<point x="107.667" y="-87.3333"/>
			<point x="108.667" y="-80.3333"/>
			<point x="109.667" y="-72.6667" type="curve"/>
			<point x="118.333" y="-26"/>
			<point x="144.333" y="7"/>
			<point x="186.333" y="41.3333" type="curve" smooth="yes"/>
			<point x="190.667" y="45"/>
			<point x="195" y="48.3333"/>
			<point x="198.667" y="52" type="curve"/>
			<point x="264.333" y="107.667"/>
			<point x="277" y="160.667"/>
			<point x="284.667" y="200.333" type="curve" smooth="yes"/>
			<point x="286" y="207.667"/>
			<point x="287.667" y="214"/>
			<point name=".hr01" x="288.667" y="221" type="curve"/>
			<point x="292.333" y="241.333" type="line"/>
			<point x="294.333" y="249.667"/>
			<point x="292" y="254.667"/>
			<point x="286" y="256.333" type="curve"/>
			<point x="280.333" y="257.333"/>
			<point x="276" y="256"/>
			<point x="274.333" y="252" type="curve"/>
			<point x="273" y="252.333"/>
			<point x="271.333" y="252.667"/>
			<point x="269.333" y="252.667" type="curve"/>
			<point x="259.667" y="248"/>
			<point x="256.333" y="239.667"/>
			<point x="254" y="226.667" type="curve" smooth="yes"/>
			<point x="250.333" y="207.667" type="line" smooth="yes"/>
			<point x="245.667" y="181.667"/>
			<point x="235.333" y="158.333"/>
			<point x="219.333" y="136" type="curve" smooth="yes"/>
			<point x="205.667" y="116.667"/>
			<point x="183.333" y="101.333"/>
			<point x="160" y="86" type="curve" smooth="yes"/>
			<point x="106.333" y="49.6667"/>
			<point x="38.6667" y="4.33333"/>
			<point x="24.3333" y="-73" type="curve"/>
			<point x="22.6667" y="-85.3333"/>
			<point x="21" y="-96.3333"/>
			<point x="21" y="-107.333" type="curve"/>
			<point x="21.6667" y="-179"/>
			<point x="74" y="-224.667"/>
			<point x="164" y="-224.667" type="curve" smooth="yes"/>
			<point x="218.333" y="-224.667"/>
			<point x="263.333" y="-210.667"/>
			<point x="297" y="-185.667" type="curve" smooth="yes"/>
			<point x="332.333" y="-160.333"/>
			<point x="356.667" y="-134"/>
			<point name=".hr02" x="363.667" y="-97" type="curve"/>
			<point x="364" y="-92.6667"/>
			<point x="365" y="-88.3333"/>
			<point x="364.667" y="-84.6667" type="curve"/>
			<point x="364.667" y="-58"/>
			<point x="344" y="-49"/>
			<point x="328" y="-49" type="curve" smooth="yes"/>
			<point x="306" y="-49"/>
			<point x="282.333" y="-62.3333"/>
			<point x="277.667" y="-86" type="curve" smooth="yes"/>
			<point x="275.667" y="-97.6667"/>
			<point x="276.333" y="-103.333"/>
			<point x="278.333" y="-109.667" type="curve"/>
			<point name=".hr03" x="279" y="-112"/>
			<point x="280" y="-113.333"/>
			<point x="280.667" y="-116.333" type="curve"/>
			<point x="281.333" y="-121.333"/>
			<point x="281.667" y="-127.333"/>
		</contour>
		<contour>
			<point x="363" y="388.667" type="curve"/>
			<point x="363.333" y="392"/>
			<point x="364" y="395.333"/>
			<point x="364.333" y="399.333" type="curve"/>
			<point x="364.667" y="426"/>
			<point x="344.667" y="446.667"/>
			<point x="316" y="446.667" type="curve" smooth="yes"/>
			<point x="284.333" y="446.667"/>
			<point x="252.667" y="420"/>
			<point x="246" y="388" type="curve"/>
			<point x="245.667" y="384.667"/>
			<point x="244.667" y="381"/>
			<point name=".hr04" x="244.667" y="377.667" type="curve"/>
			<point x="244.333" y="350.333"/>
			<point x="264.333" y="329.667"/>
			<point x="293" y="329.667" type="curve" smooth="yes"/>
			<point x="324.667" y="329.667"/>
			<point x="357" y="356.333"/>
		</contour>
	</outline>
</glyph>
<glyph name="Eth" format="2">
	<unicode hex="00D0"/>
	<advance width="677"/>
	<outline>
		<component base="D"/>
		<contour>
			<point x="241.333" y="286.333" type="line"/>
			<point x="361.333" y="284.667" type="line"/>
			<point x="370" y="327.333" type="line"/>
			<point x="249.333" y="325.667" type="line"/>
		</contour>
		<contour>
			<point x="182.667" y="326" type="line"/>
			<point x="79" y="327.333" type="line"/>
			<point x="70.3333" y="284.667" type="line"/>
			<point x="175" y="286" type="line"/>
		</contour>
	</outline>
</glyph>
<glyph name="Thorn" format="2">
	<unicode hex="00DE"/>
	<advance width="539"/>
	<outline>
		<contour>
			<point x="207.667" y="557.667" type="curve" smooth="yes"/>
			<point x="122.333" y="119.333" type="line" smooth="yes"/>
			<point x="119" y="102.667"/>
			<point x="115.667" y="87.6667"/>
			<point x="112" y="74" type="curve" smooth="yes"/>
			<point x="104" y="45.6667"/>
			<point x="88.3333" y="34.3333"/>
			<point x="54" y="31" type="curve"/>
			<point x="46.3333" y="30"/>
			<point x="39.3333" y="30"/>
			<point x="31.6667" y="29" type="curve"/>
			<point x="28.3333" y="29"/>
			<point x="25.3333" y="28"/>
			<point x="22" y="27.3333" type="curve"/>
			<point x="20" y="26"/>
			<point x="18.3333" y="23.3333"/>
			<point x="17.3333" y="20" type="curve"/>
			<point x="16" y="14.3333"/>
			<point x="14.3333" y="8.33333"/>
			<point x="13.6667" y="2.66667" type="curve"/>
			<point x="14.3333" y="0.666667"/>
			<point x="14.6667" y="-0.666667"/>
			<point x="16.3333" y="-2" type="curve"/>
			<point x="29.3333" y="-1.66667"/>
			<point x="113" y="0"/>
			<point x="148.333" y="0" type="curve" smooth="yes"/>
			<point x="186.333" y="0"/>
			<point x="265" y="-1.66667"/>
			<point x="277.667" y="-2" type="curve"/>
			<point x="279.667" y="-0.666667"/>
			<point x="280.333" y="0.666667"/>
			<point x="281.667" y="2.66667" type="curve"/>
			<point x="283" y="8.33333"/>
			<point x="284.667" y="14.3333"/>
			<point x="285" y="20" type="curve"/>
			<point x="285.667" y="23.3333"/>
			<point x="284.667" y="26"/>
			<point x="283" y="27.3333" type="curve"/>
			<point x="279.667" y="28"/>
			<point x="277.333" y="29"/>
			<point x="274.333" y="29" type="curve"/>
			<point x="264.667" y="30"/>
			<point x="256.667" y="30.3333"/>
			<point x="248" y="32" type="curve"/>
			<point x="219.333" y="36"/>
			<point x="207.667" y="45.6667"/>
			<point x="211.333" y="74" type="curve" smooth="yes"/>
			<point x="213.333" y="87.6667"/>
			<point x="215.667" y="102"/>
			<point x="219" y="118" type="curve" smooth="yes"/>
			<point x="226.333" y="157.667" type="line"/>
			<point x="239.667" y="153.333"/>
			<point x="263.667" y="151.667"/>
			<point x="294" y="151.333" type="curve"/>
			<point x="301.333" y="151.333"/>
			<point x="308" y="151.333"/>
			<point x="315.333" y="152" type="curve"/>
			<point x="477.667" y="158"/>
			<point x="554.667" y="270"/>
			<point x="569.333" y="343" type="curve" smooth="yes"/>
			<point x="583.667" y="414"/>
			<point x="567.667" y="521.667"/>
			<point x="387.333" y="521.667" type="curve" smooth="yes"/>
			<point x="369.667" y="521.667"/>
			<point x="332" y="521.667"/>
			<point x="297" y="519.667" type="curve"/>
			<point x="299" y="529.667" type="line" smooth="yes"/>
			<point x="301.667" y="545"/>
			<point x="305" y="559.333"/>
			<point x="308" y="572.333" type="curve"/>
			<point x="316" y="600.667"/>
			<point x="331.667" y="610.667"/>
			<point x="365.333" y="614" type="curve"/>
			<point x="373" y="615"/>
			<point x="380.667" y="615"/>
			<point x="388.333" y="616" type="curve"/>
			<point x="391.667" y="616"/>
			<point x="394.667" y="617"/>
			<point x="398" y="617.667" type="curve"/>
			<point x="400" y="619.667"/>
			<point x="402.333" y="622.333"/>
			<point x="402.667" y="625" type="curve"/>
			<point x="404" y="630.667"/>
			<point x="405" y="636.667"/>
			<point x="405.667" y="642.333" type="curve"/>
			<point x="405.667" y="643.667"/>
			<point x="404.667" y="645.667"/>
			<point x="403.667" y="646.333" type="curve"/>
			<point x="392" y="646"/>
			<point x="312" y="645"/>
			<point x="277" y="645" type="curve" smooth="yes"/>
			<point x="272.333" y="645" type="line" smooth="yes"/>
			<point x="235.667" y="645"/>
			<point x="160.333" y="646"/>
			<point x="147" y="646.333" type="curve"/>
			<point x="141" y="645.667" type="line"/>
			<point x="138" y="640.333"/>
			<point x="135" y="632"/>
			<point x="134.667" y="625" type="curve"/>
			<point x="134.667" y="622.333"/>
			<point x="135" y="619.667"/>
			<point x="136.667" y="617.667" type="curve"/>
			<point x="139.333" y="617"/>
			<point x="142.333" y="616"/>
			<point x="145.333" y="616" type="curve"/>
			<point x="154.333" y="615"/>
			<point x="163.333" y="614.667"/>
			<point x="171" y="613" type="curve"/>
			<point x="203" y="608.333"/>
			<point x="215.333" y="596"/>
		</contour>
		<contour>
			<point x="232.333" y="190" type="curve"/>
			<point x="288.667" y="478.667" type="line"/>
			<point x="309" y="482.667"/>
			<point x="352" y="487"/>
			<point x="371.333" y="487.333" type="curve"/>
			<point x="377" y="487.333"/>
			<point x="383.333" y="487.333"/>
			<point x="388.667" y="486.667" type="curve"/>
			<point x="443.333" y="482.667"/>
			<point x="482.667" y="443.667"/>
			<point x="462.333" y="343" type="curve" smooth="yes"/>
			<point x="438" y="220.667"/>
			<point x="368.667" y="185.667"/>
			<point x="298" y="185.667" type="curve" smooth="yes"/>
			<point x="264" y="185.667"/>
			<point x="241.667" y="187.333"/>
		</contour>
	</outline>
</glyph>
<glyph name="oslash" format="2">
	<unicode hex="00F8"/>
	<advance width="458"/>
	<outline>
		<contour>
			<point x="472.667" y="475" type="line"/>
			<point x="422.667" y="414.333" type="line"/>
			<point x="403.667" y="427.667"/>
			<point x="378" y="436.333"/>
			<point x="344.333" y="438.333" type="curve"/>
			<point x="338.333" y="439"/>
			<point x="332" y="439"/>
			<point x="325.333" y="438.667" type="curve"/>
			<point x="283" y="437.667"/>
			<point x="246.333" y="426.333"/>
			<point x="214.667" y="408.333" type="curve" smooth="yes"/>
			<point x="123.333" y="357.667"/>
			<point x="76" y="250.333"/>
			<point x="76" y="162" type="curve" smooth="yes"/>
			<point x="76" y="129"/>
			<point x="81.6667" y="76"/>
			<point x="112" y="37.6667" type="curve"/>
			<point x="65.3333" y="-18.3333" type="line"/>
			<point x="98.3333" y="-45.6667" type="line"/>
			<point x="143.667" y="9" type="line"/>
			<point x="163.333" y="-3"/>
			<point x="188" y="-10"/>
			<point x="220.333" y="-10" type="curve" smooth="yes"/>
			<point x="253.333" y="-10"/>
			<point x="288" y="-5"/>
			<point x="317.333" y="8.66667" type="curve"/>
			<point x="322.333" y="10.6667"/>
			<point x="326.667" y="13.3333"/>
			<point x="331.333" y="15.3333" type="curve"/>
			<point x="413.667" y="62"/>
			<point x="478.333" y="158.667"/>
			<point x="478.333" y="278.333" type="curve" smooth="yes"/>
			<point x="478.333" y="313.667"/>
			<point x="472.333" y="353"/>
			<point x="451.667" y="384" type="curve"/>
			<point x="506" y="450.667" type="line"/>
		</contour>
		<contour>
			<point x="370" y="351" type="curve"/>
			<point x="178.667" y="119" type="line"/>
			<point x="176.333" y="129.333"/>
			<point x="175.667" y="141"/>
			<point x="175" y="154" type="curve"/>
			<point x="174.333" y="162"/>
			<point x="174.333" y="170"/>
			<point x="174.333" y="177.667" type="curve"/>
			<point x="175.333" y="269.667"/>
			<point x="209" y="403"/>
			<point x="310.667" y="403" type="curve" smooth="yes"/>
			<point x="338" y="403"/>
			<point x="353" y="388"/>
			<point x="365.667" y="363" type="curve"/>
			<point x="367.333" y="359.333"/>
			<point x="368.667" y="355"/>
		</contour>
		<contour>
			<point x="379.333" y="296.667" type="line"/>
			<point x="380" y="286"/>
			<point x="380" y="276"/>
			<point x="380" y="266.667" type="curve" smooth="yes"/>
			<point x="380" y="223"/>
			<point x="374.333" y="140.667"/>
			<point x="340.667" y="87" type="curve" smooth="yes"/>
			<point x="319.333" y="52.3333"/>
			<point x="289.333" y="33.3333"/>
			<point x="254.667" y="30" type="curve" smooth="yes"/>
			<point x="249" y="29.3333"/>
			<point x="242.667" y="29"/>
			<point x="237" y="29.6667" type="curve" smooth="yes"/>
			<point x="222.333" y="31.3333"/>
			<point x="205" y="43"/>
			<point x="193" y="69.3333" type="curve"/>
		</contour>
	</outline>
</glyph>
<glyph name="thorn" format="2">
	<unicode hex="00FE"/>
	<advance width="517"/>
	<outline>
		<contour>
			<point x="224.333" y="563" type="curve" smooth="yes"/>
			<point x="213.667" y="517"/>
			<point x="192.333" y="425.667"/>
			<point x="176.667" y="357.333" type="curve"/>
			<point x="132" y="323.333"/>
			<point x="92.3333" y="288"/>
			<point x="67.6667" y="250.333" type="curve"/>
			<point x="73" y="243"/>
			<point x="79.6667" y="232.333"/>
			<point x="89.6667" y="229.667" type="curve"/>
			<point x="110.333" y="258"/>
			<point x="135" y="281.333"/>
			<point x="165" y="305.667" type="curve"/>
			<point x="60.3333" y="-157.667" type="line" smooth="yes"/>
			<point x="54.3333" y="-185.667"/>
			<point x="39.3333" y="-198.333"/>
			<point x="7.33333" y="-203.333" type="curve" smooth="yes"/>
			<point x="-11.6667" y="-206.333" type="line"/>
			<point x="-16.6667" y="-207.333"/>
			<point x="-21.6667" y="-208.333"/>
			<point x="-21.6667" y="-214.333" type="curve" smooth="yes"/>
			<point x="-21.6667" y="-236.667" type="line"/>
			<point x="-19.6667" y="-238.667" type="line"/>
			<point x="-19.6667" y="-238.667"/>
			<point x="49.3333" y="-233.667"/>
			<point x="89" y="-233.333" type="curve" smooth="yes"/>
			<point x="99.6667" y="-233"/>
			<point x="110.333" y="-233"/>
			<point x="120.667" y="-233" type="curve"/>
			<point x="157.667" y="-233.667"/>
			<point x="205.667" y="-235"/>
			<point x="205.667" y="-235" type="curve"/>
			<point x="207.667" y="-233" type="line"/>
			<point x="207.667" y="-209.667" type="line" smooth="yes"/>
			<point x="207.667" y="-204.667"/>
			<point x="205.667" y="-202.667"/>
			<point x="201.667" y="-201.667" type="curve"/>
			<point x="182.667" y="-198.667" type="line" smooth="yes"/>
			<point x="167.667" y="-196.667"/>
			<point x="141.667" y="-191.667"/>
			<point x="149.667" y="-157.667" type="curve" smooth="yes"/>
			<point x="192" y="23" type="line"/>
			<point x="199.667" y="15.3333"/>
			<point x="224" y="-8"/>
			<point x="266" y="-9.66667" type="curve"/>
			<point x="267.667" y="-10"/>
			<point x="269.667" y="-10"/>
			<point x="271.667" y="-10" type="curve" smooth="yes"/>
			<point x="329.333" y="-10"/>
			<point x="382" y="13.3333"/>
			<point x="423.667" y="50.3333" type="curve" smooth="yes"/>
			<point x="497.333" y="115"/>
			<point x="541" y="218.667"/>
			<point x="541" y="289" type="curve" smooth="yes"/>
			<point x="541" y="376.333"/>
			<point x="491" y="439"/>
			<point x="403.667" y="439" type="curve" smooth="yes"/>
			<point x="355.333" y="439"/>
			<point x="316.333" y="425.333"/>
			<point x="279.333" y="404" type="curve"/>
			<point x="291.667" y="461.667"/>
			<point x="307.667" y="531.667"/>
			<point x="318.333" y="580.333" type="curve"/>
			<point x="319" y="583" type="line"/>
			<point x="328.667" y="626.667"/>
			<point x="337.333" y="659"/>
			<point x="339.333" y="675.667" type="curve" smooth="yes"/>
			<point x="340" y="682.667"/>
			<point x="340" y="686.667"/>
			<point x="338.667" y="688.333" type="curve"/>
			<point x="337.667" y="694"/>
			<point x="334.667" y="696.667"/>
			<point x="327.333" y="697.333" type="curve"/>
			<point x="324.333" y="697"/>
			<point x="320.667" y="696.667"/>
			<point name=".hr01" x="316.667" y="696" type="curve" smooth="yes"/>
			<point x="285" y="690"/>
			<point x="213" y="676.333"/>
			<point x="174" y="672" type="curve"/>
			<point x="172" y="664"/>
			<point x="170.667" y="656"/>
			<point x="170" y="648" type="curve"/>
			<point x="170" y="646"/>
			<point x="170" y="643.667"/>
			<point x="171" y="642" type="curve"/>
			<point x="174" y="642"/>
			<point x="176.667" y="641.333"/>
			<point x="180" y="641.333" type="curve"/>
			<point x="190.333" y="640.333"/>
			<point x="201" y="640"/>
			<point x="210" y="638.667" type="curve"/>
			<point x="222.333" y="637.333"/>
			<point x="229.667" y="631.333"/>
			<point x="230.333" y="613" type="curve"/>
			<point x="231.333" y="602"/>
			<point x="229.333" y="585.333"/>
		</contour>
		<contour>
			<point x="443.667" y="273" type="curve" smooth="yes"/>
			<point x="443.667" y="199"/>
			<point x="397.333" y="27.3333"/>
			<point x="277" y="27.3333" type="curve" smooth="yes"/>
			<point x="246.333" y="27.3333"/>
			<point x="220" y="41.3333"/>
			<point x="201.667" y="69.6667" type="curve"/>
			<point x="269" y="361.333" type="line"/>
			<point x="291" y="373.667"/>
			<point x="326" y="388.333"/>
			<point x="363" y="390" type="curve" smooth="yes"/>
			<point x="372" y="390.333"/>
			<point x="379.667" y="390"/>
			<point x="387.667" y="388" type="curve" smooth="yes"/>
			<point x="433" y="377.333"/>
			<point x="443.667" y="317.333"/>
		</contour>
	</outline>
</glyph>
<glyph name="Aogonek" format="2">
	<unicode hex="0104"/>
	<advance width="700"/>
	<outline>
		<contour>
			<point x="678.667" y="-158.333" type="curve"/>
			<point x="665" y="-146" type="line"/>
			<point x="647.333" y="-162.333"/>
			<point x="626.667" y="-172"/>
			<point x="605" y="-174.667" type="curve"/>
			<point x="602.333" y="-175.333"/>
			<point x="599" y="-175.333"/>
			<point x="595.667" y="-175.333" type="curve" smooth="yes"/>
			<point x="568.667" y="-175.333"/>
			<point x="551.333" y="-158.667"/>
			<point x="551.333" y="-130" type="curve" smooth="yes"/>
			<point x="551.333" y="-73.3333"/>
			<point x="610" y="-3"/>
			<point x="682.333" y="-1" type="curve"/>
			<point x="683" y="-1" type="line"/>
			<point x="686.667" y="-0.666667"/>
			<point x="690.333" y="-0.666667"/>
			<point x="693.333" y="0" type="curve"/>
			<point x="695.667" y="5.33333"/>
			<point x="697.333" y="13.6667"/>
			<point x="698.333" y="20.6667" type="curve"/>
			<point x="698.333" y="24.6667"/>
			<point x="695.667" y="28.6667"/>
			<point x="692.333" y="29.3333" type="curve"/>
			<point x="688" y="29.6667"/>
			<point x="684.333" y="29.6667"/>
			<point x="680" y="30" type="curve"/>
			<point x="643" y="31"/>
			<point x="624.333" y="45.3333"/>
			<point x="617" y="86" type="curve" smooth="yes"/>
			<point x="517" y="627.667" type="line" smooth="yes"/>
			<point x="513" y="648.333"/>
			<point x="508" y="657.333"/>
			<point x="496.667" y="660.667" type="curve"/>
			<point x="486.667" y="658.333"/>
			<point x="467" y="645.333"/>
			<point x="446" y="625.333" type="curve"/>
			<point x="442.333" y="624"/>
			<point x="439" y="623.333"/>
			<point x="436" y="623.333" type="curve"/>
			<point x="124.667" y="106" type="line"/>
			<point x="119.333" y="97.6667"/>
			<point x="114.667" y="89.6667"/>
			<point x="109.333" y="81.6667" type="curve" smooth="yes"/>
			<point x="86.6667" y="46"/>
			<point x="64.3333" y="30.6667"/>
			<point x="27" y="29.6667" type="curve"/>
			<point x="19" y="29.6667" type="line" smooth="yes"/>
			<point x="16" y="29.6667"/>
			<point x="13.3333" y="28.6667"/>
			<point x="10.3333" y="28" type="curve"/>
			<point x="9" y="26.6667"/>
			<point x="7.66667" y="24"/>
			<point x="6.33333" y="20.6667" type="curve"/>
			<point x="4.66667" y="13.6667"/>
			<point x="3" y="5.33333"/>
			<point x="3.33333" y="0" type="curve"/>
			<point x="4.66667" y="-1.33333" type="line"/>
			<point x="16.6667" y="-1"/>
			<point x="66" y="0.666667"/>
			<point x="95" y="0.666667" type="curve" smooth="yes"/>
			<point x="124.667" y="0.666667"/>
			<point x="207.667" y="-1"/>
			<point x="219.333" y="-1.33333" type="curve"/>
			<point x="220.667" y="0"/>
			<point x="221.333" y="1.33333"/>
			<point x="222.667" y="3.33333" type="curve"/>
			<point x="224.333" y="10.3333"/>
			<point x="226" y="18.6667"/>
			<point x="225.667" y="24" type="curve"/>
			<point x="225.333" y="27.3333"/>
			<point x="223.333" y="29.3333"/>
			<point x="220.333" y="29.3333" type="curve"/>
			<point x="209.667" y="29.6667"/>
			<point x="199.667" y="30"/>
			<point x="189.333" y="31" type="curve"/>
			<point x="166" y="32"/>
			<point x="152" y="39"/>
			<point x="152.667" y="53.3333" type="curve"/>
			<point x="152.667" y="57.6667"/>
			<point x="154" y="62"/>
			<point x="156.667" y="67" type="curve"/>
			<point x="157.333" y="69.6667"/>
			<point x="158.667" y="72.3333"/>
			<point x="160" y="74.3333" type="curve"/>
			<point x="247.333" y="224" type="line" smooth="yes"/>
			<point x="254.333" y="235.667"/>
			<point x="262" y="241"/>
			<point x="286.333" y="241" type="curve" smooth="yes"/>
			<point x="487" y="241" type="line"/>
			<point x="516.333" y="72" type="line"/>
			<point x="517" y="69.3333"/>
			<point x="517" y="67.3333"/>
			<point x="517" y="64.6667" type="curve"/>
			<point x="518" y="39.3333"/>
			<point x="497" y="30.6667"/>
			<point x="467.667" y="30" type="curve"/>
			<point x="462.333" y="30"/>
			<point x="457.667" y="29.6667"/>
			<point x="452.333" y="29.6667" type="curve" smooth="yes"/>
			<point x="448" y="29.6667"/>
			<point x="444.333" y="29.6667"/>
			<point x="440.333" y="29.6667" type="curve"/>
			<point x="438" y="29.3333"/>
			<point x="435.667" y="28.6667"/>
			<point x="433.333" y="28" type="curve"/>
			<point x="432" y="26.6667"/>
			<point x="430.667" y="24"/>
			<point x="429.333" y="20.6667" type="curve"/>
			<point x="428.333" y="15"/>
			<point x="427.333" y="9"/>
			<point x="426.667" y="3.33333" type="curve"/>
			<point x="426.667" y="2"/>
			<point x="426.667" y="0"/>
			<point x="428" y="-0.666667" type="curve"/>
			<point x="428" y="-1.33333" type="line"/>
			<point x="440" y="-1"/>
			<point x="535.667" y="0.666667"/>
			<point x="572" y="0.666667" type="curve" smooth="yes"/>
			<point x="593.667" y="0.666667" type="line"/>
			<point x="536.333" y="-28"/>
			<point x="489.333" y="-79.6667"/>
			<point x="481.333" y="-127.333" type="curve"/>
			<point x="479.333" y="-135"/>
			<point x="478.667" y="-143"/>
			<point x="479" y="-150.333" type="curve" smooth="yes"/>
			<point x="480.667" y="-178.667"/>
			<point x="494" y="-198"/>
			<point x="514.333" y="-209.333" type="curve"/>
			<point x="526" y="-216.333"/>
			<point x="540.667" y="-220"/>
			<point x="557" y="-221" type="curve" smooth="yes"/>
			<point x="561.333" y="-221.333"/>
			<point x="565.333" y="-221.333"/>
			<point x="569.667" y="-220.667" type="curve"/>
			<point x="606" y="-218"/>
			<point x="651.333" y="-198.333"/>
		</contour>
		<contour>
			<point x="311.667" y="283" type="line" smooth="yes"/>
			<point x="293.333" y="283"/>
			<point x="286.333" y="286.667"/>
			<point x="288.333" y="293.333" type="curve"/>
			<point x="290" y="298.333"/>
			<point x="292.667" y="303"/>
			<point x="295.667" y="308.667" type="curve"/>
			<point x="420" y="519.333" type="line"/>
			<point x="434" y="540" type="line"/>
			<point x="479" y="283" type="line"/>
		</contour>
	</outline>
</glyph>
<glyph name="dcroat" format="2">
	<unicode hex="0111"/>
	<advance width="513"/>
	<outline>
		<component base="d"/>
		<contour>
			<point x="601.667" y="572" type="line"/>
			<point x="327.667" y="572" type="line"/>
			<point x="318.667" y="533" type="line"/>
			<point x="592.667" y="533" type="line"/>
		</contour>
	</outline>
</glyph>
<glyph name="eogonek" format="2">
	<unicode hex="0119"/>
	<advance width="404"/>
	<outline>
		<contour>
			<point x="345" y="-125.667" type="curve"/>
			<point x="343" y="-119.667"/>
			<point x="335.667" y="-112.333"/>
			<point x="328.667" y="-110.667" type="curve"/>
			<point x="306.333" y="-130.333"/>
			<point x="285.667" y="-142"/>
			<point x="260.667" y="-142" type="curve" smooth="yes"/>
			<point x="230" y="-142"/>
			<point x="218.333" y="-124.333"/>
			<point x="221.667" y="-100" type="curve"/>
			<point x="226.333" y="-55.6667"/>
			<point x="252" y="-24.3333"/>
			<point x="295.333" y="11" type="curve"/>
			<point x="331.667" y="28.3333"/>
			<point x="366.333" y="57.6667"/>
			<point x="399.667" y="100.333" type="curve"/>
			<point x="394.667" y="111.333"/>
			<point x="385.667" y="119.333"/>
			<point x="373.667" y="119.333" type="curve"/>
			<point x="316.667" y="61.3333"/>
			<point x="291" y="50"/>
			<point x="243" y="50" type="curve" smooth="yes"/>
			<point x="200" y="50"/>
			<point name=".hr01" x="174.667" y="82"/>
			<point x="174.667" y="165" type="curve" smooth="yes"/>
			<point x="174.667" y="170"/>
			<point x="174.667" y="191"/>
			<point x="175.667" y="199" type="curve"/>
			<point x="389" y="241.333"/>
			<point x="413" y="301.667"/>
			<point x="424.333" y="338" type="curve"/>
			<point x="434.667" y="348.333"/>
			<point x="434.667" y="359.667"/>
			<point x="434.667" y="366.333" type="curve" smooth="yes"/>
			<point x="434.667" y="394.667"/>
			<point x="405.667" y="439"/>
			<point x="330.667" y="439" type="curve" smooth="yes"/>
			<point x="150" y="439"/>
			<point x="76.3333" y="269"/>
			<point x="76.3333" y="142" type="curve" smooth="yes"/>
			<point x="76.3333" y="57"/>
			<point x="111.667" y="-10"/>
			<point x="207" y="-10" type="curve" smooth="yes"/>
			<point x="211" y="-10"/>
			<point x="215" y="-9.66667"/>
			<point x="219" y="-9.66667" type="curve"/>
			<point x="181" y="-40.6667"/>
			<point x="152.333" y="-74"/>
			<point name=".hr02" x="148.333" y="-109.333" type="curve" smooth="yes"/>
			<point x="141" y="-163.667"/>
			<point x="176.667" y="-187.333"/>
			<point x="226.667" y="-187.333" type="curve" smooth="yes"/>
			<point x="267" y="-187.333"/>
			<point x="311" y="-167.667"/>
		</contour>
		<contour>
			<point x="351" y="370" type="curve" smooth="yes"/>
			<point x="351" y="280"/>
			<point x="251" y="246.667"/>
			<point x="182.667" y="237" type="curve"/>
			<point x="217.333" y="378.667"/>
			<point x="266.667" y="404.667"/>
			<point x="307.667" y="404.667" type="curve" smooth="yes"/>
			<point x="338.667" y="404.667"/>
			<point x="351" y="396"/>
		</contour>
	</outline>
</glyph>
<glyph name="hcircumflex" format="2">
	<unicode hex="0125"/>
	<advance width="553"/>
	<outline>
		<contour>
			<point x="192.667" y="72" type="curve" smooth="yes"/>
			<point x="229.667" y="236" type="line"/>
			<point x="285.667" y="308.667"/>
			<point x="339" y="363"/>
			<point x="375.333" y="373" type="curve"/>
			<point x="380" y="375"/>
			<point x="384" y="375.667"/>
			<point x="388" y="375.667" type="curve" smooth="yes"/>
			<point x="409" y="375.667"/>
			<point x="423" y="370"/>
			<point x="423" y="339" type="curve" smooth="yes"/>
			<point x="423" y="325"/>
			<point x="421.333" y="309"/>
			<point x="413.333" y="275" type="curve" smooth="yes"/>
			<point x="375.667" y="115" type="line" smooth="yes"/>
			<point x="367.667" y="83"/>
			<point x="360" y="41.6667"/>
			<point x="362" y="23" type="curve"/>
			<point x="364.667" y="3.66667"/>
			<point x="375.667" y="-10"/>
			<point x="405.667" y="-10" type="curve" smooth="yes"/>
			<point x="461" y="-10"/>
			<point x="514" y="23.6667"/>
			<point x="560" y="82.6667" type="curve"/>
			<point x="557" y="91.6667"/>
			<point x="549" y="103.333"/>
			<point x="535" y="103.333" type="curve"/>
			<point x="509" y="73.3333"/>
			<point x="478.333" y="54.3333"/>
			<point x="468.333" y="54.3333" type="curve" smooth="yes"/>
			<point x="461" y="54.3333"/>
			<point x="458" y="60.6667"/>
			<point x="458" y="72.6667" type="curve"/>
			<point x="458.333" y="82.6667"/>
			<point x="462.667" y="102.333"/>
			<point x="467.667" y="124" type="curve" smooth="yes"/>
			<point x="505.667" y="283" type="line" smooth="yes"/>
			<point x="513.667" y="318"/>
			<point x="518.667" y="341"/>
			<point x="518.667" y="359" type="curve" smooth="yes"/>
			<point x="518.667" y="416.667"/>
			<point x="488" y="437"/>
			<point x="450" y="438.667" type="curve"/>
			<point x="446.333" y="439"/>
			<point x="442" y="439"/>
			<point x="438.333" y="439" type="curve"/>
			<point x="388.667" y="437"/>
			<point x="333.333" y="413.667"/>
			<point x="246.667" y="314" type="curve"/>
			<point x="306.667" y="583" type="line" smooth="yes"/>
			<point x="315" y="618.667"/>
			<point x="322.333" y="647.667"/>
			<point x="325" y="666.333" type="curve" smooth="yes"/>
			<point x="327" y="679.333"/>
			<point x="327.667" y="686.667"/>
			<point x="326.333" y="688.333" type="curve"/>
			<point x="325.333" y="694"/>
			<point x="322.333" y="696.667"/>
			<point x="315" y="697.333" type="curve"/>
			<point x="312" y="697"/>
			<point x="307.667" y="696.667"/>
			<point name=".hr01" x="303" y="696" type="curve"/>
			<point x="271.333" y="689.333"/>
			<point x="200" y="676.333"/>
			<point x="161.667" y="672" type="curve"/>
			<point x="159.667" y="664"/>
			<point x="158.333" y="656"/>
			<point x="157.667" y="648" type="curve"/>
			<point x="157.667" y="646"/>
			<point x="157.667" y="643.667"/>
			<point x="158.667" y="642" type="curve"/>
			<point x="162" y="642"/>
			<point x="165" y="641.333"/>
			<point x="168.333" y="641.333" type="curve"/>
			<point x="179.333" y="640.333"/>
			<point x="190" y="640"/>
			<point x="199" y="638" type="curve"/>
			<point x="211.333" y="636.667"/>
			<point x="218.333" y="629.667"/>
			<point x="218.667" y="610" type="curve"/>
			<point x="218.667" y="599.333"/>
			<point x="216.667" y="583.333"/>
			<point x="212" y="563" type="curve" smooth="yes"/>
			<point x="102.667" y="72" type="line" smooth="yes"/>
			<point x="97.6667" y="50.6667"/>
			<point x="89.6667" y="27"/>
			<point x="89.6667" y="17" type="curve" smooth="yes"/>
			<point x="89.6667" y="2"/>
			<point x="97.6667" y="-8.33333"/>
			<point x="129.667" y="-9.66667" type="curve"/>
			<point x="132" y="-10"/>
			<point x="135.333" y="-10"/>
			<point x="139" y="-10" type="curve" smooth="yes"/>
			<point x="184.667" y="-10"/>
			<point x="183.667" y="33.6667"/>
		</contour>
		<contour>
			<point x="548.667" y="733.333" type="curve"/>
			<point x="516" y="760"/>
			<point x="480.333" y="796.333"/>
			<point x="456" y="832.667" type="curve"/>
			<point x="422.333" y="831" type="line"/>
			<point x="383.667" y="796.667"/>
			<point x="338.333" y="761.333"/>
			<point x="294.333" y="733.667" type="curve"/>
			<point x="296" y="725.667"/>
			<point x="299" y="716.667"/>
			<point x="303.667" y="710.667" type="curve"/>
			<point x="344.667" y="725.667"/>
			<point x="388.333" y="745.333"/>
			<point x="428" y="770.667" type="curve"/>
			<point x="454" y="747"/>
			<point x="492.333" y="726.667"/>
			<point x="528" y="710.667" type="curve"/>
			<point x="536" y="716.667"/>
			<point x="543.667" y="725.333"/>
		</contour>
	</outline>
</glyph>
<glyph name="Iogonek" format="2">
	<unicode hex="012E"/>
	<advance width="304"/>
	<outline>
		<contour>
			<point x="294.667" y="-165" type="curve"/>
			<point x="279.667" y="-152" type="line"/>
			<point x="264" y="-169"/>
			<point x="244.667" y="-178.667"/>
			<point x="223.667" y="-181.333" type="curve"/>
			<point x="221" y="-182"/>
			<point x="217.667" y="-182"/>
			<point x="214.333" y="-182" type="curve" smooth="yes"/>
			<point x="191.333" y="-182"/>
			<point x="173.333" y="-169.333"/>
			<point x="167.333" y="-146" type="curve"/>
			<point x="165.333" y="-140.667"/>
			<point x="164" y="-134.667"/>
			<point x="164" y="-128.667" type="curve" smooth="yes"/>
			<point x="164" y="-75.6667"/>
			<point x="210.333" y="-9.33333"/>
			<point x="274.667" y="-1.66667" type="curve"/>
			<point x="280" y="-1.66667" type="line"/>
			<point x="280" y="-1.66667"/>
			<point x="280" y="-1"/>
			<point x="280.667" y="-1" type="curve"/>
			<point x="284" y="-1" type="line"/>
			<point x="285.667" y="0"/>
			<point x="286.333" y="0.666667"/>
			<point x="287.667" y="2" type="curve"/>
			<point x="292.667" y="8.66667"/>
			<point x="294.333" y="24"/>
			<point x="290.333" y="28.6667" type="curve"/>
			<point x="277.667" y="29.6667"/>
			<point x="265.333" y="30.6667"/>
			<point x="254.667" y="32.3333" type="curve"/>
			<point x="222.667" y="36"/>
			<point x="212" y="48.6667"/>
			<point x="216" y="77.6667" type="curve" smooth="yes"/>
			<point x="218.667" y="94"/>
			<point x="222" y="111.667"/>
			<point x="225" y="130" type="curve"/>
			<point x="304.333" y="534.333" type="line" smooth="yes"/>
			<point x="306.333" y="543.667"/>
			<point x="308" y="552.333"/>
			<point x="310" y="561.333" type="curve" smooth="yes"/>
			<point x="318.333" y="595.667"/>
			<point x="335" y="609.333"/>
			<point x="372.333" y="613.333" type="curve"/>
			<point x="382" y="614.667"/>
			<point x="392.333" y="615.333"/>
			<point x="402.667" y="616.333" type="curve"/>
			<point x="409" y="621"/>
			<point x="411.667" y="639"/>
			<point x="406.333" y="647" type="curve"/>
			<point x="364.667" y="646"/>
			<point x="321" y="645"/>
			<point x="281.667" y="645" type="curve" smooth="yes"/>
			<point x="277.667" y="645" type="line" smooth="yes"/>
			<point x="239.667" y="645"/>
			<point x="185.667" y="646"/>
			<point x="143.667" y="647" type="curve"/>
			<point x="138" y="642.333"/>
			<point x="134.667" y="621.667"/>
			<point x="139.333" y="616.333" type="curve"/>
			<point x="153.667" y="615.333"/>
			<point x="167.333" y="614"/>
			<point x="178.333" y="611.333" type="curve"/>
			<point x="208.333" y="607"/>
			<point x="217.667" y="594.667"/>
			<point x="214" y="567.333" type="curve"/>
			<point x="211.333" y="551"/>
			<point x="208" y="533.333"/>
			<point x="205" y="515" type="curve"/>
			<point x="125.667" y="110.667" type="line" smooth="yes"/>
			<point x="123.333" y="98.3333"/>
			<point x="120.667" y="88"/>
			<point x="118" y="77.6667" type="curve" smooth="yes"/>
			<point x="109.667" y="48"/>
			<point x="93.6667" y="35.3333"/>
			<point x="57.6667" y="31.6667" type="curve"/>
			<point x="48" y="30.3333"/>
			<point x="37.6667" y="29.6667"/>
			<point x="27.3333" y="28.6667" type="curve"/>
			<point x="21" y="24"/>
			<point x="18.3333" y="6"/>
			<point x="23.6667" y="-2" type="curve"/>
			<point x="65.3333" y="-1"/>
			<point x="109.667" y="0"/>
			<point x="149" y="0" type="curve" smooth="yes"/>
			<point x="153" y="0" type="line"/>
			<point x="195.333" y="0" type="line"/>
			<point x="140.333" y="-30"/>
			<point x="97.3333" y="-85"/>
			<point x="94" y="-132" type="curve"/>
			<point x="93.3333" y="-134.667"/>
			<point x="93.3333" y="-136.667"/>
			<point x="93.3333" y="-139.333" type="curve" smooth="yes"/>
			<point x="93.3333" y="-178"/>
			<point x="112" y="-203.667"/>
			<point x="139.667" y="-217.333" type="curve" smooth="yes"/>
			<point x="151.333" y="-223"/>
			<point x="165.333" y="-226.667"/>
			<point x="180.333" y="-227.667" type="curve" smooth="yes"/>
			<point x="184.667" y="-228"/>
			<point x="188" y="-228"/>
			<point x="192.333" y="-227.333" type="curve"/>
			<point x="228.667" y="-225.333"/>
			<point x="271.333" y="-205"/>
		</contour>
	</outline>
</glyph>
<glyph name="ij" format="2">
	<unicode hex="0133"/>
	<advance width="544"/>
	<outline>
		<contour>
			<point x="177.333" y="321" type="curve" smooth="yes"/>
			<point x="138.667" y="152.667" type="line" smooth="yes"/>
			<point x="135.333" y="138.333"/>
			<point x="132.667" y="125"/>
			<point x="130.333" y="112.667" type="curve" smooth="yes"/>
			<point x="128" y="99.3333"/>
			<point x="126.667" y="87.3333"/>
			<point x="126" y="77" type="curve"/>
			<point x="126" y="73"/>
			<point x="126" y="69.3333"/>
			<point x="126" y="65.3333" type="curve"/>
			<point x="128" y="14"/>
			<point x="162" y="-7"/>
			<point x="201" y="-8.33333" type="curve"/>
			<point x="202.333" y="-8.66667"/>
			<point x="203.667" y="-8.66667"/>
			<point x="205" y="-8.66667" type="curve" smooth="yes"/>
			<point x="274.333" y="-8.66667"/>
			<point x="326.667" y="45.3333"/>
			<point x="402" y="146.333" type="curve"/>
			<point x="385.333" y="64.6667"/>
			<point x="377" y="7.66667"/>
			<point x="360.333" y="-56" type="curve" smooth="yes"/>
			<point x="339.667" y="-136"/>
			<point x="315" y="-161.333"/>
			<point x="294.333" y="-163.333" type="curve"/>
			<point x="291.667" y="-164"/>
			<point x="289" y="-163.667"/>
			<point x="286.667" y="-163" type="curve"/>
			<point x="260.667" y="-159"/>
			<point x="265.333" y="-111"/>
			<point x="213" y="-111" type="curve" smooth="yes"/>
			<point x="198.333" y="-111"/>
			<point x="180.667" y="-122.667"/>
			<point x="180.667" y="-146.667" type="curve" smooth="yes"/>
			<point x="180.667" y="-182.333"/>
			<point x="220" y="-198.667"/>
			<point x="266.667" y="-199.667" type="curve"/>
			<point x="270.333" y="-199.667"/>
			<point x="275" y="-199.667"/>
			<point x="278.667" y="-199.667" type="curve"/>
			<point x="413.667" y="-193"/>
			<point x="461.333" y="-4.66667"/>
			<point x="512" y="234.333" type="curve"/>
			<point x="529.333" y="320" type="line" smooth="yes"/>
			<point x="538" y="360"/>
			<point x="549.667" y="400.667"/>
			<point x="549.667" y="415" type="curve" smooth="yes"/>
			<point x="549.667" y="429"/>
			<point x="541.667" y="436"/>
			<point x="528.667" y="436" type="curve" smooth="yes"/>
			<point x="496.667" y="436"/>
			<point x="435.667" y="429.667"/>
			<point x="388.667" y="423" type="curve"/>
			<point x="381.667" y="415"/>
			<point x="382.667" y="400.667"/>
			<point x="388.667" y="391.667" type="curve"/>
			<point x="428.667" y="388.667" type="line" smooth="yes"/>
			<point x="440.667" y="387.667"/>
			<point x="446.667" y="378.667"/>
			<point x="446.667" y="368.667" type="curve" smooth="yes"/>
			<point x="446.667" y="359.667"/>
			<point x="445.333" y="349"/>
			<point x="439.333" y="321" type="curve" smooth="yes"/>
			<point x="425.333" y="257.333" type="line"/>
			<point x="415.333" y="236.667"/>
			<point x="406.333" y="216.667"/>
			<point x="396.333" y="197.333" type="curve"/>
			<point x="343.333" y="117"/>
			<point x="300.333" y="58.6667"/>
			<point x="262.667" y="54" type="curve"/>
			<point x="261.333" y="53.3333"/>
			<point x="259.333" y="53.3333"/>
			<point x="258" y="53.3333" type="curve" smooth="yes"/>
			<point x="228" y="53.3333"/>
			<point x="213.667" y="73"/>
			<point x="223.333" y="125.333" type="curve" smooth="yes"/>
			<point x="225.667" y="137.333"/>
			<point x="228.333" y="149.333"/>
			<point x="231" y="161.333" type="curve" smooth="yes"/>
			<point x="267.333" y="320" type="line" smooth="yes"/>
			<point x="276.333" y="359"/>
			<point x="288.333" y="398"/>
			<point x="288.333" y="415" type="curve" smooth="yes"/>
			<point x="288.333" y="429"/>
			<point x="280.333" y="436"/>
			<point x="267.333" y="436" type="curve" smooth="yes"/>
			<point x="235.333" y="436"/>
			<point x="174.333" y="429"/>
			<point x="127.333" y="423" type="curve"/>
			<point x="120.333" y="415"/>
			<point x="121.333" y="400.667"/>
			<point x="127.333" y="391.667" type="curve"/>
			<point x="167.333" y="388.667" type="line" smooth="yes"/>
			<point x="179.333" y="387.667"/>
			<point x="185.333" y="378.667"/>
			<point x="185.333" y="368.667" type="curve" smooth="yes"/>
			<point x="185.333" y="367"/>
			<point x="185.333" y="365"/>
			<point x="184.667" y="362.667" type="curve"/>
			<point x="184" y="354"/>
			<point x="182.667" y="343.667"/>
		</contour>
		<contour>
			<point x="214" y="578.667" type="curve" smooth="yes"/>
			<point x="214" y="550.333"/>
			<point x="236.667" y="524.667"/>
			<point x="267.333" y="524.667" type="curve" smooth="yes"/>
			<point x="299.667" y="524.667"/>
			<point x="323" y="551.333"/>
			<point x="323" y="577.333" type="curve" smooth="yes"/>
			<point x="323" y="604.667"/>
			<point x="300.667" y="631.333"/>
			<point x="269.333" y="631.333" type="curve" smooth="yes"/>
			<point x="236.333" y="631.333"/>
			<point x="214" y="606"/>
		</contour>
		<contour>
			<point x="469.667" y="578.667" type="curve" smooth="yes"/>
			<point x="469.667" y="550.333"/>
			<point x="492.333" y="524.667"/>
			<point x="523" y="524.667" type="curve" smooth="yes"/>
			<point x="555.333" y="524.667"/>
			<point x="578.667" y="551.333"/>
			<point x="578.667" y="577.333" type="curve" smooth="yes"/>
			<point x="578.667" y="604.667"/>
			<point x="556.333" y="631.333"/>
			<point x="525" y="631.333" type="curve" smooth="yes"/>
			<point x="492" y="631.333"/>
			<point x="469.667" y="606"/>
		</contour>
	</outline>
</glyph>
<glyph name="jcircumflex" format="2">
	<unicode hex="0135"/>
	<advance width="283"/>
	<outline>
		<contour>
			<point x="143.667" y="176" type="line" smooth="yes"/>
			<point x="123" y="78.6667"/>
			<point x="114" y="16"/>
			<point x="96" y="-56" type="curve" smooth="yes"/>
			<point x="74" y="-142"/>
			<point x="46" y="-164"/>
			<point x="26" y="-164" type="curve" smooth="yes"/>
			<point x="-4.33333" y="-164"/>
			<point x="3.33333" y="-111"/>
			<point x="-51.3333" y="-111" type="curve" smooth="yes"/>
			<point x="-66" y="-111"/>
			<point x="-83.6667" y="-122.667"/>
			<point x="-83.6667" y="-146.667" type="curve" smooth="yes"/>
			<point x="-83.6667" y="-183.667"/>
			<point x="-41.3333" y="-199.667"/>
			<point x="7.66667" y="-199.667" type="curve" smooth="yes"/>
			<point x="147.333" y="-199.667"/>
			<point x="196.333" y="-8.66667"/>
			<point x="247.667" y="234.333" type="curve" smooth="yes"/>
			<point x="265" y="320" type="line" smooth="yes"/>
			<point x="273.667" y="360"/>
			<point x="285.333" y="400.667"/>
			<point x="285.333" y="415" type="curve" smooth="yes"/>
			<point x="285.333" y="429"/>
			<point x="277.333" y="436"/>
			<point x="264.333" y="436" type="curve" smooth="yes"/>
			<point x="232.333" y="436"/>
			<point x="171.333" y="429.667"/>
			<point x="124.333" y="423" type="curve"/>
			<point x="117.333" y="415"/>
			<point x="118.333" y="400.667"/>
			<point x="124.333" y="391.667" type="curve"/>
			<point x="164.333" y="388.667" type="line" smooth="yes"/>
			<point x="176.333" y="387.667"/>
			<point x="182.333" y="378.667"/>
			<point x="182.333" y="368.667" type="curve" smooth="yes"/>
			<point x="182.333" y="359.667"/>
			<point x="181" y="349"/>
			<point x="175" y="321" type="curve" smooth="yes"/>
		</contour>
		<contour>
			<point x="284.667" y="650.333" type="curve"/>
			<point x="234" y="650.333" type="line"/>
			<point x="196.333" y="603.667"/>
			<point x="149.667" y="560"/>
			<point x="106.333" y="519.667" type="curve"/>
			<point x="125" y="504" type="line"/>
			<point x="168.333" y="530.667"/>
			<point x="203" y="553.333"/>
			<point x="247.667" y="591.667" type="curve"/>
			<point x="275.667" y="555.333"/>
			<point x="303" y="532"/>
			<point x="338" y="504" type="curve"/>
			<point x="363.333" y="519.667" type="line"/>
			<point x="334.333" y="560"/>
			<point x="305" y="602.667"/>
		</contour>
	</outline>
</glyph>
<glyph name="uni0137" format="2">
	<unicode hex="0137"/>
	<advance width="511"/>
	<outline>
		<contour>
			<point x="182.333" y="72" type="curve" smooth="yes"/>
			<point x="218.333" y="234.667" type="line"/>
			<point x="225.333" y="237"/>
			<point x="231.667" y="237"/>
			<point x="237.667" y="237" type="curve" smooth="yes"/>
			<point x="245.667" y="237"/>
			<point x="252.667" y="230"/>
			<point x="257.667" y="221" type="curve" smooth="yes"/>
			<point x="275.667" y="189"/>
			<point x="284.667" y="138"/>
			<point x="304.667" y="93" type="curve" smooth="yes"/>
			<point x="335.667" y="25"/>
			<point x="360" y="-6.66667"/>
			<point x="397" y="-9.33333" type="curve"/>
			<point x="400.333" y="-10"/>
			<point x="404.333" y="-10"/>
			<point x="407.667" y="-10" type="curve"/>
			<point x="446" y="-8.66667"/>
			<point x="486" y="21"/>
			<point x="516.667" y="77" type="curve"/>
			<point x="509.667" y="85"/>
			<point x="503" y="91.3333"/>
			<point x="492" y="91.3333" type="curve"/>
			<point x="472" y="62.3333"/>
			<point x="451.333" y="45.3333"/>
			<point x="440.333" y="45.3333" type="curve" smooth="yes"/>
			<point x="423.667" y="45.3333"/>
			<point x="416.333" y="58.6667"/>
			<point x="409.333" y="75.3333" type="curve"/>
			<point x="408" y="78"/>
			<point x="406.667" y="80.6667"/>
			<point x="405.333" y="83.3333" type="curve"/>
			<point x="384" y="132"/>
			<point x="372.333" y="164"/>
			<point x="360.333" y="191.333" type="curve"/>
			<point x="356.667" y="197.667"/>
			<point x="354" y="204.333"/>
			<point x="350.333" y="210.333" type="curve"/>
			<point x="335.333" y="237"/>
			<point x="326.333" y="251.333"/>
			<point x="296.333" y="259.333" type="curve"/>
			<point x="296" y="263.333" type="line"/>
			<point x="341" y="303.333" type="line" smooth="yes"/>
			<point x="350.667" y="312"/>
			<point x="359.667" y="319.333"/>
			<point x="368" y="326.667" type="curve"/>
			<point x="399.333" y="352.667"/>
			<point x="420" y="362.333"/>
			<point x="437.333" y="362.333" type="curve" smooth="yes"/>
			<point x="448" y="362.333"/>
			<point x="454" y="359"/>
			<point x="459.667" y="354" type="curve"/>
			<point x="468" y="348"/>
			<point name=".hr01" x="477.667" y="339.333"/>
			<point x="496.667" y="339.333" type="curve" smooth="yes"/>
			<point x="515.333" y="339.333"/>
			<point x="538.667" y="360"/>
			<point x="544" y="386.667" type="curve"/>
			<point x="544.667" y="390.667"/>
			<point x="545.333" y="395.333"/>
			<point x="545" y="399.667" type="curve" smooth="yes"/>
			<point x="543.333" y="426.333"/>
			<point x="521.667" y="439"/>
			<point x="491" y="439" type="curve" smooth="yes"/>
			<point x="459" y="439"/>
			<point x="394.667" y="401"/>
			<point x="322.667" y="337" type="curve"/>
			<point x="288" y="307.667" type="line"/>
			<point x="285" y="305.333"/>
			<point x="282.667" y="302.667"/>
			<point x="279.667" y="300.333" type="curve"/>
			<point x="264" y="287"/>
			<point x="245" y="273"/>
			<point x="226.333" y="272.333" type="curve"/>
			<point x="297" y="583" type="line" smooth="yes"/>
			<point x="306" y="622.667"/>
			<point x="314" y="654.333"/>
			<point x="316.667" y="671.667" type="curve" smooth="yes"/>
			<point x="318" y="681.333"/>
			<point x="318" y="686.667"/>
			<point x="316.667" y="688.333" type="curve"/>
			<point x="315.667" y="694"/>
			<point x="312.667" y="696.667"/>
			<point x="305.333" y="697.333" type="curve"/>
			<point x="303" y="697"/>
			<point x="299.333" y="696.667"/>
			<point name=".hr02" x="295.333" y="696" type="curve" smooth="yes"/>
			<point x="263.667" y="690"/>
			<point x="191" y="676.333"/>
			<point x="152" y="672" type="curve"/>
			<point x="150" y="664"/>
			<point x="148.667" y="656"/>
			<point x="148" y="648" type="curve"/>
			<point x="148" y="646"/>
			<point x="148" y="643.667"/>
			<point x="149" y="642" type="curve"/>
			<point x="151.667" y="642"/>
			<point x="154.333" y="641.333"/>
			<point x="157.333" y="641.333" type="curve"/>
			<point x="169.333" y="640.333"/>
			<point x="180.667" y="640"/>
			<point x="190" y="637.667" type="curve"/>
			<point x="201.333" y="636.333"/>
			<point x="208.333" y="630.333"/>
			<point x="208.667" y="612" type="curve"/>
			<point x="209.333" y="601"/>
			<point x="207.333" y="584.667"/>
			<point x="202.333" y="563" type="curve" smooth="yes"/>
			<point x="92.3333" y="72" type="line" smooth="yes"/>
			<point x="87.3333" y="50.6667"/>
			<point x="79.3333" y="27"/>
			<point x="79.3333" y="17" type="curve" smooth="yes"/>
			<point x="79.3333" y="2"/>
			<point x="87.6667" y="-8.66667"/>
			<point x="120.667" y="-9.66667" type="curve"/>
			<point x="123" y="-10"/>
			<point x="125.667" y="-10"/>
			<point x="128.667" y="-10" type="curve" smooth="yes"/>
			<point x="174.333" y="-10"/>
			<point x="174" y="34.3333"/>
		</contour>
		<contour>
			<point x="268.667" y="-39.3333" type="curve" smooth="yes"/>
			<point x="241.667" y="-39.3333"/>
			<point x="214.667" y="-59"/>
			<point x="210.667" y="-80.6667" type="curve" smooth="yes"/>
			<point x="206.667" y="-102.333"/>
			<point x="217.667" y="-114"/>
			<point x="233.667" y="-119" type="curve"/>
			<point x="237.333" y="-120.333"/>
			<point x="240.333" y="-121.333"/>
			<point x="243.333" y="-122" type="curve"/>
			<point x="256.333" y="-124"/>
			<point x="269" y="-127"/>
			<point x="268.667" y="-140.667" type="curve"/>
			<point x="268.667" y="-142.667"/>
			<point x="268.667" y="-144.667"/>
			<point x="268" y="-146.667" type="curve"/>
			<point x="264.667" y="-164.667"/>
			<point x="234.333" y="-188.667"/>
			<point x="186.667" y="-199.667" type="curve"/>
			<point x="183.333" y="-209.667"/>
			<point x="183" y="-219"/>
			<point x="189.333" y="-225" type="curve"/>
			<point x="251" y="-215.333"/>
			<point x="306" y="-182.667"/>
			<point x="318" y="-125" type="curve"/>
			<point x="318.667" y="-122.333"/>
			<point x="319" y="-118.667"/>
			<point x="319.667" y="-116" type="curve"/>
			<point x="327.333" y="-64.3333"/>
			<point x="302.667" y="-39.3333"/>
		</contour>
	</outline>
</glyph>
<glyph name="kgreenlandic" format="2">
	<unicode hex="0138"/>
	<advance width="524"/>
	<outline>
		<contour>
			<point x="445" y="363.333" type="curve" smooth="yes"/>
			<point x="457.667" y="363.333"/>
			<point x="464" y="358.333"/>
			<point x="470.333" y="352.667" type="curve"/>
			<point x="478.333" y="347"/>
			<point name=".hr01" x="490" y="342.333"/>
			<point x="507" y="342.333" type="curve" smooth="yes"/>
			<point x="525" y="342.333"/>
			<point x="546.667" y="358.667"/>
			<point x="553.333" y="382" type="curve"/>
			<point x="555.333" y="388"/>
			<point x="556.333" y="394.667"/>
			<point x="555.667" y="402" type="curve" smooth="yes"/>
			<point x="553.333" y="427.667"/>
			<point x="531.667" y="439"/>
			<point x="502.333" y="439" type="curve" smooth="yes"/>
			<point x="464.333" y="439"/>
			<point x="406.667" y="403"/>
			<point x="342" y="337" type="curve" smooth="yes"/>
			<point x="294.667" y="289" type="line" smooth="yes"/>
			<point x="287.667" y="282"/>
			<point x="281.333" y="275.667"/>
			<point x="273.667" y="269.333" type="curve"/>
			<point x="260.667" y="256.667"/>
			<point x="247.667" y="245"/>
			<point x="229.333" y="244.667" type="curve"/>
			<point x="234.333" y="266.667"/>
			<point x="239.667" y="289"/>
			<point x="244.333" y="311" type="curve" smooth="yes"/>
			<point x="245.667" y="317" type="line" smooth="yes"/>
			<point x="254.667" y="357"/>
			<point x="267.667" y="398"/>
			<point x="267.667" y="415" type="curve" smooth="yes"/>
			<point x="267.667" y="429"/>
			<point name=".hr02" x="259.667" y="436"/>
			<point x="246.667" y="436" type="curve" smooth="yes"/>
			<point x="214.667" y="436"/>
			<point x="153.333" y="429"/>
			<point x="106.333" y="423" type="curve"/>
			<point x="99.3333" y="415"/>
			<point x="100.333" y="400.667"/>
			<point x="106.333" y="391.667" type="curve"/>
			<point x="146.333" y="388.667" type="line" smooth="yes"/>
			<point x="158.333" y="387.667"/>
			<point x="164.333" y="378.667"/>
			<point x="164.333" y="368.667" type="curve" smooth="yes"/>
			<point x="164.333" y="359.667"/>
			<point x="162" y="347.667"/>
			<point x="156.333" y="321.667" type="curve" smooth="yes"/>
			<point x="101" y="72" type="line" smooth="yes"/>
			<point x="96.3333" y="52"/>
			<point x="88" y="27"/>
			<point x="88" y="17" type="curve" smooth="yes"/>
			<point x="88" y="1.66667"/>
			<point x="96.6667" y="-9"/>
			<point x="131" y="-9.66667" type="curve"/>
			<point x="135" y="-10"/>
			<point x="139.667" y="-10"/>
			<point x="143.333" y="-9.33333" type="curve"/>
			<point x="181.333" y="-4.66667"/>
			<point x="182.667" y="34"/>
			<point x="190.333" y="68.6667" type="curve"/>
			<point x="191.333" y="71.6667"/>
			<point x="191.333" y="75"/>
			<point x="192.333" y="78.6667" type="curve"/>
			<point x="200.333" y="114.333"/>
			<point x="208.333" y="150"/>
			<point x="216.333" y="186" type="curve"/>
			<point x="222" y="196"/>
			<point x="223.333" y="204.667"/>
			<point x="232.667" y="208" type="curve"/>
			<point x="244" y="208"/>
			<point x="254.333" y="202.333"/>
			<point x="258.667" y="196" type="curve"/>
			<point x="260.667" y="193.333"/>
			<point x="262" y="190.333"/>
			<point x="264" y="187.333" type="curve"/>
			<point x="282.667" y="156"/>
			<point x="295.333" y="127.333"/>
			<point x="314.667" y="91.6667" type="curve" smooth="yes"/>
			<point x="319.667" y="82.3333"/>
			<point x="324.333" y="73.6667"/>
			<point x="329.333" y="65" type="curve" smooth="yes"/>
			<point x="358.333" y="13"/>
			<point x="372" y="-8"/>
			<point x="401" y="-10" type="curve"/>
			<point x="404" y="-10"/>
			<point x="406.333" y="-10"/>
			<point x="409.667" y="-10" type="curve"/>
			<point x="457" y="-9"/>
			<point x="498" y="18.6667"/>
			<point x="522.667" y="67" type="curve"/>
			<point x="515.667" y="75"/>
			<point x="507" y="82"/>
			<point x="496" y="82" type="curve"/>
			<point x="478.667" y="55.6667"/>
			<point x="456" y="41.3333"/>
			<point x="445" y="41.3333" type="curve" smooth="yes"/>
			<point x="430.333" y="41.3333"/>
			<point x="429" y="54"/>
			<point x="414" y="83.3333" type="curve" smooth="yes"/>
			<point x="396.333" y="119.667"/>
			<point x="374.333" y="165"/>
			<point x="356" y="195.667" type="curve"/>
			<point x="341" y="218.333"/>
			<point x="332" y="233.667"/>
			<point x="313" y="250" type="curve"/>
			<point x="312.667" y="251.333" type="line"/>
			<point x="362.667" y="304.333" type="line"/>
			<point x="370.333" y="312"/>
			<point x="376.333" y="319"/>
			<point x="382.667" y="325.333" type="curve" smooth="yes"/>
			<point x="413.333" y="356"/>
			<point name=".hr03" x="427.667" y="363.333"/>
		</contour>
	</outline>
</glyph>
<glyph name="lcaron" format="2">
	<unicode hex="013E"/>
	<advance width="310"/>
	<outline>
		<contour>
			<point x="206.667" y="563" type="curve" smooth="yes"/>
			<point x="107" y="118.667" type="line" smooth="yes"/>
			<point x="101.333" y="93"/>
			<point x="95.6667" y="65.3333"/>
			<point x="95" y="45.6667" type="curve"/>
			<point x="94.3333" y="41"/>
			<point x="94.3333" y="36.6667"/>
			<point x="94.6667" y="33" type="curve" smooth="yes"/>
			<point x="96.3333" y="12"/>
			<point x="104.667" y="-10"/>
			<point x="139.333" y="-10" type="curve" smooth="yes"/>
			<point x="192.667" y="-10"/>
			<point x="251.333" y="20.6667"/>
			<point x="298" y="89" type="curve"/>
			<point x="294.333" y="98.6667"/>
			<point x="287" y="109.667"/>
			<point x="273.667" y="109.667" type="curve"/>
			<point x="245" y="75.6667"/>
			<point x="212.333" y="55.3333"/>
			<point x="201" y="55.3333" type="curve" smooth="yes"/>
			<point x="193" y="55.3333"/>
			<point x="189.333" y="62"/>
			<point x="189.333" y="70.6667" type="curve" smooth="yes"/>
			<point x="189.333" y="80.3333"/>
			<point x="192.667" y="95.6667"/>
			<point x="199.667" y="127" type="curve" smooth="yes"/>
			<point x="300" y="577.667" type="line"/>
			<point x="301.333" y="583" type="line" smooth="yes"/>
			<point x="311" y="624.667"/>
			<point x="319" y="657"/>
			<point x="321.667" y="674.333" type="curve"/>
			<point x="322.333" y="682"/>
			<point x="322.333" y="686.667"/>
			<point x="321" y="688.333" type="curve"/>
			<point x="320" y="694"/>
			<point x="317" y="696.667"/>
			<point x="309.667" y="697.333" type="curve"/>
			<point x="306.667" y="697"/>
			<point x="302.333" y="696.667"/>
			<point x="297.667" y="696" type="curve"/>
			<point x="266" y="689.333"/>
			<point x="194.667" y="676.333"/>
			<point x="156.333" y="672" type="curve"/>
			<point x="154.333" y="664"/>
			<point x="153" y="656"/>
			<point x="152.333" y="648" type="curve"/>
			<point x="152.333" y="646"/>
			<point x="152.333" y="643.667"/>
			<point x="153.333" y="642" type="curve"/>
			<point x="156.667" y="642"/>
			<point x="159.667" y="641.333"/>
			<point x="163" y="641.333" type="curve"/>
			<point x="174" y="640.333"/>
			<point x="184.667" y="640"/>
			<point x="193.667" y="638" type="curve"/>
			<point x="206" y="636.667"/>
			<point x="213" y="629.667"/>
			<point x="213.333" y="610" type="curve"/>
			<point x="213.333" y="599.333"/>
			<point x="211.333" y="583.333"/>
		</contour>
		<contour>
			<point x="418" y="698" type="curve" smooth="yes"/>
			<point x="388" y="698"/>
			<point x="370" y="680"/>
			<point x="367" y="664" type="curve"/>
			<point x="363" y="648"/>
			<point x="364" y="626"/>
			<point name=".hr01" x="405" y="626" type="curve" smooth="yes"/>
			<point x="413" y="626"/>
			<point x="417" y="618"/>
			<point x="415" y="605" type="curve"/>
			<point x="410" y="582"/>
			<point x="382" y="545"/>
			<point x="338" y="536" type="curve"/>
			<point x="339" y="519" type="line"/>
			<point x="411" y="527"/>
			<point x="456" y="589"/>
			<point x="463" y="625" type="curve" smooth="yes"/>
			<point x="470" y="661"/>
			<point x="456" y="698"/>
		</contour>
	</outline>
</glyph>
<glyph name="Ldot" format="2">
	<unicode hex="013F"/>
	<advance width="530"/>
	<outline>
		<contour>
			<point x="342.333" y="40" type="curve" smooth="yes"/>
			<point x="261.667" y="40" type="line"/>
			<point x="249.667" y="40" type="line" smooth="yes"/>
			<point x="229.667" y="40"/>
			<point x="218.333" y="51.6667"/>
			<point x="217.333" y="73" type="curve" smooth="yes"/>
			<point x="217" y="80"/>
			<point x="217.333" y="88.3333"/>
			<point x="219.667" y="99.6667" type="curve" smooth="yes"/>
			<point x="303" y="528.333" type="line"/>
			<point x="305.667" y="539.667"/>
			<point x="307.667" y="551.667"/>
			<point x="310.667" y="563" type="curve" smooth="yes"/>
			<point x="318.667" y="595"/>
			<point x="334.333" y="608.667"/>
			<point x="370.333" y="613" type="curve" smooth="yes"/>
			<point x="380.333" y="614.333"/>
			<point x="391.667" y="615.333"/>
			<point x="402.667" y="616.333" type="curve"/>
			<point x="409" y="621"/>
			<point x="411.667" y="639"/>
			<point x="406.333" y="647" type="curve"/>
			<point x="354" y="646"/>
			<point x="323" y="645"/>
			<point x="289" y="645" type="curve" smooth="yes"/>
			<point x="283.333" y="645"/>
			<point x="278" y="645"/>
			<point x="272" y="645" type="curve" smooth="yes"/>
			<point x="231" y="645"/>
			<point x="173" y="646.333"/>
			<point x="143.667" y="647" type="curve"/>
			<point x="138" y="642.333"/>
			<point x="134.667" y="621.667"/>
			<point x="139.333" y="616.333" type="curve"/>
			<point x="151.667" y="615.333"/>
			<point x="164" y="614.333"/>
			<point x="174.667" y="612.667" type="curve"/>
			<point x="207.667" y="609"/>
			<point x="218.667" y="595.667"/>
			<point x="213.667" y="564" type="curve"/>
			<point x="212.333" y="552.333"/>
			<point x="209.667" y="541"/>
			<point x="207.667" y="528.333" type="curve"/>
			<point x="127" y="116.667" type="line" smooth="yes"/>
			<point x="124.333" y="101"/>
			<point x="120.667" y="87.6667"/>
			<point x="117.667" y="75" type="curve"/>
			<point x="110.333" y="48.3333"/>
			<point x="94.6667" y="36"/>
			<point x="60.3333" y="32" type="curve" smooth="yes"/>
			<point x="50.3333" y="30.6667"/>
			<point x="39" y="29.6667"/>
			<point x="28" y="28.6667" type="curve"/>
			<point x="21.6667" y="24"/>
			<point x="19" y="6"/>
			<point x="24.3333" y="-2" type="curve"/>
			<point x="54.3333" y="-1.33333"/>
			<point x="106.667" y="0"/>
			<point x="148" y="0" type="curve" smooth="yes"/>
			<point x="154.333" y="0"/>
			<point x="160" y="0"/>
			<point x="165.667" y="0" type="curve" smooth="yes"/>
			<point x="354" y="0" type="line"/>
			<point x="360.333" y="0" type="line" smooth="yes"/>
			<point x="387" y="0"/>
			<point x="474.667" y="-2"/>
			<point x="474.667" y="-2" type="curve"/>
			<point x="491" y="52"/>
			<point x="513" y="111.667"/>
			<point x="532.333" y="163.667" type="curve"/>
			<point x="525.667" y="169.333"/>
			<point x="511" y="172"/>
			<point x="500.333" y="170" type="curve"/>
			<point x="470.667" y="105.333"/>
			<point x="424.667" y="40"/>
		</contour>
		<contour>
			<point x="370" y="349" type="curve" smooth="yes"/>
			<point x="370" y="319.333"/>
			<point x="395.333" y="291"/>
			<point x="427.333" y="291" type="curve" smooth="yes"/>
			<point x="461" y="291"/>
			<point x="487" y="320.333"/>
			<point x="487" y="347.667" type="curve" smooth="yes"/>
			<point x="487" y="376.333"/>
			<point x="462" y="405.667"/>
			<point x="429.333" y="405.667" type="curve" smooth="yes"/>
			<point x="395" y="405.667"/>
			<point x="370" y="377.667"/>
		</contour>
	</outline>
</glyph>
<glyph name="ldot" format="2">
	<unicode hex="0140"/>
	<advance width="342"/>
	<outline>
		<contour>
			<point x="206.667" y="563" type="curve" smooth="yes"/>
			<point x="107" y="118.667" type="line" smooth="yes"/>
			<point x="101.333" y="93"/>
			<point x="95.6667" y="65.3333"/>
			<point x="95" y="45.6667" type="curve"/>
			<point x="94.3333" y="41"/>
			<point x="94.3333" y="36.6667"/>
			<point x="94.6667" y="33" type="curve" smooth="yes"/>
			<point x="96.3333" y="12"/>
			<point x="104.667" y="-10"/>
			<point x="139.333" y="-10" type="curve" smooth="yes"/>
			<point x="192.667" y="-10"/>
			<point x="251.333" y="20.6667"/>
			<point x="298" y="89" type="curve"/>
			<point x="294.333" y="98.6667"/>
			<point x="287" y="109.667"/>
			<point x="273.667" y="109.667" type="curve"/>
			<point x="245" y="75.6667"/>
			<point x="212.333" y="55.3333"/>
			<point x="201" y="55.3333" type="curve" smooth="yes"/>
			<point x="193" y="55.3333"/>
			<point x="189.333" y="62"/>
			<point x="189.333" y="70.6667" type="curve" smooth="yes"/>
			<point x="189.333" y="80.3333"/>
			<point x="192.667" y="95.6667"/>
			<point x="199.667" y="127" type="curve" smooth="yes"/>
			<point x="300" y="577.667" type="line"/>
			<point x="301.333" y="583" type="line" smooth="yes"/>
			<point x="311" y="624.667"/>
			<point x="319" y="657"/>
			<point x="321.667" y="674.333" type="curve"/>
			<point x="322.333" y="682"/>
			<point x="322.333" y="686.667"/>
			<point x="321" y="688.333" type="curve"/>
			<point x="320" y="694"/>
			<point x="317" y="696.667"/>
			<point x="309.667" y="697.333" type="curve"/>
			<point x="306.667" y="697"/>
			<point x="302.333" y="696.667"/>
			<point name=".hr01" x="297.667" y="696" type="curve"/>
			<point x="266" y="689.333"/>
			<point x="194.667" y="676.333"/>
			<point x="156.333" y="672" type="curve"/>
			<point x="154.333" y="664"/>
			<point x="153" y="656"/>
			<point x="152.333" y="648" type="curve"/>
			<point x="152.333" y="646"/>
			<point x="152.333" y="643.667"/>
			<point x="153.333" y="642" type="curve"/>
			<point x="156.667" y="642"/>
			<point x="159.667" y="641.333"/>
			<point x="163" y="641.333" type="curve"/>
			<point x="174" y="640.333"/>
			<point x="184.667" y="640"/>
			<point x="193.667" y="638" type="curve"/>
			<point x="206" y="636.667"/>
			<point x="213" y="629.667"/>
			<point x="213.333" y="610" type="curve"/>
			<point x="213.333" y="599.333"/>
			<point x="211.333" y="583.333"/>
		</contour>
		<contour>
			<point x="294.333" y="360" type="curve" smooth="yes"/>
			<point x="294.333" y="336"/>
			<point x="313.333" y="313"/>
			<point x="342.333" y="313" type="curve" smooth="yes"/>
			<point x="369.333" y="313"/>
			<point x="390.333" y="335"/>
			<point x="390.333" y="360" type="curve" smooth="yes"/>
			<point x="390.333" y="387"/>
			<point x="366.333" y="409"/>
			<point x="342.333" y="409" type="curve" smooth="yes"/>
			<point x="316.333" y="409"/>
			<point x="294.333" y="385"/>
		</contour>
	</outline>
</glyph>
<glyph name="Lslash" format="2">
	<unicode hex="0141"/>
	<advance width="530"/>
	<outline>
		<contour>
			<point x="393" y="449" type="line"/>
			<point x="276" y="387.333" type="line"/>
			<point x="303" y="527.667" type="line"/>
			<point x="305.667" y="539.667"/>
			<point x="307.667" y="551.667"/>
			<point x="310.667" y="563" type="curve" smooth="yes"/>
			<point x="318.667" y="595"/>
			<point x="334.333" y="608.667"/>
			<point x="370.333" y="613" type="curve" smooth="yes"/>
			<point x="380.333" y="614.333"/>
			<point x="391.667" y="615.333"/>
			<point x="402.667" y="616.333" type="curve"/>
			<point x="409" y="621"/>
			<point x="411.667" y="639"/>
			<point x="406.333" y="647" type="curve"/>
			<point x="350" y="646"/>
			<point x="316.333" y="645"/>
			<point x="277.667" y="645" type="curve" smooth="yes"/>
			<point x="239.667" y="645"/>
			<point x="173" y="646.333"/>
			<point x="143.667" y="647" type="curve"/>
			<point x="138" y="642.333"/>
			<point x="134.667" y="621.667"/>
			<point x="139.333" y="616.333" type="curve"/>
			<point x="151" y="615.333"/>
			<point x="162.667" y="614.333"/>
			<point x="173.333" y="613" type="curve" smooth="yes"/>
			<point x="205.667" y="609.667"/>
			<point x="217" y="598"/>
			<point x="213.667" y="570" type="curve"/>
			<point x="212.667" y="558"/>
			<point x="210.333" y="544"/>
			<point x="207.667" y="529" type="curve" smooth="yes"/>
			<point x="168.667" y="331.333" type="line"/>
			<point x="63" y="275" type="line"/>
			<point x="74" y="244" type="line"/>
			<point x="160.667" y="290.333" type="line"/>
			<point x="127" y="117.333" type="line" smooth="yes"/>
			<point x="124.333" y="101.667"/>
			<point x="120.667" y="87.6667"/>
			<point x="117.667" y="75" type="curve"/>
			<point x="110.333" y="48.3333"/>
			<point x="94.6667" y="36"/>
			<point x="60.3333" y="32" type="curve" smooth="yes"/>
			<point x="50.3333" y="30.6667"/>
			<point x="39" y="29.6667"/>
			<point x="28" y="28.6667" type="curve"/>
			<point x="21.6667" y="24"/>
			<point x="19" y="6"/>
			<point x="24.3333" y="-2" type="curve"/>
			<point x="54.3333" y="-1.33333"/>
			<point x="106.667" y="0"/>
			<point x="148" y="0" type="curve" smooth="yes"/>
			<point x="154.333" y="0"/>
			<point x="160" y="0"/>
			<point x="165.667" y="0" type="curve" smooth="yes"/>
			<point x="354.333" y="0" type="line" smooth="yes"/>
			<point x="359" y="0"/>
			<point x="365" y="0"/>
			<point x="371.667" y="0" type="curve"/>
			<point x="405" y="-0.666667"/>
			<point x="474.667" y="-2"/>
			<point x="474.667" y="-2" type="curve"/>
			<point x="491" y="52"/>
			<point x="513" y="111.667"/>
			<point x="532.333" y="163.667" type="curve"/>
			<point x="525.667" y="169.333"/>
			<point x="511" y="172"/>
			<point x="500.333" y="170" type="curve"/>
			<point x="471.667" y="107.333"/>
			<point x="427" y="43"/>
			<point x="349.667" y="40.3333" type="curve" smooth="yes"/>
			<point x="343.333" y="40"/>
			<point x="337" y="40"/>
			<point x="330.333" y="40" type="curve" smooth="yes"/>
			<point x="261.667" y="40" type="line"/>
			<point x="249.667" y="40" type="line" smooth="yes"/>
			<point x="229.667" y="40"/>
			<point x="218.333" y="51.6667"/>
			<point x="217.333" y="73" type="curve" smooth="yes"/>
			<point x="217" y="80"/>
			<point x="217.333" y="88.3333"/>
			<point x="219.667" y="99.6667" type="curve" smooth="yes"/>
			<point x="268" y="346.667" type="line"/>
			<point x="404" y="419" type="line"/>
		</contour>
	</outline>
</glyph>
<glyph name="lslash" format="2">
	<unicode hex="0142"/>
	<advance width="285"/>
	<outline>
		<contour>
			<point x="337.667" y="438" type="line"/>
			<point x="260" y="398" type="line"/>
			<point x="301.333" y="583" type="line" smooth="yes"/>
			<point x="309.667" y="618.667"/>
			<point x="317" y="647.667"/>
			<point x="319.667" y="666.333" type="curve" smooth="yes"/>
			<point x="321.667" y="679.333"/>
			<point x="322.333" y="686.667"/>
			<point x="321" y="688.333" type="curve"/>
			<point x="320" y="694"/>
			<point x="317" y="696.667"/>
			<point x="309.667" y="697.333" type="curve"/>
			<point x="306.667" y="697"/>
			<point x="302.333" y="696.667"/>
			<point name=".hr01" x="297.667" y="696" type="curve"/>
			<point x="266" y="689.333"/>
			<point x="194.667" y="676.333"/>
			<point x="156.333" y="672" type="curve"/>
			<point x="154.333" y="664"/>
			<point x="153" y="656"/>
			<point x="152.333" y="648" type="curve"/>
			<point x="152.333" y="646"/>
			<point x="152.333" y="643.667"/>
			<point x="153.333" y="642" type="curve"/>
			<point x="156.667" y="642"/>
			<point x="159.667" y="641.333"/>
			<point x="163" y="641.333" type="curve"/>
			<point x="174" y="640.333"/>
			<point x="184.667" y="640"/>
			<point x="193.667" y="638" type="curve"/>
			<point x="206" y="636.667"/>
			<point x="213" y="629.667"/>
			<point x="213.333" y="610" type="curve"/>
			<point x="213.333" y="599.333"/>
			<point x="211.333" y="583.333"/>
			<point x="206.667" y="563" type="curve" smooth="yes"/>
			<point x="157.667" y="345.333" type="line"/>
			<point x="69" y="299" type="line"/>
			<point x="78" y="270" type="line"/>
			<point x="149" y="306.667" type="line"/>
			<point x="107" y="118.667" type="line" smooth="yes"/>
			<point x="101.333" y="93"/>
			<point x="95.6667" y="65.3333"/>
			<point name=".hr02" x="95" y="45.6667" type="curve"/>
			<point x="94.3333" y="41"/>
			<point x="94.3333" y="36.6667"/>
			<point x="94.6667" y="33" type="curve" smooth="yes"/>
			<point x="96.3333" y="12"/>
			<point x="104.667" y="-10"/>
			<point x="139.333" y="-10" type="curve" smooth="yes"/>
			<point x="192.667" y="-10"/>
			<point x="251.333" y="20.6667"/>
			<point x="298" y="89" type="curve"/>
			<point x="294.333" y="98.6667"/>
			<point x="287" y="109.667"/>
			<point x="273.667" y="109.667" type="curve"/>
			<point x="245" y="75.6667"/>
			<point x="212.333" y="55.3333"/>
			<point x="201" y="55.3333" type="curve" smooth="yes"/>
			<point x="193" y="55.3333"/>
			<point x="189.333" y="62"/>
			<point x="189.333" y="70.6667" type="curve" smooth="yes"/>
			<point x="189.333" y="80.3333"/>
			<point x="192.667" y="95.6667"/>
			<point x="199.667" y="127" type="curve" smooth="yes"/>
			<point x="251.333" y="358.667" type="line"/>
			<point name=".hr03" x="346.667" y="408" type="line"/>
		</contour>
	</outline>
</glyph>
<glyph name="Ohungarumlaut" format="2">
	<unicode hex="0150"/>
	<advance width="678"/>
	<outline>
		<contour>
			<point x="336.333" y="-10" type="curve" smooth="yes"/>
			<point x="522.667" y="-10"/>
			<point x="669.333" y="128"/>
			<point x="708.333" y="322.333" type="curve" smooth="yes"/>
			<point x="714" y="349.667"/>
			<point x="716.333" y="377"/>
			<point x="716.333" y="403.333" type="curve" smooth="yes"/>
			<point x="716.333" y="559.333"/>
			<point x="610.333" y="658"/>
			<point x="462" y="658" type="curve" smooth="yes"/>
			<point x="368.667" y="658"/>
			<point x="280.667" y="614.333"/>
			<point x="213.667" y="544" type="curve" smooth="yes"/>
			<point x="157.667" y="485.333"/>
			<point x="114.667" y="406.667"/>
			<point x="96" y="317.667" type="curve" smooth="yes"/>
			<point x="90.6667" y="290"/>
			<point x="87.3333" y="263"/>
			<point x="87.3333" y="236.333" type="curve" smooth="yes"/>
			<point x="87.3333" y="82.6667"/>
			<point x="193.333" y="-10"/>
		</contour>
		<contour>
			<point x="442.667" y="621.333" type="curve" smooth="yes"/>
			<point x="541.667" y="621.333"/>
			<point x="608.667" y="551.333"/>
			<point x="608.667" y="414.333" type="curve" smooth="yes"/>
			<point x="608.667" y="380.667"/>
			<point x="605.333" y="345"/>
			<point x="598.333" y="307.667" type="curve" smooth="yes"/>
			<point x="565.333" y="137.333"/>
			<point x="468" y="26.6667"/>
			<point x="362.667" y="26.6667" type="curve" smooth="yes"/>
			<point x="269.667" y="26.6667"/>
			<point x="196.333" y="102.667"/>
			<point x="196.333" y="238" type="curve" smooth="yes"/>
			<point x="196.333" y="267"/>
			<point x="199.667" y="297.333"/>
			<point x="206" y="329" type="curve" smooth="yes"/>
			<point x="222" y="411.333"/>
			<point x="251" y="477.333"/>
			<point x="282.667" y="521.667" type="curve" smooth="yes"/>
			<point x="331.667" y="590.667"/>
			<point x="391" y="621.333"/>
		</contour>
		<contour>
			<point x="536.667" y="829.333" type="curve"/>
			<point x="532.333" y="832.333"/>
			<point x="527.333" y="832.667"/>
			<point x="523.333" y="832.667" type="curve"/>
			<point x="513.667" y="832"/>
			<point x="506.667" y="828.333"/>
			<point x="501.667" y="822" type="curve"/>
			<point x="501" y="821.667"/>
			<point x="500.667" y="821.333"/>
			<point x="500.333" y="820.667" type="curve"/>
			<point x="418.333" y="706" type="line"/>
			<point x="417.333" y="705"/>
			<point x="416.667" y="702.333"/>
			<point x="416.333" y="699.667" type="curve"/>
			<point x="416" y="695"/>
			<point x="419" y="691"/>
			<point x="422.667" y="689.667" type="curve"/>
			<point x="424.333" y="688.667"/>
			<point x="426.333" y="688"/>
			<point x="428" y="688" type="curve"/>
			<point x="428.667" y="688"/>
			<point x="429" y="688"/>
			<point x="429.333" y="688" type="curve"/>
			<point x="431" y="688.333"/>
			<point x="433.333" y="689"/>
			<point x="435.667" y="690" type="curve"/>
			<point x="548.667" y="775.333" type="line"/>
			<point x="554" y="780"/>
			<point x="558" y="787"/>
			<point x="559.667" y="794" type="curve" smooth="yes"/>
			<point x="560.333" y="796.667"/>
			<point x="560.667" y="799"/>
			<point x="560.667" y="801.667" type="curve" smooth="yes"/>
			<point x="560.667" y="816.667"/>
			<point x="548.333" y="827.333"/>
		</contour>
		<contour>
			<point x="577.333" y="828" type="curve"/>
			<point x="574.667" y="829.333"/>
			<point x="570.667" y="831"/>
			<point x="566.333" y="831" type="curve"/>
			<point x="557.333" y="829.667"/>
			<point x="550.667" y="826"/>
			<point x="545" y="820" type="curve"/>
			<point x="544" y="818.333"/>
			<point x="543" y="817.333"/>
			<point x="541.333" y="815.667" type="curve"/>
			<point x="460.333" y="704.667" type="line"/>
			<point x="459.333" y="703.667"/>
			<point x="458.333" y="700.333"/>
			<point x="458.333" y="698" type="curve" smooth="yes"/>
			<point x="458.333" y="692.667"/>
			<point x="462.667" y="688.667"/>
			<point x="467.333" y="687.667" type="curve"/>
			<point x="468.333" y="687.667"/>
			<point x="469.333" y="687.333"/>
			<point x="471" y="687" type="curve"/>
			<point x="472" y="687.667"/>
			<point x="474" y="687.333"/>
			<point x="475" y="688" type="curve"/>
			<point x="477" y="688.667"/>
			<point x="478.667" y="689.667"/>
			<point x="481" y="690.667" type="curve"/>
			<point x="591.333" y="773.333" type="line"/>
			<point x="598.333" y="777.333"/>
			<point x="602" y="785.667"/>
			<point x="603" y="794.333" type="curve"/>
			<point x="603.333" y="796.667"/>
			<point x="603.333" y="798.333"/>
			<point x="603" y="800.667" type="curve"/>
			<point x="602.667" y="814"/>
			<point x="595.333" y="826.333"/>
		</contour>
	</outline>
</glyph>
<glyph name="ohungarumlaut" format="2">
	<unicode hex="0151"/>
	<advance width="458"/>
	<outline>
		<contour>
			<point x="218.667" y="-10" type="curve" smooth="yes"/>
			<point x="251" y="-10"/>
			<point x="284.333" y="-5.33333"/>
			<point x="313.667" y="8" type="curve"/>
			<point x="320.667" y="10.6667"/>
			<point x="327" y="14.3333"/>
			<point x="333.667" y="18" type="curve"/>
			<point x="414" y="65.3333"/>
			<point x="476.667" y="160.667"/>
			<point x="476.667" y="278.333" type="curve" smooth="yes"/>
			<point x="476.667" y="350.333"/>
			<point x="452.333" y="439"/>
			<point x="329.333" y="439" type="curve" smooth="yes"/>
			<point x="281.333" y="439"/>
			<point x="239.333" y="425"/>
			<point x="205" y="403.667" type="curve" smooth="yes"/>
			<point x="119" y="351"/>
			<point x="74.3333" y="247.667"/>
			<point x="74.3333" y="162" type="curve" smooth="yes"/>
			<point x="74.3333" y="105.333"/>
			<point x="91.6667" y="-10"/>
		</contour>
		<contour>
			<point x="172.667" y="170" type="curve" smooth="yes"/>
			<point x="172.667" y="263.333"/>
			<point x="204.667" y="403"/>
			<point x="309" y="403" type="curve" smooth="yes"/>
			<point x="336.667" y="403"/>
			<point x="351.667" y="387.333"/>
			<point x="364.333" y="361.667" type="curve"/>
			<point x="376" y="335.667"/>
			<point x="378.333" y="297.667"/>
			<point x="378.333" y="266.667" type="curve" smooth="yes"/>
			<point x="378.333" y="224"/>
			<point x="373" y="143.333"/>
			<point x="340.333" y="89.6667" type="curve" smooth="yes"/>
			<point x="316" y="49"/>
			<point x="280" y="28.6667"/>
			<point x="240.333" y="28.6667" type="curve" smooth="yes"/>
			<point x="211.333" y="28.6667"/>
			<point x="172.667" y="62.6667"/>
		</contour>
		<contour>
			<point x="502" y="637.667" type="curve"/>
			<point x="505" y="656.667"/>
			<point x="492" y="674.667"/>
			<point x="471" y="674.667" type="curve" smooth="yes"/>
			<point x="459" y="674.667"/>
			<point x="452" y="671.667"/>
			<point x="445" y="662.667" type="curve" smooth="yes"/>
			<point x="338" y="523.667" type="line"/>
			<point x="337" y="522.667"/>
			<point x="337" y="520.667"/>
			<point x="337" y="519.667" type="curve"/>
			<point x="335" y="511.667"/>
			<point x="343" y="506.667"/>
			<point x="348" y="506.667" type="curve" smooth="yes"/>
			<point x="350" y="506.667"/>
			<point x="352" y="506.667"/>
			<point x="354" y="508.667" type="curve"/>
			<point x="491" y="618.667" type="line"/>
			<point x="498" y="624.667"/>
			<point x="500" y="631.667"/>
		</contour>
		<contour>
			<point x="371" y="643.667" type="curve" smooth="yes"/>
			<point x="375" y="664.667"/>
			<point x="361" y="679.667"/>
			<point x="340" y="679.667" type="curve" smooth="yes"/>
			<point x="336" y="679.667"/>
			<point x="320" y="678.667"/>
			<point x="311" y="665.667" type="curve"/>
			<point x="218" y="519.667" type="line"/>
			<point x="216" y="518.667"/>
			<point x="216" y="517.667"/>
			<point x="216" y="516.667" type="curve"/>
			<point x="214" y="508.667"/>
			<point x="221" y="503.667"/>
			<point x="227" y="503.667" type="curve" smooth="yes"/>
			<point x="230" y="503.667"/>
			<point x="234" y="504.667"/>
			<point x="236" y="506.667" type="curve" smooth="yes"/>
			<point x="363" y="627.667" type="line" smooth="yes"/>
			<point x="368" y="632.667"/>
			<point x="370" y="638.667"/>
		</contour>
	</outline>
</glyph>
<glyph name="OE" format="2">
	<unicode hex="0152"/>
	<advance width="850"/>
	<outline>
		<contour>
			<point x="662" y="366.333" type="curve" smooth="yes"/>
			<point x="567.667" y="366.333" type="line"/>
			<point x="606.333" y="555.333" type="line"/>
			<point x="608.333" y="566.667" type="line"/>
			<point x="613.333" y="590.667"/>
			<point x="629.667" y="604.333"/>
			<point x="653" y="604.333" type="curve" smooth="yes"/>
			<point x="767.333" y="604.333" type="line" smooth="yes"/>
			<point x="774" y="604.333"/>
			<point x="780.667" y="604.333"/>
			<point x="787" y="604" type="curve" smooth="yes"/>
			<point x="838.667" y="601.333"/>
			<point x="856" y="549.667"/>
			<point x="856.667" y="500.667" type="curve"/>
			<point x="866.667" y="500.667"/>
			<point x="879.667" y="502"/>
			<point x="889.333" y="504.333" type="curve"/>
			<point x="892" y="531.333"/>
			<point x="895.333" y="563.667"/>
			<point x="899" y="593.667" type="curve" smooth="yes"/>
			<point x="901.667" y="613.667"/>
			<point x="903.333" y="632.667"/>
			<point x="904.667" y="645.333" type="curve"/>
			<point x="901" y="646"/>
			<point x="896" y="646.333"/>
			<point x="891" y="646.333" type="curve"/>
			<point x="877" y="645.333"/>
			<point x="865.667" y="645"/>
			<point x="849" y="645" type="curve" smooth="yes"/>
			<point x="574.667" y="645" type="line" smooth="yes"/>
			<point x="555.333" y="645"/>
			<point x="506.667" y="645.333"/>
			<point x="475.333" y="646.333" type="curve"/>
			<point x="465" y="646.333"/>
			<point x="458" y="646.333"/>
			<point x="455.667" y="646" type="curve"/>
			<point x="274" y="642.667"/>
			<point x="141.667" y="496.333"/>
			<point x="105.333" y="318.333" type="curve" smooth="yes"/>
			<point x="69.3333" y="140.333"/>
			<point x="152" y="3"/>
			<point x="333.667" y="-1" type="curve"/>
			<point x="336.333" y="-1.33333"/>
			<point x="340.333" y="-1.33333"/>
			<point x="345" y="-1.33333" type="curve"/>
			<point x="365.667" y="-0.666667"/>
			<point name=".hr01" x="407.333" y="0"/>
			<point x="439.333" y="0" type="curve" smooth="yes"/>
			<point x="668.333" y="0" type="line" smooth="yes"/>
			<point x="709" y="0"/>
			<point x="763" y="-0.666667"/>
			<point x="787.667" y="-0.666667" type="curve"/>
			<point x="808.667" y="51.3333"/>
			<point x="827" y="109.333"/>
			<point x="846.333" y="161.667" type="curve"/>
			<point x="838" y="165"/>
			<point x="825" y="166.333"/>
			<point x="815" y="166.667" type="curve"/>
			<point x="784.667" y="96"/>
			<point x="742.333" y="43"/>
			<point x="678.667" y="40.3333" type="curve" smooth="yes"/>
			<point x="672.667" y="40"/>
			<point x="665.667" y="40"/>
			<point x="659.667" y="40" type="curve" smooth="yes"/>
			<point x="538" y="40" type="line" smooth="yes"/>
			<point x="518.667" y="40"/>
			<point x="506.667" y="48"/>
			<point x="509" y="71.6667" type="curve"/>
			<point x="509.333" y="77.6667"/>
			<point x="510.333" y="83.6667"/>
			<point x="512" y="90.6667" type="curve"/>
			<point x="559.333" y="327" type="line"/>
			<point x="653.667" y="327" type="line" smooth="yes"/>
			<point x="688.667" y="327"/>
			<point x="701" y="314.333"/>
			<point x="705" y="291.333" type="curve" smooth="yes"/>
			<point x="706.667" y="282.667"/>
			<point x="706.667" y="272.333"/>
			<point x="707" y="262.333" type="curve"/>
			<point x="707" y="259"/>
			<point x="707.333" y="255.667"/>
			<point x="707.667" y="253" type="curve"/>
			<point x="708.667" y="251.667"/>
			<point x="711.667" y="250.667"/>
			<point x="714.667" y="250.333" type="curve"/>
			<point x="723" y="250"/>
			<point x="733.667" y="250.333"/>
			<point x="740" y="251.667" type="curve"/>
			<point x="741" y="254.667"/>
			<point x="741.333" y="257.333"/>
			<point x="742.333" y="260" type="curve"/>
			<point x="746.667" y="289.333"/>
			<point x="747.667" y="314.667"/>
			<point x="754.333" y="347" type="curve" smooth="yes"/>
			<point x="761.667" y="380.333"/>
			<point x="770.667" y="407.667"/>
			<point x="778.667" y="439" type="curve"/>
			<point x="779.333" y="440.333"/>
			<point x="778.667" y="441.667"/>
			<point x="777.333" y="441.667" type="curve"/>
			<point x="771.667" y="443"/>
			<point x="762" y="443.333"/>
			<point x="753.333" y="443" type="curve"/>
			<point x="750" y="442.667"/>
			<point x="747" y="441.667"/>
			<point x="745.667" y="440.333" type="curve"/>
			<point x="744.333" y="436.333"/>
			<point x="743" y="432.667"/>
			<point x="741.333" y="429.333" type="curve"/>
			<point x="737.667" y="420.667"/>
			<point x="733.667" y="412.333"/>
			<point x="729.667" y="404.333" type="curve" smooth="yes"/>
			<point x="716.333" y="378.333"/>
			<point x="700.667" y="366.333"/>
		</contour>
		<contour>
			<point x="347.333" y="34.6667" type="line" smooth="yes"/>
			<point name=".hr02" x="251" y="34.6667"/>
			<point x="174" y="121.667"/>
			<point x="215.667" y="327.333" type="curve" smooth="yes"/>
			<point x="257.667" y="534"/>
			<point x="347.333" y="605"/>
			<point x="435.667" y="608.333" type="curve" smooth="yes"/>
			<point x="442" y="608.667"/>
			<point x="447.333" y="608.667"/>
			<point x="453.667" y="608.667" type="curve" smooth="yes"/>
			<point x="470.667" y="608.667" type="line" smooth="yes"/>
			<point x="480.667" y="608.667"/>
			<point x="488.333" y="608"/>
			<point x="495" y="606.667" type="curve" smooth="yes"/>
			<point x="509.333" y="604"/>
			<point name=".hr03" x="513.667" y="592.667"/>
			<point x="510.333" y="570.333" type="curve" smooth="yes"/>
			<point x="508.667" y="559.667"/>
			<point x="506.333" y="547.667"/>
			<point x="504" y="536" type="curve" smooth="yes"/>
			<point x="417" y="109.333" type="line" smooth="yes"/>
			<point x="415" y="99"/>
			<point x="412.667" y="88"/>
			<point x="410.333" y="78" type="curve" smooth="yes"/>
			<point x="403.667" y="49.6667"/>
			<point x="391" y="34.6667"/>
			<point x="359.333" y="34.6667" type="curve" smooth="yes"/>
		</contour>
	</outline>
</glyph>
<glyph name="oe" format="2">
	<unicode hex="0153"/>
	<advance width="712"/>
	<outline>
		<contour>
			<point x="77" y="166.333" type="curve" smooth="yes"/>
			<point x="77" y="98"/>
			<point x="116.667" y="-10"/>
			<point x="229.667" y="-10" type="curve" smooth="yes"/>
			<point x="290.333" y="-10"/>
			<point x="347" y="19"/>
			<point x="390.333" y="67.3333" type="curve"/>
			<point x="406" y="24.6667"/>
			<point x="440" y="-4.66667"/>
			<point x="496" y="-9.33333" type="curve"/>
			<point x="502" y="-10"/>
			<point x="507.667" y="-10"/>
			<point x="514.333" y="-9.66667" type="curve" smooth="yes"/>
			<point x="580" y="-8"/>
			<point x="644" y="26.3333"/>
			<point x="701.333" y="100.333" type="curve"/>
			<point x="696.333" y="111.333"/>
			<point x="687.333" y="119.333"/>
			<point x="675.333" y="119.333" type="curve"/>
			<point x="620.667" y="63.6667"/>
			<point x="595.333" y="51.6667"/>
			<point name=".hr01" x="550.333" y="50.3333" type="curve"/>
			<point x="545.333" y="50"/>
			<point x="540" y="50"/>
			<point x="535.333" y="50.6667" type="curve"/>
			<point x="497" y="54"/>
			<point x="476.333" y="88.6667"/>
			<point x="476.333" y="165" type="curve" smooth="yes"/>
			<point x="476.333" y="170"/>
			<point x="476.333" y="191"/>
			<point x="477.333" y="199" type="curve"/>
			<point x="614.667" y="226.667"/>
			<point x="680.667" y="260.333"/>
			<point x="710.667" y="292.667" type="curve" smooth="yes"/>
			<point x="736.333" y="320.333"/>
			<point x="736.333" y="347.667"/>
			<point x="736.333" y="365" type="curve" smooth="yes"/>
			<point x="736.333" y="366.333" type="line" smooth="yes"/>
			<point x="736.333" y="393.333"/>
			<point x="710.667" y="436"/>
			<point x="641.667" y="438.333" type="curve" smooth="yes"/>
			<point x="634.333" y="438.667"/>
			<point x="626.333" y="439"/>
			<point x="618.333" y="438.333" type="curve"/>
			<point x="547.667" y="435"/>
			<point name=".hr02" x="494.333" y="404.333"/>
			<point x="456.333" y="361.333" type="curve"/>
			<point x="439.333" y="404.333"/>
			<point x="403" y="439"/>
			<point x="326.667" y="439" type="curve" smooth="yes"/>
			<point x="159.667" y="439"/>
			<point x="77" y="286.333"/>
		</contour>
		<contour>
			<point x="174.333" y="174.333" type="curve" smooth="yes"/>
			<point x="174.333" y="264.333"/>
			<point x="193.667" y="401.667"/>
			<point name=".hr03" x="308.667" y="401.667" type="curve" smooth="yes"/>
			<point x="368.333" y="401.667"/>
			<point x="375" y="347.333"/>
			<point x="376" y="292" type="curve"/>
			<point x="376" y="286"/>
			<point x="376" y="280.333"/>
			<point x="376" y="274" type="curve" smooth="yes"/>
			<point x="376" y="271" type="line" smooth="yes"/>
			<point x="376" y="206"/>
			<point x="356.333" y="27.3333"/>
			<point x="244.667" y="27.3333" type="curve" smooth="yes"/>
			<point x="215.333" y="27.3333"/>
			<point x="174.333" y="58.6667"/>
		</contour>
		<contour>
			<point x="652.667" y="370" type="curve" smooth="yes"/>
			<point x="652.667" y="280"/>
			<point x="552.667" y="246.667"/>
			<point x="484.333" y="237" type="curve"/>
			<point x="518" y="374.667"/>
			<point x="566.333" y="403.333"/>
			<point x="606" y="404.667" type="curve"/>
			<point x="613.333" y="404.667"/>
			<point name=".hr04" x="619.667" y="404"/>
			<point x="624.667" y="403.333" type="curve" smooth="yes"/>
			<point x="644.333" y="400.667"/>
			<point x="652.667" y="391.333"/>
		</contour>
	</outline>
</glyph>
<glyph name="uni0157" format="2">
	<unicode hex="0157"/>
	<advance width="380"/>
	<outline>
		<contour>
			<point x="224.667" y="202" type="line"/>
			<point x="272.667" y="289"/>
			<point x="319.333" y="363"/>
			<point x="344" y="363" type="curve" smooth="yes"/>
			<point x="354.667" y="363"/>
			<point x="360" y="357.667"/>
			<point x="366.333" y="350" type="curve"/>
			<point x="374" y="341.333"/>
			<point name=".hr01" x="387.667" y="327.333"/>
			<point x="402.667" y="327.333" type="curve" smooth="yes"/>
			<point x="428.667" y="327.333"/>
			<point x="447.333" y="353.333"/>
			<point x="450" y="380" type="curve"/>
			<point x="450.667" y="383.667"/>
			<point x="450.667" y="387.667"/>
			<point x="450.333" y="391.333" type="curve"/>
			<point x="449" y="413.333"/>
			<point x="433" y="439"/>
			<point x="395.333" y="439" type="curve" smooth="yes"/>
			<point x="347" y="439"/>
			<point x="289.333" y="385.333"/>
			<point x="245.333" y="292.333" type="curve"/>
			<point x="241.667" y="293.667" type="line"/>
			<point x="244" y="303.333"/>
			<point x="245.667" y="312"/>
			<point x="248" y="321.667" type="curve" smooth="yes"/>
			<point x="256.333" y="360"/>
			<point x="263.333" y="394.667"/>
			<point x="263.333" y="411.333" type="curve" smooth="yes"/>
			<point x="263.333" y="426"/>
			<point name=".hr02" x="253.667" y="436"/>
			<point x="240.667" y="436" type="curve" smooth="yes"/>
			<point x="208.667" y="436"/>
			<point x="152.333" y="429"/>
			<point x="105.333" y="423" type="curve"/>
			<point x="98.3333" y="415"/>
			<point x="99.3333" y="400.667"/>
			<point x="105.333" y="391.667" type="curve"/>
			<point x="145.333" y="388.667" type="line" smooth="yes"/>
			<point x="157" y="387.667"/>
			<point x="162.333" y="378.667"/>
			<point x="163" y="368.667" type="curve"/>
			<point x="163.333" y="366"/>
			<point name=".hr03" x="163.333" y="363.667"/>
			<point x="163.333" y="361.333" type="curve" smooth="yes"/>
			<point x="163.333" y="354"/>
			<point x="162.667" y="342"/>
			<point x="158.333" y="323.333" type="curve"/>
			<point x="153.667" y="300"/>
			<point x="148.333" y="273"/>
			<point x="142.333" y="242.333" type="curve"/>
			<point x="104.667" y="72" type="line" smooth="yes"/>
			<point x="100" y="51.3333"/>
			<point x="91.6667" y="31"/>
			<point x="91.6667" y="17" type="curve" smooth="yes"/>
			<point x="91.6667" y="1.66667"/>
			<point x="100" y="-9"/>
			<point x="132" y="-9.66667" type="curve"/>
			<point x="136.667" y="-10"/>
			<point x="141" y="-9.33333"/>
			<point x="145.667" y="-8.66667" type="curve" smooth="yes"/>
			<point x="180.667" y="-3.33333"/>
			<point x="183.333" y="33.3333"/>
			<point x="192" y="68.3333" type="curve"/>
			<point x="192" y="69.6667"/>
			<point x="192.333" y="70.6667"/>
			<point x="192.667" y="72" type="curve" smooth="yes"/>
		</contour>
		<contour>
			<point x="138" y="-44.3333" type="curve" smooth="yes"/>
			<point x="111" y="-44.3333"/>
			<point x="84" y="-64"/>
			<point x="80" y="-85.6667" type="curve" smooth="yes"/>
			<point x="76" y="-107.333"/>
			<point x="87" y="-119"/>
			<point x="103" y="-124" type="curve"/>
			<point x="106.667" y="-125.333"/>
			<point x="109.667" y="-126.333"/>
			<point x="112.667" y="-127" type="curve"/>
			<point x="125.667" y="-129"/>
			<point x="138.333" y="-132"/>
			<point x="138" y="-145.667" type="curve"/>
			<point x="138" y="-147.667"/>
			<point x="138" y="-149.667"/>
			<point x="137.333" y="-151.667" type="curve"/>
			<point x="134" y="-169.667"/>
			<point x="103.667" y="-193.667"/>
			<point x="56" y="-204.667" type="curve"/>
			<point x="52.6667" y="-214.667"/>
			<point x="52.3333" y="-224"/>
			<point x="58.6667" y="-230" type="curve"/>
			<point x="120.333" y="-220.333"/>
			<point x="175.333" y="-187.667"/>
			<point x="187.333" y="-130" type="curve"/>
			<point x="188" y="-127.333"/>
			<point x="188.333" y="-123.667"/>
			<point x="189" y="-121" type="curve"/>
			<point x="196.667" y="-69.3333"/>
			<point x="172" y="-44.3333"/>
		</contour>
	</outline>
</glyph>
